<svg width="383" height="113" viewBox="0 0 383 113" fill="none" xmlns="http://www.w3.org/2000/svg">
<g filter="url(#filter0_d_233_8535)">
<rect x="13" y="13" width="353" height="83" rx="12" fill="white"/>
<path d="M89 54C89 70.5685 75.5685 84 59 84C42.4315 84 29 70.5685 29 54C29 37.4315 42.4315 24 59 24C75.5685 24 89 37.4315 89 54ZM31.5042 54C31.5042 69.1855 43.8145 81.4958 59 81.4958C74.1855 81.4958 86.4958 69.1855 86.4958 54C86.4958 38.8145 74.1855 26.5042 59 26.5042C43.8145 26.5042 31.5042 38.8145 31.5042 54Z" fill="#EAEAEC"/>
<path d="M84 54C84 67.8071 72.8071 79 59 79C45.1929 79 34 67.8071 34 54C34 40.1929 45.1929 29 59 29C72.8071 29 84 40.1929 84 54ZM36.5105 54C36.5105 66.4206 46.5794 76.4895 59 76.4895C71.4206 76.4895 81.4895 66.4206 81.4895 54C81.4895 41.5794 71.4206 31.5105 59 31.5105C46.5794 31.5105 36.5105 41.5794 36.5105 54Z" fill="#EAEAEC"/>
<path d="M59 30.25C59 29.5596 59.56 28.9967 60.2495 29.0312C64.1411 29.226 67.9338 30.3278 71.3239 32.2486C71.9246 32.589 72.0958 33.3643 71.7259 33.9472C71.356 34.5301 70.5851 34.6994 69.9826 34.3625C66.9956 32.6919 63.6665 31.7247 60.2494 31.5347C59.5601 31.4964 59 30.9404 59 30.25Z" fill="#7E7D88"/>
<path d="M59 25.2521C59 24.5606 59.5609 23.9973 60.2518 24.0261C66.6258 24.2922 72.7615 26.5847 77.7573 30.5871C83.0793 34.8508 86.7899 40.8006 88.2775 47.4557C89.7651 54.1108 88.9409 61.0742 85.9408 67.1982C82.9407 73.3222 77.9437 78.2413 71.7734 81.1448C65.603 84.0484 58.6276 84.763 51.9966 83.1711C45.3657 81.5791 39.475 77.7756 35.2953 72.3872C31.1157 66.9989 28.8966 60.3473 29.0037 53.5288C29.1042 47.1283 31.2489 40.9393 35.1068 35.8584C35.525 35.3077 36.3165 35.2346 36.8494 35.6754C37.3822 36.1162 37.4543 36.9038 37.0382 37.4561C33.542 42.0971 31.5992 47.7369 31.5076 53.5681C31.4094 59.8175 33.4433 65.9138 37.274 70.8524C41.1048 75.791 46.5038 79.277 52.5812 80.7361C58.6587 82.1952 65.0519 81.5401 70.7071 78.879C76.3624 76.2178 80.9423 71.7093 83.692 66.0965C86.4417 60.4837 87.1971 54.1016 85.8336 48.002C84.4702 41.9024 81.0694 36.4493 76.1916 32.5414C71.6401 28.895 66.0562 26.7971 60.2517 26.5327C59.5609 26.5012 59 25.9436 59 25.2521Z" fill="#35C75A"/>
<path d="M50.09 53.932C50.6687 54.0907 51.112 54.38 51.42 54.8C51.7373 55.22 51.896 55.7333 51.896 56.34C51.896 57.208 51.5693 57.8893 50.916 58.384C50.2627 58.8693 49.3573 59.112 48.2 59.112C47.0427 59.112 46.1373 58.8693 45.484 58.384C44.8307 57.8893 44.504 57.208 44.504 56.34C44.504 55.7333 44.6627 55.22 44.98 54.8C45.2973 54.3707 45.7453 54.0813 46.324 53.932C45.8293 53.7453 45.442 53.456 45.162 53.064C44.882 52.6627 44.742 52.196 44.742 51.664C44.742 50.8427 45.05 50.194 45.666 49.718C46.282 49.242 47.1267 49.004 48.2 49.004C49.2733 49.004 50.118 49.242 50.734 49.718C51.35 50.194 51.658 50.8427 51.658 51.664C51.658 52.2053 51.518 52.6767 51.238 53.078C50.958 53.4793 50.5753 53.764 50.09 53.932ZM48.2 50.418C47.0333 50.418 46.45 50.894 46.45 51.846C46.45 52.322 46.5947 52.686 46.884 52.938C47.1827 53.1807 47.6213 53.302 48.2 53.302C48.7787 53.302 49.2127 53.1807 49.502 52.938C49.8007 52.686 49.95 52.322 49.95 51.846C49.95 50.894 49.3667 50.418 48.2 50.418ZM48.2 57.698C49.5347 57.698 50.202 57.1987 50.202 56.2C50.202 55.2013 49.5347 54.702 48.2 54.702C46.8653 54.702 46.198 55.2013 46.198 56.2C46.198 57.1987 46.8653 57.698 48.2 57.698ZM57.1965 52.672C57.7845 52.672 58.3072 52.8073 58.7645 53.078C59.2219 53.3393 59.5765 53.7127 59.8285 54.198C60.0899 54.674 60.2205 55.22 60.2205 55.836C60.2205 56.4707 60.0759 57.04 59.7865 57.544C59.5065 58.0387 59.1145 58.426 58.6105 58.706C58.1159 58.986 57.5512 59.126 56.9165 59.126C55.6659 59.126 54.6999 58.706 54.0185 57.866C53.3465 57.0167 53.0105 55.808 53.0105 54.24C53.0105 53.1667 53.1692 52.238 53.4865 51.454C53.8039 50.6607 54.2565 50.054 54.8445 49.634C55.4419 49.214 56.1419 49.004 56.9445 49.004C57.4765 49.004 58.0085 49.102 58.5405 49.298C59.0819 49.4847 59.5392 49.7413 59.9125 50.068C60.0339 50.1707 60.1179 50.2733 60.1645 50.376C60.2205 50.4693 60.2485 50.586 60.2485 50.726C60.2485 50.9313 60.1879 51.1087 60.0665 51.258C59.9545 51.398 59.8192 51.468 59.6605 51.468C59.5672 51.468 59.4785 51.454 59.3945 51.426C59.3105 51.3887 59.2079 51.3327 59.0865 51.258C58.3119 50.7167 57.6212 50.446 57.0145 50.446C56.3332 50.446 55.7965 50.7633 55.4045 51.398C55.0125 52.0233 54.8072 52.9053 54.7885 54.044C55.0032 53.624 55.3252 53.2927 55.7545 53.05C56.1839 52.798 56.6645 52.672 57.1965 52.672ZM56.8185 57.698C57.3319 57.698 57.7425 57.5347 58.0505 57.208C58.3585 56.872 58.5125 56.4333 58.5125 55.892C58.5125 55.3507 58.3585 54.9167 58.0505 54.59C57.7425 54.2633 57.3319 54.1 56.8185 54.1C56.2959 54.1 55.8712 54.268 55.5445 54.604C55.2272 54.9307 55.0685 55.36 55.0685 55.892C55.0685 56.4333 55.2272 56.872 55.5445 57.208C55.8712 57.5347 56.2959 57.698 56.8185 57.698ZM65.4371 58.804C65.3531 58.9533 65.2504 59.0653 65.1291 59.14C65.0077 59.2147 64.8864 59.252 64.7651 59.252C64.5971 59.252 64.4477 59.1913 64.3171 59.07C64.1957 58.9487 64.1351 58.7947 64.1351 58.608C64.1351 58.4493 64.1817 58.2907 64.2751 58.132L69.3711 49.326C69.4551 49.1767 69.5577 49.0647 69.6791 48.99C69.8004 48.9153 69.9217 48.878 70.0431 48.878C70.2111 48.878 70.3557 48.9387 70.4771 49.06C70.6077 49.1813 70.6731 49.3353 70.6731 49.522C70.6731 49.6807 70.6264 49.8393 70.5331 49.998L65.4371 58.804ZM63.8831 55.024C63.0991 55.024 62.4877 54.7673 62.0491 54.254C61.6104 53.7407 61.3911 52.9893 61.3911 52C61.3911 51.02 61.6104 50.2733 62.0491 49.76C62.4877 49.2467 63.0991 48.99 63.8831 48.99C64.6671 48.99 65.2784 49.2467 65.7171 49.76C66.1651 50.2733 66.3891 51.02 66.3891 52C66.3891 52.9893 66.1651 53.7407 65.7171 54.254C65.2784 54.7673 64.6671 55.024 63.8831 55.024ZM63.8831 53.89C64.2377 53.89 64.4944 53.7453 64.6531 53.456C64.8211 53.1573 64.9051 52.672 64.9051 52C64.9051 51.3467 64.8211 50.8707 64.6531 50.572C64.4851 50.2733 64.2284 50.124 63.8831 50.124C63.5377 50.124 63.2811 50.2733 63.1131 50.572C62.9544 50.8613 62.8751 51.3373 62.8751 52C62.8751 52.672 62.9544 53.1573 63.1131 53.456C63.2811 53.7453 63.5377 53.89 63.8831 53.89ZM70.9251 59.098C70.1411 59.098 69.5297 58.8413 69.0911 58.328C68.6524 57.8147 68.4331 57.0587 68.4331 56.06C68.4331 55.08 68.6524 54.338 69.0911 53.834C69.5391 53.3207 70.1504 53.064 70.9251 53.064C71.7091 53.064 72.3204 53.3207 72.7591 53.834C73.1977 54.3473 73.4171 55.094 73.4171 56.074C73.4171 57.0633 73.1977 57.8147 72.7591 58.328C72.3204 58.8413 71.7091 59.098 70.9251 59.098ZM70.9251 57.964C71.2704 57.964 71.5271 57.8193 71.6951 57.53C71.8631 57.2313 71.9471 56.746 71.9471 56.074C71.9471 55.4207 71.8631 54.9447 71.6951 54.646C71.5271 54.3473 71.2704 54.198 70.9251 54.198C70.5797 54.198 70.3231 54.3473 70.1551 54.646C69.9871 54.9447 69.9031 55.4207 69.9031 56.074C69.9031 56.746 69.9871 57.2313 70.1551 57.53C70.3231 57.8193 70.5797 57.964 70.9251 57.964Z" fill="#535261"/>
<path d="M79 54C79 65.0457 70.0457 74 59 74C47.9543 74 39 65.0457 39 54C39 42.9543 47.9543 34 59 34C70.0457 34 79 42.9543 79 54ZM41.0084 54C41.0084 63.9365 49.0635 71.9916 59 71.9916C68.9365 71.9916 76.9916 63.9365 76.9916 54C76.9916 44.0635 68.9365 36.0084 59 36.0084C49.0635 36.0084 41.0084 44.0635 41.0084 54Z" fill="#EAEAEC"/>
<path d="M59 35.0042C59 34.4496 59.4499 33.9974 60.0038 34.0252C61.4283 34.0968 62.841 34.3205 64.2179 34.6927C64.7533 34.8374 65.0414 35.4065 64.87 35.9339C64.6987 36.4614 64.1327 36.7471 63.5965 36.6054C62.4212 36.2949 61.2174 36.1042 60.0037 36.0364C59.4499 36.0054 59 35.5588 59 35.0042Z" fill="#F178B6"/>
<path d="M317.712 32.932C318.3 33.0813 318.748 33.366 319.056 33.786C319.373 34.1967 319.532 34.71 319.532 35.326C319.532 36.1753 319.219 36.852 318.594 37.356C317.969 37.86 317.124 38.112 316.06 38.112C315.453 38.112 314.87 38.0187 314.31 37.832C313.75 37.6453 313.274 37.384 312.882 37.048C312.667 36.8613 312.56 36.642 312.56 36.39C312.56 36.1847 312.616 36.012 312.728 35.872C312.849 35.7227 312.989 35.648 313.148 35.648C313.241 35.648 313.325 35.6667 313.4 35.704C313.475 35.732 313.577 35.7833 313.708 35.858C314.1 36.1193 314.473 36.32 314.828 36.46C315.183 36.6 315.57 36.67 315.99 36.67C316.606 36.67 317.063 36.5487 317.362 36.306C317.661 36.054 317.81 35.676 317.81 35.172C317.81 34.6773 317.651 34.3133 317.334 34.08C317.026 33.8373 316.545 33.716 315.892 33.716H315.094C314.879 33.716 314.711 33.646 314.59 33.506C314.478 33.3567 314.422 33.1887 314.422 33.002C314.422 32.806 314.478 32.638 314.59 32.498C314.711 32.358 314.879 32.288 315.094 32.288H315.654C316.933 32.288 317.572 31.8073 317.572 30.846C317.572 30.398 317.437 30.0527 317.166 29.81C316.895 29.5673 316.522 29.446 316.046 29.446C315.365 29.446 314.637 29.7167 313.862 30.258C313.731 30.3327 313.629 30.3887 313.554 30.426C313.479 30.454 313.395 30.468 313.302 30.468C313.143 30.468 313.003 30.398 312.882 30.258C312.77 30.1087 312.714 29.9313 312.714 29.726C312.714 29.586 312.737 29.4693 312.784 29.376C312.84 29.2733 312.924 29.1707 313.036 29.068C313.428 28.7413 313.895 28.4847 314.436 28.298C314.987 28.102 315.547 28.004 316.116 28.004C317.087 28.004 317.857 28.242 318.426 28.718C319.005 29.194 319.294 29.8287 319.294 30.622C319.285 31.1633 319.14 31.6393 318.86 32.05C318.589 32.4513 318.207 32.7453 317.712 32.932ZM322.131 38.084C321.832 38.084 321.585 37.986 321.389 37.79C321.193 37.5847 321.095 37.3327 321.095 37.034C321.095 36.7353 321.193 36.488 321.389 36.292C321.585 36.0867 321.832 35.984 322.131 35.984C322.429 35.984 322.677 36.0867 322.873 36.292C323.069 36.488 323.167 36.7353 323.167 37.034C323.167 37.3327 323.069 37.5847 322.873 37.79C322.677 37.986 322.429 38.084 322.131 38.084ZM330.909 28.13C331.152 28.13 331.339 28.2 331.469 28.34C331.6 28.4707 331.665 28.6433 331.665 28.858C331.665 29.0727 331.6 29.2967 331.469 29.53L327.003 37.636C326.817 37.9533 326.56 38.112 326.233 38.112C326.009 38.112 325.809 38.0373 325.631 37.888C325.463 37.7293 325.379 37.538 325.379 37.314C325.379 37.1553 325.426 36.9967 325.519 36.838L329.537 29.586H325.309C324.749 29.586 324.469 29.348 324.469 28.872C324.469 28.3773 324.749 28.13 325.309 28.13H330.909ZM339.234 36.544C339.794 36.544 340.074 36.782 340.074 37.258C340.074 37.7527 339.794 38 339.234 38H333.914C333.671 38 333.48 37.93 333.34 37.79C333.2 37.6407 333.13 37.4587 333.13 37.244C333.13 36.964 333.237 36.712 333.452 36.488L336.644 33.058C337.036 32.6287 337.32 32.2367 337.498 31.882C337.684 31.518 337.778 31.1587 337.778 30.804C337.778 30.3653 337.652 30.0293 337.4 29.796C337.148 29.5627 336.788 29.446 336.322 29.446C335.939 29.446 335.566 29.5207 335.202 29.67C334.847 29.81 334.488 30.006 334.124 30.258C334.03 30.3233 333.937 30.3793 333.844 30.426C333.75 30.4633 333.657 30.482 333.564 30.482C333.405 30.482 333.265 30.4073 333.144 30.258C333.032 30.1087 332.976 29.9313 332.976 29.726C332.976 29.586 332.999 29.4647 333.046 29.362C333.102 29.2593 333.186 29.1613 333.298 29.068C333.708 28.7413 334.189 28.4847 334.74 28.298C335.29 28.102 335.841 28.004 336.392 28.004C337.353 28.004 338.118 28.2467 338.688 28.732C339.266 29.2173 339.556 29.8707 339.556 30.692C339.556 31.2613 339.434 31.798 339.192 32.302C338.949 32.7967 338.538 33.352 337.96 33.968L335.538 36.544H339.234ZM347.684 36.544C348.244 36.544 348.524 36.782 348.524 37.258C348.524 37.7527 348.244 38 347.684 38H342.952C342.383 38 342.098 37.7527 342.098 37.258C342.098 36.782 342.383 36.544 342.952 36.544H344.408V30.16L343.064 30.986C342.933 31.0607 342.817 31.098 342.714 31.098C342.518 31.098 342.35 31.014 342.21 30.846C342.079 30.678 342.014 30.4913 342.014 30.286C342.014 30.0153 342.135 29.8053 342.378 29.656L344.548 28.312C344.828 28.144 345.094 28.06 345.346 28.06C345.607 28.06 345.817 28.1393 345.976 28.298C346.135 28.4567 346.214 28.676 346.214 28.956V36.544H347.684Z" fill="#35C75A"/>
<path d="M217.044 28.54C218.396 28.54 219.44 28.908 220.176 29.644C220.92 30.372 221.292 31.412 221.292 32.764C221.292 34.116 220.92 35.16 220.176 35.896C219.432 36.632 218.388 37 217.044 37H214.704C214.552 37 214.428 36.956 214.332 36.868C214.244 36.772 214.2 36.656 214.2 36.52V33.112H213.444C213.308 33.112 213.2 33.08 213.12 33.016C213.04 32.944 213 32.844 213 32.716C213 32.588 213.04 32.488 213.12 32.416C213.2 32.344 213.308 32.308 213.444 32.308H214.2V29.02C214.2 28.876 214.244 28.76 214.332 28.672C214.428 28.584 214.552 28.54 214.704 28.54H217.044ZM216.996 36.16C219.188 36.16 220.284 35.028 220.284 32.764C220.284 30.508 219.188 29.38 216.996 29.38H215.184V32.308H217.152C217.288 32.308 217.392 32.344 217.464 32.416C217.544 32.488 217.584 32.588 217.584 32.716C217.584 32.844 217.544 32.944 217.464 33.016C217.392 33.08 217.288 33.112 217.152 33.112H215.184V36.16H216.996ZM225.311 31.012C226.775 31.012 227.507 31.78 227.507 33.316V36.58C227.507 36.724 227.463 36.84 227.375 36.928C227.295 37.016 227.183 37.06 227.039 37.06C226.895 37.06 226.779 37.016 226.691 36.928C226.603 36.84 226.559 36.724 226.559 36.58V36.004C226.407 36.348 226.175 36.616 225.863 36.808C225.551 36.992 225.191 37.084 224.783 37.084C224.407 37.084 224.059 37.008 223.739 36.856C223.427 36.704 223.179 36.492 222.995 36.22C222.811 35.948 222.719 35.648 222.719 35.32C222.719 34.88 222.831 34.54 223.055 34.3C223.279 34.052 223.647 33.876 224.159 33.772C224.671 33.66 225.383 33.604 226.295 33.604H226.559V33.208C226.559 32.728 226.459 32.376 226.259 32.152C226.067 31.928 225.751 31.816 225.311 31.816C224.767 31.816 224.215 31.964 223.655 32.26C223.439 32.396 223.287 32.464 223.199 32.464C223.103 32.464 223.023 32.428 222.959 32.356C222.895 32.284 222.863 32.192 222.863 32.08C222.863 31.968 222.895 31.872 222.959 31.792C223.031 31.704 223.143 31.616 223.295 31.528C223.575 31.368 223.891 31.244 224.243 31.156C224.603 31.06 224.959 31.012 225.311 31.012ZM224.915 36.316C225.395 36.316 225.787 36.156 226.091 35.836C226.403 35.508 226.559 35.088 226.559 34.576V34.228H226.343C225.639 34.228 225.103 34.26 224.735 34.324C224.367 34.38 224.103 34.48 223.943 34.624C223.791 34.76 223.715 34.964 223.715 35.236C223.715 35.548 223.827 35.808 224.051 36.016C224.283 36.216 224.571 36.316 224.915 36.316ZM232.227 31.012C233.627 31.012 234.327 31.784 234.327 33.328V36.58C234.327 36.732 234.283 36.852 234.195 36.94C234.115 37.02 233.999 37.06 233.847 37.06C233.695 37.06 233.575 37.02 233.487 36.94C233.399 36.852 233.355 36.732 233.355 36.58V33.388C233.355 32.844 233.247 32.448 233.031 32.2C232.823 31.952 232.487 31.828 232.023 31.828C231.487 31.828 231.059 31.992 230.739 32.32C230.419 32.648 230.259 33.092 230.259 33.652V36.58C230.259 36.732 230.215 36.852 230.127 36.94C230.047 37.02 229.931 37.06 229.779 37.06C229.627 37.06 229.507 37.02 229.419 36.94C229.331 36.852 229.287 36.732 229.287 36.58V31.516C229.287 31.372 229.331 31.256 229.419 31.168C229.507 31.08 229.627 31.036 229.779 31.036C229.923 31.036 230.035 31.08 230.115 31.168C230.203 31.256 230.247 31.368 230.247 31.504V32.116C230.439 31.756 230.707 31.484 231.051 31.3C231.395 31.108 231.787 31.012 232.227 31.012ZM240.847 31.036C240.999 31.036 241.119 31.08 241.207 31.168C241.295 31.256 241.339 31.372 241.339 31.516V36.604C241.339 37.476 241.115 38.132 240.667 38.572C240.219 39.02 239.555 39.244 238.675 39.244C237.819 39.244 237.107 39.076 236.539 38.74C236.251 38.58 236.107 38.396 236.107 38.188C236.107 38.076 236.135 37.984 236.191 37.912C236.255 37.84 236.335 37.804 236.431 37.804C236.511 37.804 236.655 37.86 236.863 37.972C237.143 38.116 237.419 38.232 237.691 38.32C237.963 38.408 238.287 38.452 238.663 38.452C239.231 38.452 239.659 38.3 239.947 37.996C240.235 37.7 240.379 37.264 240.379 36.688V35.656C240.211 36.032 239.951 36.32 239.599 36.52C239.255 36.72 238.847 36.82 238.375 36.82C237.863 36.82 237.407 36.7 237.007 36.46C236.615 36.22 236.307 35.88 236.083 35.44C235.867 35 235.759 34.492 235.759 33.916C235.759 33.34 235.867 32.832 236.083 32.392C236.307 31.952 236.615 31.612 237.007 31.372C237.407 31.132 237.863 31.012 238.375 31.012C238.839 31.012 239.243 31.112 239.587 31.312C239.931 31.512 240.191 31.796 240.367 32.164V31.516C240.367 31.372 240.407 31.256 240.487 31.168C240.575 31.08 240.695 31.036 240.847 31.036ZM238.567 36.016C239.127 36.016 239.567 35.832 239.887 35.464C240.207 35.088 240.367 34.572 240.367 33.916C240.367 33.268 240.207 32.76 239.887 32.392C239.575 32.016 239.135 31.828 238.567 31.828C237.999 31.828 237.551 32.016 237.223 32.392C236.903 32.76 236.743 33.268 236.743 33.916C236.743 34.572 236.903 35.088 237.223 35.464C237.551 35.832 237.999 36.016 238.567 36.016ZM248.644 37.084C248.1 37.084 247.616 36.96 247.192 36.712C246.776 36.464 246.452 36.112 246.22 35.656C245.996 35.2 245.884 34.672 245.884 34.072C245.884 33.472 246 32.94 246.232 32.476C246.472 32.012 246.804 31.652 247.228 31.396C247.652 31.14 248.14 31.012 248.692 31.012C248.996 31.012 249.296 31.056 249.592 31.144C249.896 31.224 250.16 31.344 250.384 31.504C250.528 31.6 250.628 31.696 250.684 31.792C250.748 31.88 250.78 31.98 250.78 32.092C250.78 32.204 250.748 32.296 250.684 32.368C250.628 32.44 250.552 32.476 250.456 32.476C250.4 32.476 250.34 32.46 250.276 32.428C250.212 32.396 250.156 32.364 250.108 32.332C250.068 32.3 250.04 32.28 250.024 32.272C249.816 32.136 249.616 32.028 249.424 31.948C249.24 31.868 249.012 31.828 248.74 31.828C248.156 31.828 247.7 32.028 247.372 32.428C247.052 32.82 246.892 33.368 246.892 34.072C246.892 34.776 247.052 35.32 247.372 35.704C247.7 36.088 248.156 36.28 248.74 36.28C249.012 36.28 249.244 36.24 249.436 36.16C249.636 36.08 249.836 35.972 250.036 35.836C250.124 35.78 250.208 35.732 250.288 35.692C250.368 35.652 250.436 35.632 250.492 35.632C250.58 35.632 250.652 35.668 250.708 35.74C250.772 35.812 250.804 35.904 250.804 36.016C250.804 36.12 250.776 36.216 250.72 36.304C250.664 36.384 250.56 36.476 250.408 36.58C250.184 36.732 249.912 36.856 249.592 36.952C249.28 37.04 248.964 37.084 248.644 37.084ZM254.926 31.012C255.614 31.012 256.134 31.208 256.486 31.6C256.838 31.984 257.014 32.56 257.014 33.328V36.58C257.014 36.732 256.97 36.852 256.882 36.94C256.794 37.02 256.678 37.06 256.534 37.06C256.382 37.06 256.262 37.02 256.174 36.94C256.086 36.852 256.042 36.732 256.042 36.58V33.352C256.042 32.832 255.934 32.448 255.718 32.2C255.51 31.952 255.174 31.828 254.71 31.828C254.174 31.828 253.746 31.992 253.426 32.32C253.106 32.648 252.946 33.092 252.946 33.652V36.58C252.946 36.732 252.902 36.852 252.814 36.94C252.734 37.02 252.618 37.06 252.466 37.06C252.314 37.06 252.194 37.02 252.106 36.94C252.018 36.852 251.974 36.732 251.974 36.58V28.948C251.974 28.812 252.018 28.7 252.106 28.612C252.202 28.524 252.322 28.48 252.466 28.48C252.618 28.48 252.734 28.524 252.814 28.612C252.902 28.692 252.946 28.804 252.946 28.948V32.092C253.138 31.74 253.406 31.472 253.75 31.288C254.094 31.104 254.486 31.012 254.926 31.012ZM262.947 31.576C263.283 31.832 263.543 32.176 263.727 32.608C263.911 33.032 264.003 33.512 264.003 34.048C264.003 34.656 263.887 35.192 263.655 35.656C263.431 36.112 263.107 36.464 262.683 36.712C262.259 36.96 261.771 37.084 261.219 37.084C260.667 37.084 260.179 36.96 259.755 36.712C259.339 36.464 259.015 36.112 258.783 35.656C258.559 35.192 258.447 34.656 258.447 34.048C258.447 33.44 258.559 32.908 258.783 32.452C259.015 31.988 259.339 31.632 259.755 31.384C260.179 31.136 260.667 31.012 261.219 31.012C261.307 31.012 261.407 31.02 261.519 31.036C261.631 31.044 261.711 31.048 261.759 31.048C261.919 31.064 262.027 31.072 262.083 31.072C262.435 31.072 262.695 30.988 262.863 30.82C263.031 30.652 263.127 30.372 263.151 29.98C263.175 29.676 263.335 29.524 263.631 29.524C263.767 29.524 263.867 29.564 263.931 29.644C264.003 29.716 264.039 29.84 264.039 30.016C264.039 30.392 263.943 30.716 263.751 30.988C263.559 31.26 263.291 31.456 262.947 31.576ZM261.219 36.28C261.795 36.28 262.235 36.092 262.539 35.716C262.851 35.332 263.007 34.776 263.007 34.048C263.007 33.336 262.851 32.788 262.539 32.404C262.227 32.012 261.787 31.816 261.219 31.816C260.651 31.816 260.211 32.012 259.899 32.404C259.587 32.788 259.431 33.336 259.431 34.048C259.431 34.768 259.583 35.32 259.887 35.704C260.199 36.088 260.643 36.28 261.219 36.28ZM259.311 28.804C259.151 28.652 259.071 28.5 259.071 28.348C259.071 28.22 259.115 28.116 259.203 28.036C259.291 27.948 259.399 27.904 259.527 27.904C259.711 27.904 259.875 27.996 260.019 28.18L261.411 30.004C261.459 30.06 261.483 30.12 261.483 30.184C261.483 30.256 261.455 30.32 261.399 30.376C261.343 30.424 261.279 30.448 261.207 30.448C261.135 30.448 261.071 30.424 261.015 30.376L259.311 28.804Z" fill="#7E7D88"/>
<rect x="205" y="31" width="4" height="4" rx="2" fill="#35C75A"/>
<path d="M319.35 55.668C319.63 55.668 319.84 55.7287 319.98 55.85C320.12 55.9713 320.19 56.144 320.19 56.368C320.19 56.8347 319.91 57.068 319.35 57.068H318.636V58.174C318.636 58.4633 318.552 58.6873 318.384 58.846C318.225 59.0047 318.015 59.084 317.754 59.084C317.493 59.084 317.278 59.0047 317.11 58.846C316.951 58.6873 316.872 58.4633 316.872 58.174V57.068H313.204C312.952 57.068 312.756 56.998 312.616 56.858C312.476 56.7087 312.406 56.5267 312.406 56.312C312.406 56.088 312.481 55.8733 312.63 55.668L316.956 49.452C317.049 49.3213 317.166 49.2233 317.306 49.158C317.446 49.0833 317.591 49.046 317.74 49.046C317.983 49.046 318.193 49.1253 318.37 49.284C318.547 49.4427 318.636 49.6667 318.636 49.956V55.668H319.35ZM314.268 55.668H316.872V51.902L314.268 55.668ZM326.485 53.932C327.063 54.0907 327.507 54.38 327.815 54.8C328.132 55.22 328.291 55.7333 328.291 56.34C328.291 57.208 327.964 57.8893 327.311 58.384C326.657 58.8693 325.752 59.112 324.595 59.112C323.437 59.112 322.532 58.8693 321.879 58.384C321.225 57.8893 320.899 57.208 320.899 56.34C320.899 55.7333 321.057 55.22 321.375 54.8C321.692 54.3707 322.14 54.0813 322.719 53.932C322.224 53.7453 321.837 53.456 321.557 53.064C321.277 52.6627 321.137 52.196 321.137 51.664C321.137 50.8427 321.445 50.194 322.061 49.718C322.677 49.242 323.521 49.004 324.595 49.004C325.668 49.004 326.513 49.242 327.129 49.718C327.745 50.194 328.053 50.8427 328.053 51.664C328.053 52.2053 327.913 52.6767 327.633 53.078C327.353 53.4793 326.97 53.764 326.485 53.932ZM324.595 50.418C323.428 50.418 322.845 50.894 322.845 51.846C322.845 52.322 322.989 52.686 323.279 52.938C323.577 53.1807 324.016 53.302 324.595 53.302C325.173 53.302 325.607 53.1807 325.897 52.938C326.195 52.686 326.345 52.322 326.345 51.846C326.345 50.894 325.761 50.418 324.595 50.418ZM324.595 57.698C325.929 57.698 326.597 57.1987 326.597 56.2C326.597 55.2013 325.929 54.702 324.595 54.702C323.26 54.702 322.593 55.2013 322.593 56.2C322.593 57.1987 323.26 57.698 324.595 57.698ZM333.591 52.672C334.179 52.672 334.702 52.8073 335.159 53.078C335.616 53.3393 335.971 53.7127 336.223 54.198C336.484 54.674 336.615 55.22 336.615 55.836C336.615 56.4707 336.47 57.04 336.181 57.544C335.901 58.0387 335.509 58.426 335.005 58.706C334.51 58.986 333.946 59.126 333.311 59.126C332.06 59.126 331.094 58.706 330.413 57.866C329.741 57.0167 329.405 55.808 329.405 54.24C329.405 53.1667 329.564 52.238 329.881 51.454C330.198 50.6607 330.651 50.054 331.239 49.634C331.836 49.214 332.536 49.004 333.339 49.004C333.871 49.004 334.403 49.102 334.935 49.298C335.476 49.4847 335.934 49.7413 336.307 50.068C336.428 50.1707 336.512 50.2733 336.559 50.376C336.615 50.4693 336.643 50.586 336.643 50.726C336.643 50.9313 336.582 51.1087 336.461 51.258C336.349 51.398 336.214 51.468 336.055 51.468C335.962 51.468 335.873 51.454 335.789 51.426C335.705 51.3887 335.602 51.3327 335.481 51.258C334.706 50.7167 334.016 50.446 333.409 50.446C332.728 50.446 332.191 50.7633 331.799 51.398C331.407 52.0233 331.202 52.9053 331.183 54.044C331.398 53.624 331.72 53.2927 332.149 53.05C332.578 52.798 333.059 52.672 333.591 52.672ZM333.213 57.698C333.726 57.698 334.137 57.5347 334.445 57.208C334.753 56.872 334.907 56.4333 334.907 55.892C334.907 55.3507 334.753 54.9167 334.445 54.59C334.137 54.2633 333.726 54.1 333.213 54.1C332.69 54.1 332.266 54.268 331.939 54.604C331.622 54.9307 331.463 55.36 331.463 55.892C331.463 56.4333 331.622 56.872 331.939 57.208C332.266 57.5347 332.69 57.698 333.213 57.698Z" fill="#35C75A"/>
<path d="M217.044 49.54C218.396 49.54 219.44 49.908 220.176 50.644C220.92 51.372 221.292 52.412 221.292 53.764C221.292 55.116 220.92 56.16 220.176 56.896C219.432 57.632 218.388 58 217.044 58H214.704C214.552 58 214.428 57.956 214.332 57.868C214.244 57.772 214.2 57.656 214.2 57.52V54.112H213.444C213.308 54.112 213.2 54.08 213.12 54.016C213.04 53.944 213 53.844 213 53.716C213 53.588 213.04 53.488 213.12 53.416C213.2 53.344 213.308 53.308 213.444 53.308H214.2V50.02C214.2 49.876 214.244 49.76 214.332 49.672C214.428 49.584 214.552 49.54 214.704 49.54H217.044ZM216.996 57.16C219.188 57.16 220.284 56.028 220.284 53.764C220.284 51.508 219.188 50.38 216.996 50.38H215.184V53.308H217.152C217.288 53.308 217.392 53.344 217.464 53.416C217.544 53.488 217.584 53.588 217.584 53.716C217.584 53.844 217.544 53.944 217.464 54.016C217.392 54.08 217.288 54.112 217.152 54.112H215.184V57.16H216.996ZM225.311 52.012C226.775 52.012 227.507 52.78 227.507 54.316V57.58C227.507 57.724 227.463 57.84 227.375 57.928C227.295 58.016 227.183 58.06 227.039 58.06C226.895 58.06 226.779 58.016 226.691 57.928C226.603 57.84 226.559 57.724 226.559 57.58V57.004C226.407 57.348 226.175 57.616 225.863 57.808C225.551 57.992 225.191 58.084 224.783 58.084C224.407 58.084 224.059 58.008 223.739 57.856C223.427 57.704 223.179 57.492 222.995 57.22C222.811 56.948 222.719 56.648 222.719 56.32C222.719 55.88 222.831 55.54 223.055 55.3C223.279 55.052 223.647 54.876 224.159 54.772C224.671 54.66 225.383 54.604 226.295 54.604H226.559V54.208C226.559 53.728 226.459 53.376 226.259 53.152C226.067 52.928 225.751 52.816 225.311 52.816C224.767 52.816 224.215 52.964 223.655 53.26C223.439 53.396 223.287 53.464 223.199 53.464C223.103 53.464 223.023 53.428 222.959 53.356C222.895 53.284 222.863 53.192 222.863 53.08C222.863 52.968 222.895 52.872 222.959 52.792C223.031 52.704 223.143 52.616 223.295 52.528C223.575 52.368 223.891 52.244 224.243 52.156C224.603 52.06 224.959 52.012 225.311 52.012ZM224.915 57.316C225.395 57.316 225.787 57.156 226.091 56.836C226.403 56.508 226.559 56.088 226.559 55.576V55.228H226.343C225.639 55.228 225.103 55.26 224.735 55.324C224.367 55.38 224.103 55.48 223.943 55.624C223.791 55.76 223.715 55.964 223.715 56.236C223.715 56.548 223.827 56.808 224.051 57.016C224.283 57.216 224.571 57.316 224.915 57.316ZM226.163 50.92C226.011 50.92 225.863 50.884 225.719 50.812C225.575 50.74 225.403 50.636 225.203 50.5C225.027 50.388 224.887 50.308 224.783 50.26C224.679 50.204 224.583 50.176 224.495 50.176C224.359 50.176 224.251 50.212 224.171 50.284C224.099 50.356 224.027 50.456 223.955 50.584C223.899 50.672 223.851 50.74 223.811 50.788C223.771 50.828 223.723 50.848 223.667 50.848C223.595 50.848 223.535 50.82 223.487 50.764C223.439 50.708 223.415 50.636 223.415 50.548C223.415 50.404 223.459 50.244 223.547 50.068C223.635 49.892 223.759 49.74 223.919 49.612C224.079 49.484 224.259 49.42 224.459 49.42C224.611 49.42 224.759 49.456 224.903 49.528C225.047 49.6 225.219 49.704 225.419 49.84C225.595 49.952 225.735 50.036 225.839 50.092C225.943 50.14 226.039 50.164 226.127 50.164C226.255 50.164 226.355 50.128 226.427 50.056C226.507 49.984 226.587 49.884 226.667 49.756C226.723 49.66 226.771 49.592 226.811 49.552C226.851 49.504 226.899 49.48 226.955 49.48C227.027 49.48 227.087 49.512 227.135 49.576C227.183 49.632 227.207 49.704 227.207 49.792C227.207 49.928 227.163 50.088 227.075 50.272C226.987 50.448 226.863 50.6 226.703 50.728C226.543 50.856 226.363 50.92 226.163 50.92ZM234.348 58.084C233.98 58.084 233.628 58.04 233.292 57.952C232.964 57.864 232.672 57.74 232.416 57.58C232.272 57.484 232.168 57.396 232.104 57.316C232.048 57.228 232.02 57.124 232.02 57.004C232.02 56.9 232.048 56.816 232.104 56.752C232.168 56.68 232.248 56.644 232.344 56.644C232.44 56.644 232.58 56.704 232.764 56.824C233.004 56.968 233.24 57.084 233.472 57.172C233.712 57.252 234.008 57.292 234.36 57.292C234.792 57.292 235.128 57.216 235.368 57.064C235.608 56.912 235.728 56.692 235.728 56.404C235.728 56.228 235.684 56.088 235.596 55.984C235.508 55.872 235.356 55.776 235.14 55.696C234.924 55.608 234.608 55.52 234.192 55.432C233.488 55.28 232.984 55.076 232.68 54.82C232.376 54.564 232.224 54.216 232.224 53.776C232.224 53.432 232.32 53.128 232.512 52.864C232.704 52.6 232.968 52.392 233.304 52.24C233.648 52.088 234.036 52.012 234.468 52.012C234.78 52.012 235.08 52.056 235.368 52.144C235.664 52.224 235.924 52.34 236.148 52.492C236.42 52.684 236.556 52.884 236.556 53.092C236.556 53.196 236.524 53.284 236.46 53.356C236.396 53.428 236.32 53.464 236.232 53.464C236.136 53.464 235.992 53.396 235.8 53.26C235.576 53.116 235.364 53.004 235.164 52.924C234.964 52.844 234.716 52.804 234.42 52.804C234.044 52.804 233.74 52.888 233.508 53.056C233.284 53.224 233.172 53.448 233.172 53.728C233.172 53.904 233.212 54.048 233.292 54.16C233.38 54.264 233.52 54.36 233.712 54.448C233.912 54.528 234.196 54.608 234.564 54.688C235.108 54.808 235.528 54.94 235.824 55.084C236.128 55.228 236.344 55.404 236.472 55.612C236.6 55.82 236.664 56.084 236.664 56.404C236.664 56.908 236.452 57.316 236.028 57.628C235.604 57.932 235.044 58.084 234.348 58.084ZM244.482 51.016C244.482 51.456 244.35 51.828 244.086 52.132C243.83 52.428 243.49 52.6 243.066 52.648V57.592C243.066 57.728 243.022 57.84 242.934 57.928C242.854 58.016 242.738 58.06 242.586 58.06C242.442 58.06 242.326 58.02 242.238 57.94C242.158 57.852 242.118 57.74 242.118 57.604V57.004C241.934 57.356 241.674 57.624 241.338 57.808C241.01 57.992 240.638 58.084 240.222 58.084C239.526 58.084 239.002 57.892 238.65 57.508C238.298 57.116 238.122 56.54 238.122 55.78V52.516C238.122 52.372 238.166 52.256 238.254 52.168C238.342 52.08 238.462 52.036 238.614 52.036C238.766 52.036 238.882 52.08 238.962 52.168C239.05 52.256 239.094 52.372 239.094 52.516V55.756C239.094 56.276 239.198 56.66 239.406 56.908C239.614 57.148 239.942 57.268 240.39 57.268C240.902 57.268 241.314 57.104 241.626 56.776C241.938 56.44 242.094 56 242.094 55.456V52.516C242.094 52.22 242.254 52.06 242.574 52.036C242.918 52.036 243.166 51.956 243.318 51.796C243.47 51.636 243.558 51.364 243.582 50.98C243.614 50.676 243.774 50.524 244.062 50.524C244.206 50.524 244.31 50.564 244.374 50.644C244.446 50.716 244.482 50.84 244.482 51.016ZM240.942 51.136C240.934 51.232 240.898 51.308 240.834 51.364C240.778 51.42 240.71 51.448 240.63 51.448C240.542 51.448 240.466 51.416 240.402 51.352C240.338 51.28 240.306 51.184 240.306 51.064C240.306 50.904 240.346 50.768 240.426 50.656C240.506 50.536 240.622 50.404 240.774 50.26C240.886 50.148 240.962 50.064 241.002 50.008C241.05 49.952 241.074 49.888 241.074 49.816C241.074 49.72 241.03 49.648 240.942 49.6C240.862 49.544 240.746 49.516 240.594 49.516C240.418 49.516 240.218 49.552 239.994 49.624C239.97 49.632 239.934 49.636 239.886 49.636C239.806 49.636 239.742 49.612 239.694 49.564C239.654 49.508 239.634 49.444 239.634 49.372C239.634 49.236 239.702 49.14 239.838 49.084C240.102 48.972 240.37 48.916 240.642 48.916C241.026 48.916 241.326 48.996 241.542 49.156C241.758 49.308 241.866 49.504 241.866 49.744C241.866 49.92 241.826 50.064 241.746 50.176C241.666 50.28 241.542 50.404 241.374 50.548C241.246 50.644 241.146 50.736 241.074 50.824C241.002 50.912 240.958 51.016 240.942 51.136ZM252.834 49.48C252.986 49.48 253.106 49.524 253.194 49.612C253.282 49.7 253.326 49.812 253.326 49.948V57.58C253.326 57.724 253.282 57.84 253.194 57.928C253.106 58.016 252.986 58.06 252.834 58.06C252.682 58.06 252.562 58.016 252.474 57.928C252.394 57.84 252.354 57.724 252.354 57.58V56.932C252.178 57.3 251.918 57.584 251.574 57.784C251.238 57.984 250.842 58.084 250.386 58.084C249.874 58.084 249.422 57.956 249.03 57.7C248.638 57.444 248.334 57.088 248.118 56.632C247.902 56.168 247.794 55.632 247.794 55.024C247.794 54.424 247.902 53.896 248.118 53.44C248.334 52.984 248.638 52.632 249.03 52.384C249.422 52.136 249.874 52.012 250.386 52.012C250.842 52.012 251.238 52.112 251.574 52.312C251.918 52.512 252.178 52.796 252.354 53.164V49.948C252.354 49.804 252.394 49.692 252.474 49.612C252.562 49.524 252.682 49.48 252.834 49.48ZM250.578 57.28C251.146 57.28 251.582 57.088 251.886 56.704C252.198 56.312 252.354 55.76 252.354 55.048C252.354 54.336 252.198 53.788 251.886 53.404C251.582 53.02 251.146 52.828 250.578 52.828C250.01 52.828 249.566 53.02 249.246 53.404C248.934 53.788 248.778 54.328 248.778 55.024C248.778 55.736 248.934 56.292 249.246 56.692C249.566 57.084 250.01 57.28 250.578 57.28ZM259.567 52.036C259.719 52.036 259.835 52.08 259.915 52.168C260.003 52.256 260.047 52.372 260.047 52.516V57.592C260.047 57.728 260.003 57.84 259.915 57.928C259.835 58.016 259.719 58.06 259.567 58.06C259.423 58.06 259.307 58.02 259.219 57.94C259.139 57.852 259.099 57.74 259.099 57.604V57.004C258.915 57.356 258.655 57.624 258.319 57.808C257.991 57.992 257.619 58.084 257.203 58.084C256.507 58.084 255.983 57.892 255.631 57.508C255.279 57.116 255.103 56.54 255.103 55.78V52.516C255.103 52.372 255.147 52.256 255.235 52.168C255.323 52.08 255.443 52.036 255.595 52.036C255.747 52.036 255.863 52.08 255.943 52.168C256.031 52.256 256.075 52.372 256.075 52.516V55.756C256.075 56.276 256.179 56.66 256.387 56.908C256.595 57.148 256.923 57.268 257.371 57.268C257.883 57.268 258.295 57.104 258.607 56.776C258.919 56.44 259.075 56 259.075 55.456V52.516C259.075 52.372 259.119 52.256 259.207 52.168C259.295 52.08 259.415 52.036 259.567 52.036ZM257.587 60.244C257.403 60.244 257.255 60.188 257.143 60.076C257.031 59.972 256.975 59.832 256.975 59.656C256.975 59.48 257.031 59.336 257.143 59.224C257.255 59.12 257.403 59.068 257.587 59.068C257.763 59.068 257.907 59.12 258.019 59.224C258.139 59.336 258.199 59.48 258.199 59.656C258.199 59.832 258.143 59.972 258.031 60.076C257.919 60.188 257.771 60.244 257.587 60.244ZM264.793 52.012C266.193 52.012 266.893 52.784 266.893 54.328V57.58C266.893 57.732 266.849 57.852 266.761 57.94C266.681 58.02 266.565 58.06 266.413 58.06C266.261 58.06 266.141 58.02 266.053 57.94C265.965 57.852 265.921 57.732 265.921 57.58V54.388C265.921 53.844 265.813 53.448 265.597 53.2C265.389 52.952 265.053 52.828 264.589 52.828C264.053 52.828 263.625 52.992 263.305 53.32C262.985 53.648 262.825 54.092 262.825 54.652V57.58C262.825 57.732 262.781 57.852 262.693 57.94C262.613 58.02 262.497 58.06 262.345 58.06C262.193 58.06 262.073 58.02 261.985 57.94C261.897 57.852 261.853 57.732 261.853 57.58V52.516C261.853 52.372 261.897 52.256 261.985 52.168C262.073 52.08 262.193 52.036 262.345 52.036C262.489 52.036 262.601 52.08 262.681 52.168C262.769 52.256 262.813 52.368 262.813 52.504V53.116C263.005 52.756 263.273 52.484 263.617 52.3C263.961 52.108 264.353 52.012 264.793 52.012ZM273.413 52.036C273.565 52.036 273.685 52.08 273.773 52.168C273.861 52.256 273.905 52.372 273.905 52.516V57.604C273.905 58.476 273.681 59.132 273.233 59.572C272.785 60.02 272.121 60.244 271.241 60.244C270.385 60.244 269.673 60.076 269.105 59.74C268.817 59.58 268.673 59.396 268.673 59.188C268.673 59.076 268.701 58.984 268.757 58.912C268.821 58.84 268.901 58.804 268.997 58.804C269.077 58.804 269.221 58.86 269.429 58.972C269.709 59.116 269.985 59.232 270.257 59.32C270.529 59.408 270.853 59.452 271.229 59.452C271.797 59.452 272.225 59.3 272.513 58.996C272.801 58.7 272.945 58.264 272.945 57.688V56.656C272.777 57.032 272.517 57.32 272.165 57.52C271.821 57.72 271.413 57.82 270.941 57.82C270.429 57.82 269.973 57.7 269.573 57.46C269.181 57.22 268.873 56.88 268.649 56.44C268.433 56 268.325 55.492 268.325 54.916C268.325 54.34 268.433 53.832 268.649 53.392C268.873 52.952 269.181 52.612 269.573 52.372C269.973 52.132 270.429 52.012 270.941 52.012C271.405 52.012 271.809 52.112 272.153 52.312C272.497 52.512 272.757 52.796 272.933 53.164V52.516C272.933 52.372 272.973 52.256 273.053 52.168C273.141 52.08 273.261 52.036 273.413 52.036ZM271.133 57.016C271.693 57.016 272.133 56.832 272.453 56.464C272.773 56.088 272.933 55.572 272.933 54.916C272.933 54.268 272.773 53.76 272.453 53.392C272.141 53.016 271.701 52.828 271.133 52.828C270.565 52.828 270.117 53.016 269.789 53.392C269.469 53.76 269.309 54.268 269.309 54.916C269.309 55.572 269.469 56.088 269.789 56.464C270.117 56.832 270.565 57.016 271.133 57.016Z" fill="#7E7D88"/>
<rect x="205" y="52" width="4" height="4" rx="2" fill="#7E7D88"/>
<path d="M317.712 74.932C318.3 75.0813 318.748 75.366 319.056 75.786C319.373 76.1967 319.532 76.71 319.532 77.326C319.532 78.1753 319.219 78.852 318.594 79.356C317.969 79.86 317.124 80.112 316.06 80.112C315.453 80.112 314.87 80.0187 314.31 79.832C313.75 79.6453 313.274 79.384 312.882 79.048C312.667 78.8613 312.56 78.642 312.56 78.39C312.56 78.1847 312.616 78.012 312.728 77.872C312.849 77.7227 312.989 77.648 313.148 77.648C313.241 77.648 313.325 77.6667 313.4 77.704C313.475 77.732 313.577 77.7833 313.708 77.858C314.1 78.1193 314.473 78.32 314.828 78.46C315.183 78.6 315.57 78.67 315.99 78.67C316.606 78.67 317.063 78.5487 317.362 78.306C317.661 78.054 317.81 77.676 317.81 77.172C317.81 76.6773 317.651 76.3133 317.334 76.08C317.026 75.8373 316.545 75.716 315.892 75.716H315.094C314.879 75.716 314.711 75.646 314.59 75.506C314.478 75.3567 314.422 75.1887 314.422 75.002C314.422 74.806 314.478 74.638 314.59 74.498C314.711 74.358 314.879 74.288 315.094 74.288H315.654C316.933 74.288 317.572 73.8073 317.572 72.846C317.572 72.398 317.437 72.0527 317.166 71.81C316.895 71.5673 316.522 71.446 316.046 71.446C315.365 71.446 314.637 71.7167 313.862 72.258C313.731 72.3327 313.629 72.3887 313.554 72.426C313.479 72.454 313.395 72.468 313.302 72.468C313.143 72.468 313.003 72.398 312.882 72.258C312.77 72.1087 312.714 71.9313 312.714 71.726C312.714 71.586 312.737 71.4693 312.784 71.376C312.84 71.2733 312.924 71.1707 313.036 71.068C313.428 70.7413 313.895 70.4847 314.436 70.298C314.987 70.102 315.547 70.004 316.116 70.004C317.087 70.004 317.857 70.242 318.426 70.718C319.005 71.194 319.294 71.8287 319.294 72.622C319.285 73.1633 319.14 73.6393 318.86 74.05C318.589 74.4513 318.207 74.7453 317.712 74.932ZM327.367 78.544C327.927 78.544 328.207 78.782 328.207 79.258C328.207 79.7527 327.927 80 327.367 80H322.047C321.804 80 321.613 79.93 321.473 79.79C321.333 79.6407 321.263 79.4587 321.263 79.244C321.263 78.964 321.37 78.712 321.585 78.488L324.777 75.058C325.169 74.6287 325.453 74.2367 325.631 73.882C325.817 73.518 325.911 73.1587 325.911 72.804C325.911 72.3653 325.785 72.0293 325.533 71.796C325.281 71.5627 324.921 71.446 324.455 71.446C324.072 71.446 323.699 71.5207 323.335 71.67C322.98 71.81 322.621 72.006 322.257 72.258C322.163 72.3233 322.07 72.3793 321.977 72.426C321.883 72.4633 321.79 72.482 321.697 72.482C321.538 72.482 321.398 72.4073 321.277 72.258C321.165 72.1087 321.109 71.9313 321.109 71.726C321.109 71.586 321.132 71.4647 321.179 71.362C321.235 71.2593 321.319 71.1613 321.431 71.068C321.841 70.7413 322.322 70.4847 322.873 70.298C323.423 70.102 323.974 70.004 324.525 70.004C325.486 70.004 326.251 70.2467 326.821 70.732C327.399 71.2173 327.689 71.8707 327.689 72.692C327.689 73.2613 327.567 73.798 327.325 74.302C327.082 74.7967 326.671 75.352 326.093 75.968L323.671 78.544H327.367Z" fill="#35C75A"/>
<path d="M218.844 74.656C219.332 74.784 219.708 75.024 219.972 75.376C220.244 75.728 220.38 76.168 220.38 76.696C220.38 77.44 220.136 78.012 219.648 78.412C219.16 78.804 218.468 79 217.572 79H214.548C214.396 79 214.272 78.956 214.176 78.868C214.088 78.78 214.044 78.664 214.044 78.52V71.02C214.044 70.876 214.088 70.76 214.176 70.672C214.272 70.584 214.396 70.54 214.548 70.54H217.44C218.312 70.54 218.988 70.732 219.468 71.116C219.948 71.5 220.188 72.044 220.188 72.748C220.188 73.204 220.068 73.596 219.828 73.924C219.596 74.252 219.268 74.496 218.844 74.656ZM215.016 74.296H217.296C217.928 74.296 218.404 74.168 218.724 73.912C219.052 73.656 219.216 73.284 219.216 72.796C219.216 71.836 218.576 71.356 217.296 71.356H215.016V74.296ZM217.476 78.184C218.14 78.184 218.628 78.064 218.94 77.824C219.26 77.576 219.42 77.192 219.42 76.672C219.42 75.632 218.772 75.112 217.476 75.112H215.016V78.184H217.476ZM224.41 79.084C223.858 79.084 223.37 78.96 222.946 78.712C222.53 78.464 222.206 78.112 221.974 77.656C221.75 77.192 221.638 76.656 221.638 76.048C221.638 75.44 221.75 74.908 221.974 74.452C222.206 73.988 222.53 73.632 222.946 73.384C223.37 73.136 223.858 73.012 224.41 73.012C224.962 73.012 225.45 73.136 225.874 73.384C226.298 73.632 226.622 73.988 226.846 74.452C227.078 74.908 227.194 75.44 227.194 76.048C227.194 76.656 227.078 77.192 226.846 77.656C226.622 78.112 226.298 78.464 225.874 78.712C225.45 78.96 224.962 79.084 224.41 79.084ZM224.41 78.28C224.986 78.28 225.426 78.092 225.73 77.716C226.042 77.332 226.198 76.776 226.198 76.048C226.198 75.336 226.042 74.788 225.73 74.404C225.418 74.012 224.978 73.816 224.41 73.816C223.842 73.816 223.402 74.012 223.09 74.404C222.778 74.788 222.622 75.336 222.622 76.048C222.622 76.768 222.774 77.32 223.078 77.704C223.39 78.088 223.834 78.28 224.41 78.28ZM224.746 72.136C224.738 72.232 224.702 72.308 224.638 72.364C224.582 72.42 224.514 72.448 224.434 72.448C224.346 72.448 224.27 72.416 224.206 72.352C224.142 72.28 224.11 72.184 224.11 72.064C224.11 71.904 224.15 71.768 224.23 71.656C224.31 71.536 224.426 71.404 224.578 71.26C224.69 71.148 224.766 71.064 224.806 71.008C224.854 70.952 224.878 70.888 224.878 70.816C224.878 70.72 224.834 70.648 224.746 70.6C224.666 70.544 224.55 70.516 224.398 70.516C224.222 70.516 224.022 70.552 223.798 70.624C223.774 70.632 223.738 70.636 223.69 70.636C223.61 70.636 223.546 70.612 223.498 70.564C223.458 70.508 223.438 70.444 223.438 70.372C223.438 70.236 223.506 70.14 223.642 70.084C223.906 69.972 224.174 69.916 224.446 69.916C224.83 69.916 225.13 69.996 225.346 70.156C225.562 70.308 225.67 70.504 225.67 70.744C225.67 70.92 225.63 71.064 225.55 71.176C225.47 71.28 225.346 71.404 225.178 71.548C225.05 71.644 224.95 71.736 224.878 71.824C224.806 71.912 224.762 72.016 224.746 72.136ZM236.428 73.036C236.58 73.036 236.7 73.08 236.788 73.168C236.876 73.256 236.92 73.372 236.92 73.516V80.752C236.92 80.888 236.876 81 236.788 81.088C236.7 81.176 236.58 81.22 236.428 81.22C236.276 81.22 236.156 81.176 236.068 81.088C235.988 81.008 235.948 80.896 235.948 80.752V77.932C235.772 78.3 235.512 78.584 235.168 78.784C234.832 78.984 234.436 79.084 233.98 79.084C233.46 79.084 233.004 78.96 232.612 78.712C232.228 78.464 231.928 78.116 231.712 77.668C231.496 77.212 231.388 76.68 231.388 76.072C231.388 75.464 231.496 74.932 231.712 74.476C231.928 74.012 232.232 73.652 232.624 73.396C233.016 73.14 233.468 73.012 233.98 73.012C234.436 73.012 234.832 73.112 235.168 73.312C235.512 73.512 235.772 73.796 235.948 74.164V73.516C235.948 73.372 235.988 73.256 236.068 73.168C236.156 73.08 236.276 73.036 236.428 73.036ZM234.172 78.28C234.74 78.28 235.176 78.088 235.48 77.704C235.792 77.312 235.948 76.76 235.948 76.048C235.948 75.336 235.792 74.788 235.48 74.404C235.176 74.02 234.74 73.828 234.172 73.828C233.604 73.828 233.16 74.028 232.84 74.428C232.528 74.82 232.372 75.368 232.372 76.072C232.372 76.776 232.528 77.32 232.84 77.704C233.16 78.088 233.604 78.28 234.172 78.28ZM243.16 73.036C243.312 73.036 243.428 73.08 243.508 73.168C243.596 73.256 243.64 73.372 243.64 73.516V78.592C243.64 78.728 243.596 78.84 243.508 78.928C243.428 79.016 243.312 79.06 243.16 79.06C243.016 79.06 242.9 79.02 242.812 78.94C242.732 78.852 242.692 78.74 242.692 78.604V78.004C242.508 78.356 242.248 78.624 241.912 78.808C241.584 78.992 241.212 79.084 240.796 79.084C240.1 79.084 239.576 78.892 239.224 78.508C238.872 78.116 238.696 77.54 238.696 76.78V73.516C238.696 73.372 238.74 73.256 238.828 73.168C238.916 73.08 239.036 73.036 239.188 73.036C239.34 73.036 239.456 73.08 239.536 73.168C239.624 73.256 239.668 73.372 239.668 73.516V76.756C239.668 77.276 239.772 77.66 239.98 77.908C240.188 78.148 240.516 78.268 240.964 78.268C241.476 78.268 241.888 78.104 242.2 77.776C242.512 77.44 242.668 77 242.668 76.456V73.516C242.668 73.372 242.712 73.256 242.8 73.168C242.888 73.08 243.008 73.036 243.16 73.036ZM247.835 73.012C249.299 73.012 250.031 73.78 250.031 75.316V78.58C250.031 78.724 249.987 78.84 249.899 78.928C249.819 79.016 249.707 79.06 249.563 79.06C249.419 79.06 249.303 79.016 249.215 78.928C249.127 78.84 249.083 78.724 249.083 78.58V78.004C248.931 78.348 248.699 78.616 248.387 78.808C248.075 78.992 247.715 79.084 247.307 79.084C246.931 79.084 246.583 79.008 246.263 78.856C245.951 78.704 245.703 78.492 245.519 78.22C245.335 77.948 245.243 77.648 245.243 77.32C245.243 76.88 245.355 76.54 245.579 76.3C245.803 76.052 246.171 75.876 246.683 75.772C247.195 75.66 247.907 75.604 248.819 75.604H249.083V75.208C249.083 74.728 248.983 74.376 248.783 74.152C248.591 73.928 248.275 73.816 247.835 73.816C247.291 73.816 246.739 73.964 246.179 74.26C245.963 74.396 245.811 74.464 245.723 74.464C245.627 74.464 245.547 74.428 245.483 74.356C245.419 74.284 245.387 74.192 245.387 74.08C245.387 73.968 245.419 73.872 245.483 73.792C245.555 73.704 245.667 73.616 245.819 73.528C246.099 73.368 246.415 73.244 246.767 73.156C247.127 73.06 247.483 73.012 247.835 73.012ZM247.439 78.316C247.919 78.316 248.311 78.156 248.615 77.836C248.927 77.508 249.083 77.088 249.083 76.576V76.228H248.867C248.163 76.228 247.627 76.26 247.259 76.324C246.891 76.38 246.627 76.48 246.467 76.624C246.315 76.76 246.239 76.964 246.239 77.236C246.239 77.548 246.351 77.808 246.575 78.016C246.807 78.216 247.095 78.316 247.439 78.316Z" fill="#7E7D88"/>
<rect x="205" y="73" width="4" height="4" rx="2" fill="#F178B6"/>
<path d="M113.48 47.048C114.648 47.048 115.232 47.52 115.232 48.464C115.232 49.424 114.648 49.904 113.48 49.904H112.592V51.272C112.592 51.88 112.424 52.344 112.088 52.664C111.752 52.984 111.312 53.144 110.768 53.144C110.224 53.144 109.784 52.984 109.448 52.664C109.112 52.344 108.944 51.88 108.944 51.272V49.904H103.112C102.616 49.904 102.224 49.76 101.936 49.472C101.648 49.168 101.504 48.792 101.504 48.344C101.504 47.896 101.656 47.448 101.96 47L109.112 36.776C109.304 36.504 109.544 36.304 109.832 36.176C110.12 36.032 110.424 35.96 110.744 35.96C111.24 35.96 111.672 36.128 112.04 36.464C112.408 36.784 112.592 37.232 112.592 37.808V47.048H113.48ZM105.272 47.048H108.944V41.768L105.272 47.048ZM118.511 53.144C117.919 53.144 117.431 52.952 117.047 52.568C116.663 52.168 116.471 51.672 116.471 51.08C116.471 50.488 116.663 50 117.047 49.616C117.431 49.216 117.919 49.016 118.511 49.016C119.103 49.016 119.591 49.216 119.975 49.616C120.359 50 120.551 50.488 120.551 51.08C120.551 51.672 120.359 52.168 119.975 52.568C119.591 52.952 119.103 53.144 118.511 53.144ZM133.433 50C134.617 50 135.209 50.496 135.209 51.488C135.209 52.496 134.617 53 133.433 53H124.505C124.009 53 123.609 52.856 123.305 52.568C123.017 52.264 122.873 51.888 122.873 51.44C122.873 50.864 123.105 50.336 123.569 49.856L128.849 44.264C130.033 43.016 130.625 41.864 130.625 40.808C130.625 40.152 130.441 39.656 130.073 39.32C129.705 38.968 129.169 38.792 128.465 38.792C127.857 38.792 127.297 38.896 126.785 39.104C126.273 39.312 125.681 39.616 125.009 40.016C124.737 40.176 124.529 40.288 124.385 40.352C124.241 40.416 124.073 40.448 123.881 40.448C123.545 40.448 123.257 40.296 123.017 39.992C122.777 39.672 122.657 39.304 122.657 38.888C122.657 38.584 122.705 38.336 122.801 38.144C122.913 37.936 123.089 37.752 123.329 37.592C124.049 37.064 124.873 36.648 125.801 36.344C126.745 36.024 127.689 35.864 128.633 35.864C129.769 35.864 130.761 36.056 131.609 36.44C132.473 36.824 133.137 37.376 133.601 38.096C134.065 38.8 134.297 39.616 134.297 40.544C134.297 41.52 134.089 42.424 133.673 43.256C133.273 44.088 132.593 45.016 131.633 46.04L127.865 50H133.433ZM147.847 50C149.031 50 149.623 50.496 149.623 51.488C149.623 52.496 149.031 53 147.847 53H138.919C138.423 53 138.023 52.856 137.719 52.568C137.431 52.264 137.287 51.888 137.287 51.44C137.287 50.864 137.519 50.336 137.983 49.856L143.263 44.264C144.447 43.016 145.039 41.864 145.039 40.808C145.039 40.152 144.855 39.656 144.487 39.32C144.119 38.968 143.583 38.792 142.879 38.792C142.271 38.792 141.711 38.896 141.199 39.104C140.687 39.312 140.095 39.616 139.423 40.016C139.151 40.176 138.943 40.288 138.799 40.352C138.655 40.416 138.487 40.448 138.295 40.448C137.959 40.448 137.671 40.296 137.431 39.992C137.191 39.672 137.071 39.304 137.071 38.888C137.071 38.584 137.119 38.336 137.215 38.144C137.327 37.936 137.503 37.752 137.743 37.592C138.463 37.064 139.287 36.648 140.215 36.344C141.159 36.024 142.103 35.864 143.047 35.864C144.183 35.864 145.175 36.056 146.023 36.44C146.887 36.824 147.551 37.376 148.015 38.096C148.479 38.8 148.711 39.616 148.711 40.544C148.711 41.52 148.503 42.424 148.087 43.256C147.687 44.088 147.007 45.016 146.047 46.04L142.279 50H147.847ZM162.597 50C163.765 50 164.349 50.496 164.349 51.488C164.349 52.496 163.765 53 162.597 53H154.389C153.205 53 152.613 52.496 152.613 51.488C152.613 50.496 153.205 50 154.389 50H156.621V40.184L154.509 41.456C154.269 41.6 154.029 41.672 153.789 41.672C153.389 41.672 153.045 41.504 152.757 41.168C152.485 40.832 152.349 40.456 152.349 40.04C152.349 39.48 152.597 39.056 153.093 38.768L156.885 36.488C157.445 36.152 158.005 35.984 158.565 35.984C159.093 35.984 159.525 36.152 159.861 36.488C160.197 36.808 160.365 37.248 160.365 37.808V50H162.597Z" fill="#535261"/>
<path d="M124.446 75.112C123.503 75.112 122.682 74.9113 121.982 74.51C121.282 74.0993 120.745 73.516 120.372 72.76C119.999 71.9947 119.812 71.094 119.812 70.058C119.812 69.0313 119.999 68.14 120.372 67.384C120.745 66.6187 121.282 66.0353 121.982 65.634C122.682 65.2233 123.503 65.018 124.446 65.018C125.062 65.018 125.645 65.116 126.196 65.312C126.747 65.4987 127.227 65.774 127.638 66.138C127.815 66.278 127.904 66.4647 127.904 66.698C127.904 66.866 127.857 67.0107 127.764 67.132C127.671 67.244 127.559 67.3 127.428 67.3C127.269 67.3 127.115 67.2393 126.966 67.118C126.518 66.782 126.107 66.5487 125.734 66.418C125.37 66.278 124.955 66.208 124.488 66.208C123.461 66.208 122.673 66.5393 122.122 67.202C121.571 67.8647 121.296 68.8167 121.296 70.058C121.296 71.3087 121.571 72.2653 122.122 72.928C122.673 73.5907 123.461 73.922 124.488 73.922C124.936 73.922 125.342 73.852 125.706 73.712C126.079 73.572 126.499 73.3387 126.966 73.012C127.153 72.8907 127.307 72.83 127.428 72.83C127.559 72.83 127.671 72.8907 127.764 73.012C127.857 73.124 127.904 73.264 127.904 73.432C127.904 73.6653 127.815 73.852 127.638 73.992C127.227 74.356 126.747 74.636 126.196 74.832C125.645 75.0187 125.062 75.112 124.446 75.112ZM132.188 68C133.093 68 133.765 68.2287 134.204 68.686C134.652 69.1433 134.876 69.8387 134.876 70.772V74.398C134.876 74.6127 134.815 74.7807 134.694 74.902C134.573 75.014 134.405 75.07 134.19 75.07C133.985 75.07 133.821 75.0093 133.7 74.888C133.579 74.7667 133.518 74.6033 133.518 74.398V73.88C133.341 74.272 133.075 74.5753 132.72 74.79C132.375 74.9953 131.969 75.098 131.502 75.098C131.054 75.098 130.643 75.0093 130.27 74.832C129.906 74.6453 129.617 74.3933 129.402 74.076C129.187 73.7587 129.08 73.3993 129.08 72.998C129.071 72.494 129.197 72.102 129.458 71.822C129.719 71.5327 130.144 71.3273 130.732 71.206C131.32 71.0753 132.137 71.01 133.182 71.01H133.504V70.604C133.504 70.0813 133.397 69.7033 133.182 69.47C132.967 69.2367 132.622 69.12 132.146 69.12C131.819 69.12 131.511 69.162 131.222 69.246C130.933 69.33 130.615 69.4513 130.27 69.61C130.018 69.75 129.841 69.82 129.738 69.82C129.598 69.82 129.481 69.7687 129.388 69.666C129.304 69.5633 129.262 69.4327 129.262 69.274C129.262 69.134 129.299 69.0127 129.374 68.91C129.458 68.798 129.589 68.6907 129.766 68.588C130.093 68.4107 130.475 68.2707 130.914 68.168C131.353 68.056 131.777 68 132.188 68ZM131.754 74.048C132.267 74.048 132.687 73.8753 133.014 73.53C133.341 73.1753 133.504 72.7227 133.504 72.172V71.808H133.252C132.524 71.808 131.964 71.8407 131.572 71.906C131.18 71.9713 130.9 72.0833 130.732 72.242C130.564 72.3913 130.48 72.6107 130.48 72.9C130.48 73.236 130.601 73.5113 130.844 73.726C131.087 73.9407 131.39 74.048 131.754 74.048ZM134.036 65.816C133.971 65.8533 133.901 65.872 133.826 65.872C133.733 65.872 133.649 65.8393 133.574 65.774C133.509 65.7087 133.476 65.6293 133.476 65.536C133.476 65.4427 133.509 65.3587 133.574 65.284L134.54 64.038C134.699 63.842 134.871 63.744 135.058 63.744C135.217 63.744 135.352 63.8047 135.464 63.926C135.585 64.038 135.646 64.1733 135.646 64.332C135.646 64.5653 135.525 64.7567 135.282 64.906L134.036 65.816ZM131.026 67.202C130.942 67.286 130.835 67.328 130.704 67.328C130.573 67.328 130.461 67.2813 130.368 67.188C130.275 67.0947 130.228 66.9873 130.228 66.866C130.228 66.7073 130.303 66.572 130.452 66.46L131.614 65.396C131.801 65.2467 131.992 65.172 132.188 65.172C132.365 65.172 132.557 65.2467 132.762 65.396L133.924 66.46C134.083 66.5813 134.162 66.7213 134.162 66.88C134.162 67.0013 134.111 67.1087 134.008 67.202C133.915 67.2953 133.803 67.342 133.672 67.342C133.569 67.342 133.467 67.3 133.364 67.216L132.188 66.054L131.026 67.202ZM140.478 68C141.066 68 141.589 68.1493 142.046 68.448C142.513 68.7467 142.872 69.1667 143.124 69.708C143.385 70.2493 143.516 70.8747 143.516 71.584C143.516 72.284 143.39 72.9 143.138 73.432C142.886 73.964 142.527 74.3747 142.06 74.664C141.603 74.9533 141.075 75.098 140.478 75.098C139.965 75.098 139.512 74.9907 139.12 74.776C138.728 74.552 138.429 74.2347 138.224 73.824V76.946C138.224 77.142 138.159 77.296 138.028 77.408C137.907 77.5293 137.743 77.59 137.538 77.59C137.323 77.59 137.146 77.5293 137.006 77.408C136.875 77.2867 136.81 77.1233 136.81 76.918V68.714C136.81 68.5087 136.875 68.3453 137.006 68.224C137.137 68.0933 137.309 68.028 137.524 68.028C137.729 68.028 137.897 68.0933 138.028 68.224C138.159 68.3453 138.224 68.5087 138.224 68.714V69.288C138.429 68.8773 138.728 68.56 139.12 68.336C139.512 68.112 139.965 68 140.478 68ZM140.142 73.978C140.758 73.978 141.234 73.7727 141.57 73.362C141.906 72.942 142.074 72.3493 142.074 71.584C142.074 70.8093 141.901 70.2073 141.556 69.778C141.22 69.3487 140.749 69.134 140.142 69.134C139.526 69.134 139.05 69.344 138.714 69.764C138.387 70.184 138.224 70.7813 138.224 71.556C138.224 72.3307 138.387 72.928 138.714 73.348C139.05 73.768 139.526 73.978 140.142 73.978ZM151.153 75.098C150.201 75.098 149.422 74.902 148.815 74.51C148.647 74.4073 148.526 74.3 148.451 74.188C148.386 74.076 148.353 73.95 148.353 73.81C148.353 73.6607 148.395 73.5347 148.479 73.432C148.563 73.3293 148.67 73.278 148.801 73.278C148.922 73.278 149.114 73.3527 149.375 73.502C149.655 73.6513 149.926 73.7727 150.187 73.866C150.458 73.9593 150.794 74.006 151.195 74.006C151.643 74.006 151.993 73.9267 152.245 73.768C152.497 73.6093 152.623 73.3853 152.623 73.096C152.623 72.9093 152.572 72.76 152.469 72.648C152.376 72.536 152.208 72.438 151.965 72.354C151.722 72.2607 151.363 72.1627 150.887 72.06C150.066 71.8827 149.473 71.6447 149.109 71.346C148.754 71.038 148.577 70.6227 148.577 70.1C148.577 69.6987 148.694 69.3393 148.927 69.022C149.16 68.6953 149.482 68.4433 149.893 68.266C150.304 68.0887 150.77 68 151.293 68C151.666 68 152.03 68.0513 152.385 68.154C152.74 68.2473 153.052 68.3873 153.323 68.574C153.631 68.7793 153.785 69.0173 153.785 69.288C153.785 69.4373 153.738 69.5633 153.645 69.666C153.561 69.7687 153.458 69.82 153.337 69.82C153.253 69.82 153.169 69.8013 153.085 69.764C153.001 69.7267 152.889 69.666 152.749 69.582C152.497 69.4327 152.259 69.316 152.035 69.232C151.82 69.148 151.55 69.106 151.223 69.106C150.831 69.106 150.514 69.19 150.271 69.358C150.038 69.526 149.921 69.7547 149.921 70.044C149.921 70.3053 150.028 70.5107 150.243 70.66C150.467 70.8 150.882 70.9353 151.489 71.066C152.114 71.1967 152.604 71.346 152.959 71.514C153.314 71.682 153.566 71.892 153.715 72.144C153.874 72.3867 153.953 72.6993 153.953 73.082C153.953 73.6887 153.696 74.1787 153.183 74.552C152.679 74.916 152.002 75.098 151.153 75.098ZM158.495 75.098C157.823 75.098 157.23 74.9533 156.717 74.664C156.213 74.3747 155.821 73.964 155.541 73.432C155.27 72.8907 155.135 72.2653 155.135 71.556C155.135 70.8373 155.27 70.212 155.541 69.68C155.821 69.1387 156.213 68.7233 156.717 68.434C157.23 68.1447 157.823 68 158.495 68C159.167 68 159.755 68.1447 160.259 68.434C160.772 68.7233 161.164 69.1387 161.435 69.68C161.715 70.212 161.855 70.8373 161.855 71.556C161.855 72.2653 161.715 72.8907 161.435 73.432C161.164 73.964 160.772 74.3747 160.259 74.664C159.755 74.9533 159.167 75.098 158.495 75.098ZM158.495 73.978C159.12 73.978 159.596 73.7727 159.923 73.362C160.259 72.9513 160.427 72.3493 160.427 71.556C160.427 70.772 160.259 70.1747 159.923 69.764C159.587 69.344 159.111 69.134 158.495 69.134C157.879 69.134 157.403 69.344 157.067 69.764C156.731 70.1747 156.563 70.772 156.563 71.556C156.563 72.3493 156.726 72.9513 157.053 73.362C157.389 73.7727 157.87 73.978 158.495 73.978ZM160.343 65.816C160.278 65.8533 160.208 65.872 160.133 65.872C160.04 65.872 159.956 65.8393 159.881 65.774C159.816 65.7087 159.783 65.6293 159.783 65.536C159.783 65.4427 159.816 65.3587 159.881 65.284L160.847 64.038C161.006 63.842 161.178 63.744 161.365 63.744C161.524 63.744 161.659 63.8047 161.771 63.926C161.892 64.038 161.953 64.1733 161.953 64.332C161.953 64.5653 161.832 64.7567 161.589 64.906L160.343 65.816ZM157.333 67.202C157.249 67.286 157.142 67.328 157.011 67.328C156.88 67.328 156.768 67.2813 156.675 67.188C156.582 67.0947 156.535 66.9873 156.535 66.866C156.535 66.7073 156.61 66.572 156.759 66.46L157.921 65.396C158.108 65.2467 158.299 65.172 158.495 65.172C158.672 65.172 158.864 65.2467 159.069 65.396L160.231 66.46C160.39 66.5813 160.469 66.7213 160.469 66.88C160.469 67.0013 160.418 67.1087 160.315 67.202C160.222 67.2953 160.11 67.342 159.979 67.342C159.876 67.342 159.774 67.3 159.671 67.216L158.495 66.054L157.333 67.202Z" fill="#35C75A"/>
<g clip-path="url(#clip0_233_8535)">
<g clip-path="url(#clip1_233_8535)">
<path d="M102.167 73.917L108 76.8337L113.833 73.917" stroke="#35C75A" stroke-width="1.16667" stroke-linecap="round" stroke-linejoin="round"/>
<path d="M102.167 71L108 73.9167L113.833 71" stroke="#35C75A" stroke-width="1.16667" stroke-linecap="round" stroke-linejoin="round"/>
<path d="M108 65.167L102.167 68.0837L108 71.0003L113.833 68.0837L108 65.167Z" stroke="#35C75A" stroke-width="1.16667" stroke-linecap="round" stroke-linejoin="round"/>
</g>
</g>
</g>
<defs>
<filter id="filter0_d_233_8535" x="0" y="0" width="383" height="113" filterUnits="userSpaceOnUse" color-interpolation-filters="sRGB">
<feFlood flood-opacity="0" result="BackgroundImageFix"/>
<feColorMatrix in="SourceAlpha" type="matrix" values="0 0 0 0 0 0 0 0 0 0 0 0 0 0 0 0 0 0 127 0" result="hardAlpha"/>
<feOffset dx="2" dy="2"/>
<feGaussianBlur stdDeviation="7.5"/>
<feComposite in2="hardAlpha" operator="out"/>
<feColorMatrix type="matrix" values="0 0 0 0 0.275 0 0 0 0 0.252083 0 0 0 0 0.263826 0 0 0 0.1 0"/>
<feBlend mode="normal" in2="BackgroundImageFix" result="effect1_dropShadow_233_8535"/>
<feBlend mode="normal" in="SourceGraphic" in2="effect1_dropShadow_233_8535" result="shape"/>
</filter>
<clipPath id="clip0_233_8535">
<rect width="14" height="14" fill="white" transform="translate(101 64)"/>
</clipPath>
<clipPath id="clip1_233_8535">
<rect width="14" height="14" fill="white" transform="translate(101 64)"/>
</clipPath>
</defs>
</svg>
