<svg width="383" height="113" viewBox="0 0 383 113" fill="none" xmlns="http://www.w3.org/2000/svg">
<g filter="url(#filter0_d_233_8503)">
<rect x="13" y="13" width="353" height="83" rx="12" fill="white"/>
<path d="M89 54C89 70.5685 75.5685 84 59 84C42.4315 84 29 70.5685 29 54C29 37.4315 42.4315 24 59 24C75.5685 24 89 37.4315 89 54ZM31.5042 54C31.5042 69.1855 43.8145 81.4958 59 81.4958C74.1855 81.4958 86.4958 69.1855 86.4958 54C86.4958 38.8145 74.1855 26.5042 59 26.5042C43.8145 26.5042 31.5042 38.8145 31.5042 54Z" fill="#EAEAEC"/>
<path d="M84 54C84 67.8071 72.8071 79 59 79C45.1929 79 34 67.8071 34 54C34 40.1929 45.1929 29 59 29C72.8071 29 84 40.1929 84 54ZM36.5105 54C36.5105 66.4206 46.5794 76.4895 59 76.4895C71.4206 76.4895 81.4895 66.4206 81.4895 54C81.4895 41.5794 71.4206 31.5105 59 31.5105C46.5794 31.5105 36.5105 41.5794 36.5105 54Z" fill="#EAEAEC"/>
<path d="M59 30.25C59 29.5596 59.5601 28.9967 60.2496 29.0312C66.1562 29.3266 71.7829 31.7089 76.1137 35.7758C80.4445 39.8427 83.1753 45.3087 83.841 51.1851C83.9188 51.8711 83.3921 52.4654 82.7031 52.5087C82.0141 52.5521 81.424 52.0279 81.3425 51.3424C80.7192 46.1008 78.2695 41.2297 74.4023 37.5982C70.5351 33.9667 65.5199 31.8277 60.2495 31.5347C59.5602 31.4964 59 30.9404 59 30.25Z" fill="#7E7D88"/>
<path d="M59 25.2521C59 24.5606 59.5609 23.9973 60.2518 24.0261C65.8261 24.2589 71.2344 26.0423 75.8625 29.1876C80.8363 32.5678 84.6795 37.3648 86.8933 42.9563C89.1071 48.5477 89.5894 54.6754 88.2775 60.5443C86.9656 66.4132 83.9202 71.7524 79.5364 75.8691C75.1526 79.9857 69.6327 82.6899 63.693 83.6306C57.7533 84.5714 51.668 83.7053 46.2266 81.1448C40.7852 78.5843 36.239 74.4475 33.1777 69.2712C30.3293 64.4548 28.8889 58.9452 29.0067 53.3673C29.0213 52.6759 29.6187 52.1515 30.3088 52.1949C30.999 52.2383 31.5202 52.8332 31.5083 53.5246C31.4204 58.6012 32.7403 63.6122 35.3332 67.9965C38.1389 72.7407 42.3057 76.5322 47.2928 78.879C52.28 81.2257 57.8574 82.0195 63.3013 81.1573C68.7452 80.2951 73.8043 77.8166 77.8222 74.0436C81.8401 70.2705 84.6313 65.377 85.8336 59.998C87.036 54.619 86.594 49.0028 84.565 43.8781C82.536 38.7534 79.0136 34.3568 74.4549 31.2587C70.2421 28.3957 65.3239 26.7638 60.2518 26.5327C59.561 26.5012 59 25.9436 59 25.2521Z" fill="#4277FF"/>
<path d="M51.042 49.13C51.2847 49.13 51.4713 49.2 51.602 49.34C51.7327 49.4707 51.798 49.6433 51.798 49.858C51.798 50.0727 51.7327 50.2967 51.602 50.53L47.136 58.636C46.9493 58.9533 46.6927 59.112 46.366 59.112C46.142 59.112 45.9413 59.0373 45.764 58.888C45.596 58.7293 45.512 58.538 45.512 58.314C45.512 58.1553 45.5587 57.9967 45.652 57.838L49.67 50.586H45.442C44.882 50.586 44.602 50.348 44.602 49.872C44.602 49.3773 44.882 49.13 45.442 49.13H51.042ZM57.1965 52.672C57.7845 52.672 58.3072 52.8073 58.7645 53.078C59.2219 53.3393 59.5765 53.7127 59.8285 54.198C60.0899 54.674 60.2205 55.22 60.2205 55.836C60.2205 56.4707 60.0759 57.04 59.7865 57.544C59.5065 58.0387 59.1145 58.426 58.6105 58.706C58.1159 58.986 57.5512 59.126 56.9165 59.126C55.6659 59.126 54.6999 58.706 54.0185 57.866C53.3465 57.0167 53.0105 55.808 53.0105 54.24C53.0105 53.1667 53.1692 52.238 53.4865 51.454C53.8039 50.6607 54.2565 50.054 54.8445 49.634C55.4419 49.214 56.1419 49.004 56.9445 49.004C57.4765 49.004 58.0085 49.102 58.5405 49.298C59.0819 49.4847 59.5392 49.7413 59.9125 50.068C60.0339 50.1707 60.1179 50.2733 60.1645 50.376C60.2205 50.4693 60.2485 50.586 60.2485 50.726C60.2485 50.9313 60.1879 51.1087 60.0665 51.258C59.9545 51.398 59.8192 51.468 59.6605 51.468C59.5672 51.468 59.4785 51.454 59.3945 51.426C59.3105 51.3887 59.2079 51.3327 59.0865 51.258C58.3119 50.7167 57.6212 50.446 57.0145 50.446C56.3332 50.446 55.7965 50.7633 55.4045 51.398C55.0125 52.0233 54.8072 52.9053 54.7885 54.044C55.0032 53.624 55.3252 53.2927 55.7545 53.05C56.1839 52.798 56.6645 52.672 57.1965 52.672ZM56.8185 57.698C57.3319 57.698 57.7425 57.5347 58.0505 57.208C58.3585 56.872 58.5125 56.4333 58.5125 55.892C58.5125 55.3507 58.3585 54.9167 58.0505 54.59C57.7425 54.2633 57.3319 54.1 56.8185 54.1C56.2959 54.1 55.8712 54.268 55.5445 54.604C55.2272 54.9307 55.0685 55.36 55.0685 55.892C55.0685 56.4333 55.2272 56.872 55.5445 57.208C55.8712 57.5347 56.2959 57.698 56.8185 57.698ZM65.4371 58.804C65.3531 58.9533 65.2504 59.0653 65.1291 59.14C65.0077 59.2147 64.8864 59.252 64.7651 59.252C64.5971 59.252 64.4477 59.1913 64.3171 59.07C64.1957 58.9487 64.1351 58.7947 64.1351 58.608C64.1351 58.4493 64.1817 58.2907 64.2751 58.132L69.3711 49.326C69.4551 49.1767 69.5577 49.0647 69.6791 48.99C69.8004 48.9153 69.9217 48.878 70.0431 48.878C70.2111 48.878 70.3557 48.9387 70.4771 49.06C70.6077 49.1813 70.6731 49.3353 70.6731 49.522C70.6731 49.6807 70.6264 49.8393 70.5331 49.998L65.4371 58.804ZM63.8831 55.024C63.0991 55.024 62.4877 54.7673 62.0491 54.254C61.6104 53.7407 61.3911 52.9893 61.3911 52C61.3911 51.02 61.6104 50.2733 62.0491 49.76C62.4877 49.2467 63.0991 48.99 63.8831 48.99C64.6671 48.99 65.2784 49.2467 65.7171 49.76C66.1651 50.2733 66.3891 51.02 66.3891 52C66.3891 52.9893 66.1651 53.7407 65.7171 54.254C65.2784 54.7673 64.6671 55.024 63.8831 55.024ZM63.8831 53.89C64.2377 53.89 64.4944 53.7453 64.6531 53.456C64.8211 53.1573 64.9051 52.672 64.9051 52C64.9051 51.3467 64.8211 50.8707 64.6531 50.572C64.4851 50.2733 64.2284 50.124 63.8831 50.124C63.5377 50.124 63.2811 50.2733 63.1131 50.572C62.9544 50.8613 62.8751 51.3373 62.8751 52C62.8751 52.672 62.9544 53.1573 63.1131 53.456C63.2811 53.7453 63.5377 53.89 63.8831 53.89ZM70.9251 59.098C70.1411 59.098 69.5297 58.8413 69.0911 58.328C68.6524 57.8147 68.4331 57.0587 68.4331 56.06C68.4331 55.08 68.6524 54.338 69.0911 53.834C69.5391 53.3207 70.1504 53.064 70.9251 53.064C71.7091 53.064 72.3204 53.3207 72.7591 53.834C73.1977 54.3473 73.4171 55.094 73.4171 56.074C73.4171 57.0633 73.1977 57.8147 72.7591 58.328C72.3204 58.8413 71.7091 59.098 70.9251 59.098ZM70.9251 57.964C71.2704 57.964 71.5271 57.8193 71.6951 57.53C71.8631 57.2313 71.9471 56.746 71.9471 56.074C71.9471 55.4207 71.8631 54.9447 71.6951 54.646C71.5271 54.3473 71.2704 54.198 70.9251 54.198C70.5797 54.198 70.3231 54.3473 70.1551 54.646C69.9871 54.9447 69.9031 55.4207 69.9031 56.074C69.9031 56.746 69.9871 57.2313 70.1551 57.53C70.3231 57.8193 70.5797 57.964 70.9251 57.964Z" fill="#535261"/>
<path d="M318.972 44.544C319.532 44.544 319.812 44.782 319.812 45.258C319.812 45.7527 319.532 46 318.972 46H313.652C313.409 46 313.218 45.93 313.078 45.79C312.938 45.6407 312.868 45.4587 312.868 45.244C312.868 44.964 312.975 44.712 313.19 44.488L316.382 41.058C316.774 40.6287 317.059 40.2367 317.236 39.882C317.423 39.518 317.516 39.1587 317.516 38.804C317.516 38.3653 317.39 38.0293 317.138 37.796C316.886 37.5627 316.527 37.446 316.06 37.446C315.677 37.446 315.304 37.5207 314.94 37.67C314.585 37.81 314.226 38.006 313.862 38.258C313.769 38.3233 313.675 38.3793 313.582 38.426C313.489 38.4633 313.395 38.482 313.302 38.482C313.143 38.482 313.003 38.4073 312.882 38.258C312.77 38.1087 312.714 37.9313 312.714 37.726C312.714 37.586 312.737 37.4647 312.784 37.362C312.84 37.2593 312.924 37.1613 313.036 37.068C313.447 36.7413 313.927 36.4847 314.478 36.298C315.029 36.102 315.579 36.004 316.13 36.004C317.091 36.004 317.857 36.2467 318.426 36.732C319.005 37.2173 319.294 37.8707 319.294 38.692C319.294 39.2613 319.173 39.798 318.93 40.302C318.687 40.7967 318.277 41.352 317.698 41.968L315.276 44.544H318.972ZM327.422 44.544C327.982 44.544 328.262 44.782 328.262 45.258C328.262 45.7527 327.982 46 327.422 46H322.69C322.121 46 321.836 45.7527 321.836 45.258C321.836 44.782 322.121 44.544 322.69 44.544H324.146V38.16L322.802 38.986C322.672 39.0607 322.555 39.098 322.452 39.098C322.256 39.098 322.088 39.014 321.948 38.846C321.818 38.678 321.752 38.4913 321.752 38.286C321.752 38.0153 321.874 37.8053 322.116 37.656L324.286 36.312C324.566 36.144 324.832 36.06 325.084 36.06C325.346 36.06 325.556 36.1393 325.714 36.298C325.873 36.4567 325.952 36.676 325.952 36.956V44.544H327.422ZM333.003 46.126C331.836 46.126 330.945 45.6967 330.329 44.838C329.713 43.97 329.405 42.71 329.405 41.058C329.405 39.4153 329.713 38.1647 330.329 37.306C330.945 36.438 331.836 36.004 333.003 36.004C334.169 36.004 335.061 36.438 335.677 37.306C336.293 38.1647 336.601 39.4153 336.601 41.058C336.601 42.7007 336.293 43.956 335.677 44.824C335.061 45.692 334.169 46.126 333.003 46.126ZM333.003 44.712C333.637 44.712 334.099 44.4227 334.389 43.844C334.678 43.256 334.823 42.3273 334.823 41.058C334.823 39.7793 334.678 38.8553 334.389 38.286C334.099 37.7073 333.637 37.418 333.003 37.418C332.368 37.418 331.906 37.7073 331.617 38.286C331.327 38.8647 331.183 39.7887 331.183 41.058C331.183 42.3273 331.327 43.256 331.617 43.844C331.906 44.4227 332.368 44.712 333.003 44.712Z" fill="#4277FF"/>
<path d="M217.044 36.54C218.396 36.54 219.44 36.908 220.176 37.644C220.92 38.372 221.292 39.412 221.292 40.764C221.292 42.116 220.92 43.16 220.176 43.896C219.432 44.632 218.388 45 217.044 45H214.704C214.552 45 214.428 44.956 214.332 44.868C214.244 44.772 214.2 44.656 214.2 44.52V41.112H213.444C213.308 41.112 213.2 41.08 213.12 41.016C213.04 40.944 213 40.844 213 40.716C213 40.588 213.04 40.488 213.12 40.416C213.2 40.344 213.308 40.308 213.444 40.308H214.2V37.02C214.2 36.876 214.244 36.76 214.332 36.672C214.428 36.584 214.552 36.54 214.704 36.54H217.044ZM216.996 44.16C219.188 44.16 220.284 43.028 220.284 40.764C220.284 38.508 219.188 37.38 216.996 37.38H215.184V40.308H217.152C217.288 40.308 217.392 40.344 217.464 40.416C217.544 40.488 217.584 40.588 217.584 40.716C217.584 40.844 217.544 40.944 217.464 41.016C217.392 41.08 217.288 41.112 217.152 41.112H215.184V44.16H216.996ZM225.311 39.012C226.775 39.012 227.507 39.78 227.507 41.316V44.58C227.507 44.724 227.463 44.84 227.375 44.928C227.295 45.016 227.183 45.06 227.039 45.06C226.895 45.06 226.779 45.016 226.691 44.928C226.603 44.84 226.559 44.724 226.559 44.58V44.004C226.407 44.348 226.175 44.616 225.863 44.808C225.551 44.992 225.191 45.084 224.783 45.084C224.407 45.084 224.059 45.008 223.739 44.856C223.427 44.704 223.179 44.492 222.995 44.22C222.811 43.948 222.719 43.648 222.719 43.32C222.719 42.88 222.831 42.54 223.055 42.3C223.279 42.052 223.647 41.876 224.159 41.772C224.671 41.66 225.383 41.604 226.295 41.604H226.559V41.208C226.559 40.728 226.459 40.376 226.259 40.152C226.067 39.928 225.751 39.816 225.311 39.816C224.767 39.816 224.215 39.964 223.655 40.26C223.439 40.396 223.287 40.464 223.199 40.464C223.103 40.464 223.023 40.428 222.959 40.356C222.895 40.284 222.863 40.192 222.863 40.08C222.863 39.968 222.895 39.872 222.959 39.792C223.031 39.704 223.143 39.616 223.295 39.528C223.575 39.368 223.891 39.244 224.243 39.156C224.603 39.06 224.959 39.012 225.311 39.012ZM224.915 44.316C225.395 44.316 225.787 44.156 226.091 43.836C226.403 43.508 226.559 43.088 226.559 42.576V42.228H226.343C225.639 42.228 225.103 42.26 224.735 42.324C224.367 42.38 224.103 42.48 223.943 42.624C223.791 42.76 223.715 42.964 223.715 43.236C223.715 43.548 223.827 43.808 224.051 44.016C224.283 44.216 224.571 44.316 224.915 44.316ZM232.227 39.012C233.627 39.012 234.327 39.784 234.327 41.328V44.58C234.327 44.732 234.283 44.852 234.195 44.94C234.115 45.02 233.999 45.06 233.847 45.06C233.695 45.06 233.575 45.02 233.487 44.94C233.399 44.852 233.355 44.732 233.355 44.58V41.388C233.355 40.844 233.247 40.448 233.031 40.2C232.823 39.952 232.487 39.828 232.023 39.828C231.487 39.828 231.059 39.992 230.739 40.32C230.419 40.648 230.259 41.092 230.259 41.652V44.58C230.259 44.732 230.215 44.852 230.127 44.94C230.047 45.02 229.931 45.06 229.779 45.06C229.627 45.06 229.507 45.02 229.419 44.94C229.331 44.852 229.287 44.732 229.287 44.58V39.516C229.287 39.372 229.331 39.256 229.419 39.168C229.507 39.08 229.627 39.036 229.779 39.036C229.923 39.036 230.035 39.08 230.115 39.168C230.203 39.256 230.247 39.368 230.247 39.504V40.116C230.439 39.756 230.707 39.484 231.051 39.3C231.395 39.108 231.787 39.012 232.227 39.012ZM240.847 39.036C240.999 39.036 241.119 39.08 241.207 39.168C241.295 39.256 241.339 39.372 241.339 39.516V44.604C241.339 45.476 241.115 46.132 240.667 46.572C240.219 47.02 239.555 47.244 238.675 47.244C237.819 47.244 237.107 47.076 236.539 46.74C236.251 46.58 236.107 46.396 236.107 46.188C236.107 46.076 236.135 45.984 236.191 45.912C236.255 45.84 236.335 45.804 236.431 45.804C236.511 45.804 236.655 45.86 236.863 45.972C237.143 46.116 237.419 46.232 237.691 46.32C237.963 46.408 238.287 46.452 238.663 46.452C239.231 46.452 239.659 46.3 239.947 45.996C240.235 45.7 240.379 45.264 240.379 44.688V43.656C240.211 44.032 239.951 44.32 239.599 44.52C239.255 44.72 238.847 44.82 238.375 44.82C237.863 44.82 237.407 44.7 237.007 44.46C236.615 44.22 236.307 43.88 236.083 43.44C235.867 43 235.759 42.492 235.759 41.916C235.759 41.34 235.867 40.832 236.083 40.392C236.307 39.952 236.615 39.612 237.007 39.372C237.407 39.132 237.863 39.012 238.375 39.012C238.839 39.012 239.243 39.112 239.587 39.312C239.931 39.512 240.191 39.796 240.367 40.164V39.516C240.367 39.372 240.407 39.256 240.487 39.168C240.575 39.08 240.695 39.036 240.847 39.036ZM238.567 44.016C239.127 44.016 239.567 43.832 239.887 43.464C240.207 43.088 240.367 42.572 240.367 41.916C240.367 41.268 240.207 40.76 239.887 40.392C239.575 40.016 239.135 39.828 238.567 39.828C237.999 39.828 237.551 40.016 237.223 40.392C236.903 40.76 236.743 41.268 236.743 41.916C236.743 42.572 236.903 43.088 237.223 43.464C237.551 43.832 237.999 44.016 238.567 44.016ZM249.184 39.012C249.872 39.012 250.392 39.208 250.744 39.6C251.096 39.984 251.272 40.56 251.272 41.328V44.58C251.272 44.732 251.228 44.852 251.14 44.94C251.052 45.02 250.936 45.06 250.792 45.06C250.64 45.06 250.52 45.02 250.432 44.94C250.344 44.852 250.3 44.732 250.3 44.58V41.352C250.3 40.832 250.192 40.448 249.976 40.2C249.768 39.952 249.432 39.828 248.968 39.828C248.432 39.828 248.004 39.992 247.684 40.32C247.364 40.648 247.204 41.092 247.204 41.652V44.58C247.204 44.732 247.16 44.852 247.072 44.94C246.992 45.02 246.876 45.06 246.724 45.06C246.572 45.06 246.452 45.02 246.364 44.94C246.276 44.852 246.232 44.732 246.232 44.58V36.948C246.232 36.812 246.276 36.7 246.364 36.612C246.46 36.524 246.58 36.48 246.724 36.48C246.876 36.48 246.992 36.524 247.072 36.612C247.16 36.692 247.204 36.804 247.204 36.948V40.092C247.396 39.74 247.664 39.472 248.008 39.288C248.352 39.104 248.744 39.012 249.184 39.012ZM255.476 45.084C254.924 45.084 254.436 44.96 254.012 44.712C253.596 44.464 253.272 44.112 253.04 43.656C252.816 43.192 252.704 42.656 252.704 42.048C252.704 41.44 252.816 40.908 253.04 40.452C253.272 39.988 253.596 39.632 254.012 39.384C254.436 39.136 254.924 39.012 255.476 39.012C256.028 39.012 256.516 39.136 256.94 39.384C257.364 39.632 257.688 39.988 257.912 40.452C258.144 40.908 258.26 41.44 258.26 42.048C258.26 42.656 258.144 43.192 257.912 43.656C257.688 44.112 257.364 44.464 256.94 44.712C256.516 44.96 256.028 45.084 255.476 45.084ZM255.476 44.28C256.052 44.28 256.492 44.092 256.796 43.716C257.108 43.332 257.264 42.776 257.264 42.048C257.264 41.336 257.108 40.788 256.796 40.404C256.484 40.012 256.044 39.816 255.476 39.816C254.908 39.816 254.468 40.012 254.156 40.404C253.844 40.788 253.688 41.336 253.688 42.048C253.688 42.768 253.84 43.32 254.144 43.704C254.456 44.088 254.9 44.28 255.476 44.28ZM262.097 39.012C263.561 39.012 264.293 39.78 264.293 41.316V44.58C264.293 44.724 264.249 44.84 264.161 44.928C264.081 45.016 263.969 45.06 263.825 45.06C263.681 45.06 263.565 45.016 263.477 44.928C263.389 44.84 263.345 44.724 263.345 44.58V44.004C263.193 44.348 262.961 44.616 262.649 44.808C262.337 44.992 261.977 45.084 261.569 45.084C261.193 45.084 260.845 45.008 260.525 44.856C260.213 44.704 259.965 44.492 259.781 44.22C259.597 43.948 259.505 43.648 259.505 43.32C259.505 42.88 259.617 42.54 259.841 42.3C260.065 42.052 260.433 41.876 260.945 41.772C261.457 41.66 262.169 41.604 263.081 41.604H263.345V41.208C263.345 40.728 263.245 40.376 263.045 40.152C262.853 39.928 262.537 39.816 262.097 39.816C261.553 39.816 261.001 39.964 260.441 40.26C260.225 40.396 260.073 40.464 259.985 40.464C259.889 40.464 259.809 40.428 259.745 40.356C259.681 40.284 259.649 40.192 259.649 40.08C259.649 39.968 259.681 39.872 259.745 39.792C259.817 39.704 259.929 39.616 260.081 39.528C260.361 39.368 260.677 39.244 261.029 39.156C261.389 39.06 261.745 39.012 262.097 39.012ZM261.701 44.316C262.181 44.316 262.573 44.156 262.877 43.836C263.189 43.508 263.345 43.088 263.345 42.576V42.228H263.129C262.425 42.228 261.889 42.26 261.521 42.324C261.153 42.38 260.889 42.48 260.729 42.624C260.577 42.76 260.501 42.964 260.501 43.236C260.501 43.548 260.613 43.808 260.837 44.016C261.069 44.216 261.357 44.316 261.701 44.316ZM262.061 47.244C261.877 47.244 261.729 47.188 261.617 47.076C261.505 46.972 261.449 46.832 261.449 46.656C261.449 46.48 261.505 46.336 261.617 46.224C261.729 46.12 261.877 46.068 262.061 46.068C262.237 46.068 262.381 46.12 262.493 46.224C262.613 46.336 262.673 46.48 262.673 46.656C262.673 46.832 262.617 46.972 262.505 47.076C262.393 47.188 262.245 47.244 262.061 47.244ZM268.772 44.292C269.052 44.316 269.192 44.444 269.192 44.676C269.192 44.812 269.14 44.916 269.036 44.988C268.94 45.052 268.792 45.076 268.592 45.06L268.268 45.036C267.628 44.988 267.156 44.796 266.852 44.46C266.548 44.124 266.396 43.616 266.396 42.936V39.924H265.592C265.456 39.924 265.348 39.892 265.268 39.828C265.196 39.756 265.16 39.664 265.16 39.552C265.16 39.432 265.196 39.336 265.268 39.264C265.348 39.192 265.456 39.156 265.592 39.156H266.396V37.8C266.396 37.648 266.44 37.532 266.528 37.452C266.616 37.364 266.736 37.32 266.888 37.32C267.032 37.32 267.148 37.364 267.236 37.452C267.324 37.532 267.368 37.648 267.368 37.8V39.156H268.7C268.828 39.156 268.928 39.192 269 39.264C269.08 39.336 269.12 39.432 269.12 39.552C269.12 39.664 269.08 39.756 269 39.828C268.928 39.892 268.828 39.924 268.7 39.924H267.368V42.984C267.368 43.424 267.456 43.744 267.632 43.944C267.816 44.136 268.088 44.244 268.448 44.268L268.772 44.292ZM279.208 37.608C279.336 37.608 279.436 37.644 279.508 37.716C279.588 37.78 279.628 37.868 279.628 37.98C279.628 38.092 279.588 38.18 279.508 38.244C279.436 38.308 279.336 38.34 279.208 38.34H278.428V44.58C278.428 44.724 278.384 44.84 278.296 44.928C278.208 45.016 278.088 45.06 277.936 45.06C277.784 45.06 277.664 45.016 277.576 44.928C277.496 44.84 277.456 44.724 277.456 44.58V43.932C277.28 44.3 277.02 44.584 276.676 44.784C276.34 44.984 275.944 45.084 275.488 45.084C274.976 45.084 274.524 44.956 274.132 44.7C273.74 44.444 273.436 44.088 273.22 43.632C273.004 43.168 272.896 42.632 272.896 42.024C272.896 41.424 273.004 40.896 273.22 40.44C273.436 39.984 273.74 39.632 274.132 39.384C274.524 39.136 274.976 39.012 275.488 39.012C275.944 39.012 276.34 39.112 276.676 39.312C277.02 39.512 277.28 39.796 277.456 40.164V38.34H275.464C275.336 38.34 275.236 38.308 275.164 38.244C275.092 38.18 275.056 38.092 275.056 37.98C275.056 37.868 275.092 37.78 275.164 37.716C275.236 37.644 275.336 37.608 275.464 37.608H277.456V36.948C277.456 36.804 277.496 36.692 277.576 36.612C277.664 36.524 277.784 36.48 277.936 36.48C278.088 36.48 278.208 36.524 278.296 36.612C278.384 36.7 278.428 36.812 278.428 36.948V37.608H279.208ZM275.68 44.28C276.248 44.28 276.684 44.088 276.988 43.704C277.3 43.312 277.456 42.76 277.456 42.048C277.456 41.336 277.3 40.788 276.988 40.404C276.684 40.02 276.248 39.828 275.68 39.828C275.112 39.828 274.668 40.02 274.348 40.404C274.036 40.788 273.88 41.328 273.88 42.024C273.88 42.736 274.036 43.292 274.348 43.692C274.668 44.084 275.112 44.28 275.68 44.28ZM282.652 45.084C282.1 45.084 281.612 44.96 281.188 44.712C280.772 44.464 280.448 44.112 280.216 43.656C279.992 43.192 279.88 42.656 279.88 42.048C279.88 41.44 279.992 40.908 280.216 40.452C280.448 39.988 280.772 39.632 281.188 39.384C281.612 39.136 282.1 39.012 282.652 39.012C283.204 39.012 283.692 39.136 284.116 39.384C284.54 39.632 284.864 39.988 285.088 40.452C285.32 40.908 285.436 41.44 285.436 42.048C285.436 42.656 285.32 43.192 285.088 43.656C284.864 44.112 284.54 44.464 284.116 44.712C283.692 44.96 283.204 45.084 282.652 45.084ZM282.652 44.28C283.228 44.28 283.668 44.092 283.972 43.716C284.284 43.332 284.44 42.776 284.44 42.048C284.44 41.336 284.284 40.788 283.972 40.404C283.66 40.012 283.22 39.816 282.652 39.816C282.084 39.816 281.644 40.012 281.332 40.404C281.02 40.788 280.864 41.336 280.864 42.048C280.864 42.768 281.016 43.32 281.32 43.704C281.632 44.088 282.076 44.28 282.652 44.28ZM282.652 47.244C282.468 47.244 282.32 47.188 282.208 47.076C282.096 46.972 282.04 46.832 282.04 46.656C282.04 46.48 282.096 46.336 282.208 46.224C282.32 46.12 282.468 46.068 282.652 46.068C282.828 46.068 282.972 46.12 283.084 46.224C283.204 46.336 283.264 46.48 283.264 46.656C283.264 46.832 283.208 46.972 283.096 47.076C282.984 47.188 282.836 47.244 282.652 47.244ZM281.692 38.244C281.62 38.372 281.512 38.436 281.368 38.436C281.272 38.436 281.188 38.404 281.116 38.34C281.044 38.268 281.008 38.184 281.008 38.088C281.008 38 281.036 37.916 281.092 37.836L282.196 36.204C282.324 36.012 282.476 35.916 282.652 35.916C282.828 35.916 282.98 36.012 283.108 36.204L284.224 37.836C284.28 37.916 284.308 37.996 284.308 38.076C284.308 38.172 284.268 38.256 284.188 38.328C284.116 38.4 284.032 38.436 283.936 38.436C283.792 38.436 283.684 38.372 283.612 38.244L282.652 36.684L281.692 38.244ZM289.824 39.012C291.224 39.012 291.924 39.784 291.924 41.328V44.58C291.924 44.732 291.88 44.852 291.792 44.94C291.712 45.02 291.596 45.06 291.444 45.06C291.292 45.06 291.172 45.02 291.084 44.94C290.996 44.852 290.952 44.732 290.952 44.58V41.388C290.952 40.844 290.844 40.448 290.628 40.2C290.42 39.952 290.084 39.828 289.62 39.828C289.084 39.828 288.656 39.992 288.336 40.32C288.016 40.648 287.856 41.092 287.856 41.652V44.58C287.856 44.732 287.812 44.852 287.724 44.94C287.644 45.02 287.528 45.06 287.376 45.06C287.224 45.06 287.104 45.02 287.016 44.94C286.928 44.852 286.884 44.732 286.884 44.58V39.516C286.884 39.372 286.928 39.256 287.016 39.168C287.104 39.08 287.224 39.036 287.376 39.036C287.52 39.036 287.632 39.08 287.712 39.168C287.8 39.256 287.844 39.368 287.844 39.504V40.116C288.036 39.756 288.304 39.484 288.648 39.3C288.992 39.108 289.384 39.012 289.824 39.012ZM298.445 39.036C298.597 39.036 298.717 39.08 298.805 39.168C298.893 39.256 298.937 39.372 298.937 39.516V44.604C298.937 45.476 298.713 46.132 298.265 46.572C297.817 47.02 297.153 47.244 296.273 47.244C295.417 47.244 294.705 47.076 294.137 46.74C293.849 46.58 293.705 46.396 293.705 46.188C293.705 46.076 293.733 45.984 293.789 45.912C293.853 45.84 293.933 45.804 294.029 45.804C294.109 45.804 294.253 45.86 294.461 45.972C294.741 46.116 295.017 46.232 295.289 46.32C295.561 46.408 295.885 46.452 296.261 46.452C296.829 46.452 297.257 46.3 297.545 45.996C297.833 45.7 297.977 45.264 297.977 44.688V43.656C297.809 44.032 297.549 44.32 297.197 44.52C296.853 44.72 296.445 44.82 295.973 44.82C295.461 44.82 295.005 44.7 294.605 44.46C294.213 44.22 293.905 43.88 293.681 43.44C293.465 43 293.357 42.492 293.357 41.916C293.357 41.34 293.465 40.832 293.681 40.392C293.905 39.952 294.213 39.612 294.605 39.372C295.005 39.132 295.461 39.012 295.973 39.012C296.437 39.012 296.841 39.112 297.185 39.312C297.529 39.512 297.789 39.796 297.965 40.164V39.516C297.965 39.372 298.005 39.256 298.085 39.168C298.173 39.08 298.293 39.036 298.445 39.036ZM296.165 44.016C296.725 44.016 297.165 43.832 297.485 43.464C297.805 43.088 297.965 42.572 297.965 41.916C297.965 41.268 297.805 40.76 297.485 40.392C297.173 40.016 296.733 39.828 296.165 39.828C295.597 39.828 295.149 40.016 294.821 40.392C294.501 40.76 294.341 41.268 294.341 41.916C294.341 42.572 294.501 43.088 294.821 43.464C295.149 43.832 295.597 44.016 296.165 44.016Z" fill="#7E7D88"/>
<rect x="205" y="39" width="4" height="4" rx="2" fill="#4277FF"/>
<path d="M316.802 65.672C317.39 65.672 317.913 65.8073 318.37 66.078C318.827 66.3393 319.182 66.7127 319.434 67.198C319.695 67.674 319.826 68.22 319.826 68.836C319.826 69.4707 319.681 70.04 319.392 70.544C319.112 71.0387 318.72 71.426 318.216 71.706C317.721 71.986 317.157 72.126 316.522 72.126C315.271 72.126 314.305 71.706 313.624 70.866C312.952 70.0167 312.616 68.808 312.616 67.24C312.616 66.1667 312.775 65.238 313.092 64.454C313.409 63.6607 313.862 63.054 314.45 62.634C315.047 62.214 315.747 62.004 316.55 62.004C317.082 62.004 317.614 62.102 318.146 62.298C318.687 62.4847 319.145 62.7413 319.518 63.068C319.639 63.1707 319.723 63.2733 319.77 63.376C319.826 63.4693 319.854 63.586 319.854 63.726C319.854 63.9313 319.793 64.1087 319.672 64.258C319.56 64.398 319.425 64.468 319.266 64.468C319.173 64.468 319.084 64.454 319 64.426C318.916 64.3887 318.813 64.3327 318.692 64.258C317.917 63.7167 317.227 63.446 316.62 63.446C315.939 63.446 315.402 63.7633 315.01 64.398C314.618 65.0233 314.413 65.9053 314.394 67.044C314.609 66.624 314.931 66.2927 315.36 66.05C315.789 65.798 316.27 65.672 316.802 65.672ZM316.424 70.698C316.937 70.698 317.348 70.5347 317.656 70.208C317.964 69.872 318.118 69.4333 318.118 68.892C318.118 68.3507 317.964 67.9167 317.656 67.59C317.348 67.2633 316.937 67.1 316.424 67.1C315.901 67.1 315.477 67.268 315.15 67.604C314.833 67.9307 314.674 68.36 314.674 68.892C314.674 69.4333 314.833 69.872 315.15 70.208C315.477 70.5347 315.901 70.698 316.424 70.698ZM325.197 65.672C325.785 65.672 326.307 65.8073 326.765 66.078C327.222 66.3393 327.577 66.7127 327.829 67.198C328.09 67.674 328.221 68.22 328.221 68.836C328.221 69.4707 328.076 70.04 327.787 70.544C327.507 71.0387 327.115 71.426 326.611 71.706C326.116 71.986 325.551 72.126 324.917 72.126C323.666 72.126 322.7 71.706 322.019 70.866C321.347 70.0167 321.011 68.808 321.011 67.24C321.011 66.1667 321.169 65.238 321.487 64.454C321.804 63.6607 322.257 63.054 322.845 62.634C323.442 62.214 324.142 62.004 324.945 62.004C325.477 62.004 326.009 62.102 326.541 62.298C327.082 62.4847 327.539 62.7413 327.913 63.068C328.034 63.1707 328.118 63.2733 328.165 63.376C328.221 63.4693 328.249 63.586 328.249 63.726C328.249 63.9313 328.188 64.1087 328.067 64.258C327.955 64.398 327.819 64.468 327.661 64.468C327.567 64.468 327.479 64.454 327.395 64.426C327.311 64.3887 327.208 64.3327 327.087 64.258C326.312 63.7167 325.621 63.446 325.015 63.446C324.333 63.446 323.797 63.7633 323.405 64.398C323.013 65.0233 322.807 65.9053 322.789 67.044C323.003 66.624 323.325 66.2927 323.755 66.05C324.184 65.798 324.665 65.672 325.197 65.672ZM324.819 70.698C325.332 70.698 325.743 70.5347 326.051 70.208C326.359 69.872 326.513 69.4333 326.513 68.892C326.513 68.3507 326.359 67.9167 326.051 67.59C325.743 67.2633 325.332 67.1 324.819 67.1C324.296 67.1 323.871 67.268 323.545 67.604C323.227 67.9307 323.069 68.36 323.069 68.892C323.069 69.4333 323.227 69.872 323.545 70.208C323.871 70.5347 324.296 70.698 324.819 70.698Z" fill="#4277FF"/>
<path d="M220.368 62.48C220.512 62.48 220.624 62.528 220.704 62.624C220.784 62.712 220.824 62.832 220.824 62.984V70.556C220.824 70.708 220.78 70.832 220.692 70.928C220.612 71.016 220.496 71.06 220.344 71.06C220.192 71.06 220.06 70.992 219.948 70.856L214.968 64.196V70.556C214.968 70.708 214.924 70.832 214.836 70.928C214.756 71.016 214.644 71.06 214.5 71.06C214.356 71.06 214.244 71.016 214.164 70.928C214.084 70.832 214.044 70.708 214.044 70.556V62.984C214.044 62.832 214.084 62.712 214.164 62.624C214.252 62.528 214.372 62.48 214.524 62.48C214.684 62.48 214.82 62.548 214.932 62.684L219.9 69.344V62.984C219.9 62.832 219.94 62.712 220.02 62.624C220.108 62.528 220.224 62.48 220.368 62.48ZM227.511 65.036C227.663 65.036 227.783 65.08 227.871 65.168C227.959 65.256 228.003 65.372 228.003 65.516V70.604C228.003 71.476 227.779 72.132 227.331 72.572C226.883 73.02 226.219 73.244 225.339 73.244C224.483 73.244 223.771 73.076 223.203 72.74C222.915 72.58 222.771 72.396 222.771 72.188C222.771 72.076 222.799 71.984 222.855 71.912C222.919 71.84 222.999 71.804 223.095 71.804C223.175 71.804 223.319 71.86 223.527 71.972C223.807 72.116 224.083 72.232 224.355 72.32C224.627 72.408 224.951 72.452 225.327 72.452C225.895 72.452 226.323 72.3 226.611 71.996C226.899 71.7 227.043 71.264 227.043 70.688V69.656C226.875 70.032 226.615 70.32 226.263 70.52C225.919 70.72 225.511 70.82 225.039 70.82C224.527 70.82 224.071 70.7 223.671 70.46C223.279 70.22 222.971 69.88 222.747 69.44C222.531 69 222.423 68.492 222.423 67.916C222.423 67.34 222.531 66.832 222.747 66.392C222.971 65.952 223.279 65.612 223.671 65.372C224.071 65.132 224.527 65.012 225.039 65.012C225.503 65.012 225.907 65.112 226.251 65.312C226.595 65.512 226.855 65.796 227.031 66.164V65.516C227.031 65.372 227.071 65.256 227.151 65.168C227.239 65.08 227.359 65.036 227.511 65.036ZM225.231 70.016C225.791 70.016 226.231 69.832 226.551 69.464C226.871 69.088 227.031 68.572 227.031 67.916C227.031 67.268 226.871 66.76 226.551 66.392C226.239 66.016 225.799 65.828 225.231 65.828C224.663 65.828 224.215 66.016 223.887 66.392C223.567 66.76 223.407 67.268 223.407 67.916C223.407 68.572 223.567 69.088 223.887 69.464C224.215 69.832 224.663 70.016 225.231 70.016ZM236.138 64.016C236.138 64.456 236.006 64.828 235.742 65.132C235.486 65.428 235.146 65.6 234.722 65.648V70.592C234.722 70.728 234.678 70.84 234.59 70.928C234.51 71.016 234.394 71.06 234.242 71.06C234.098 71.06 233.982 71.02 233.894 70.94C233.814 70.852 233.774 70.74 233.774 70.604V70.004C233.59 70.356 233.33 70.624 232.994 70.808C232.666 70.992 232.294 71.084 231.878 71.084C231.182 71.084 230.658 70.892 230.306 70.508C229.954 70.116 229.778 69.54 229.778 68.78V65.516C229.778 65.372 229.822 65.256 229.91 65.168C229.998 65.08 230.118 65.036 230.27 65.036C230.422 65.036 230.538 65.08 230.618 65.168C230.706 65.256 230.75 65.372 230.75 65.516V68.756C230.75 69.276 230.854 69.66 231.062 69.908C231.27 70.148 231.598 70.268 232.046 70.268C232.558 70.268 232.97 70.104 233.282 69.776C233.594 69.44 233.75 69 233.75 68.456V65.516C233.75 65.22 233.91 65.06 234.23 65.036C234.574 65.036 234.822 64.956 234.974 64.796C235.126 64.636 235.214 64.364 235.238 63.98C235.27 63.676 235.43 63.524 235.718 63.524C235.862 63.524 235.966 63.564 236.03 63.644C236.102 63.716 236.138 63.84 236.138 64.016ZM239.645 65.012C241.045 65.012 241.745 65.784 241.745 67.328V70.58C241.745 70.732 241.701 70.852 241.613 70.94C241.533 71.02 241.417 71.06 241.265 71.06C241.113 71.06 240.993 71.02 240.905 70.94C240.817 70.852 240.773 70.732 240.773 70.58V67.388C240.773 66.844 240.665 66.448 240.449 66.2C240.241 65.952 239.905 65.828 239.441 65.828C238.905 65.828 238.477 65.992 238.157 66.32C237.837 66.648 237.677 67.092 237.677 67.652V70.58C237.677 70.732 237.633 70.852 237.545 70.94C237.465 71.02 237.349 71.06 237.197 71.06C237.045 71.06 236.925 71.02 236.837 70.94C236.749 70.852 236.705 70.732 236.705 70.58V65.516C236.705 65.372 236.749 65.256 236.837 65.168C236.925 65.08 237.045 65.036 237.197 65.036C237.341 65.036 237.453 65.08 237.533 65.168C237.621 65.256 237.665 65.368 237.665 65.504V66.116C237.857 65.756 238.125 65.484 238.469 65.3C238.813 65.108 239.205 65.012 239.645 65.012ZM248.265 65.036C248.417 65.036 248.537 65.08 248.625 65.168C248.713 65.256 248.757 65.372 248.757 65.516V70.604C248.757 71.476 248.533 72.132 248.085 72.572C247.637 73.02 246.973 73.244 246.093 73.244C245.237 73.244 244.525 73.076 243.957 72.74C243.669 72.58 243.525 72.396 243.525 72.188C243.525 72.076 243.553 71.984 243.609 71.912C243.673 71.84 243.753 71.804 243.849 71.804C243.929 71.804 244.073 71.86 244.281 71.972C244.561 72.116 244.837 72.232 245.109 72.32C245.381 72.408 245.705 72.452 246.081 72.452C246.649 72.452 247.077 72.3 247.365 71.996C247.653 71.7 247.797 71.264 247.797 70.688V69.656C247.629 70.032 247.369 70.32 247.017 70.52C246.673 70.72 246.265 70.82 245.793 70.82C245.281 70.82 244.825 70.7 244.425 70.46C244.033 70.22 243.725 69.88 243.501 69.44C243.285 69 243.177 68.492 243.177 67.916C243.177 67.34 243.285 66.832 243.501 66.392C243.725 65.952 244.033 65.612 244.425 65.372C244.825 65.132 245.281 65.012 245.793 65.012C246.257 65.012 246.661 65.112 247.005 65.312C247.349 65.512 247.609 65.796 247.785 66.164V65.516C247.785 65.372 247.825 65.256 247.905 65.168C247.993 65.08 248.113 65.036 248.265 65.036ZM245.985 70.016C246.545 70.016 246.985 69.832 247.305 69.464C247.625 69.088 247.785 68.572 247.785 67.916C247.785 67.268 247.625 66.76 247.305 66.392C246.993 66.016 246.553 65.828 245.985 65.828C245.417 65.828 244.969 66.016 244.641 66.392C244.321 66.76 244.161 67.268 244.161 67.916C244.161 68.572 244.321 69.088 244.641 69.464C244.969 69.832 245.417 70.016 245.985 70.016ZM256.602 65.012C257.29 65.012 257.81 65.208 258.162 65.6C258.514 65.984 258.69 66.56 258.69 67.328V70.58C258.69 70.732 258.646 70.852 258.558 70.94C258.47 71.02 258.354 71.06 258.21 71.06C258.058 71.06 257.938 71.02 257.85 70.94C257.762 70.852 257.718 70.732 257.718 70.58V67.352C257.718 66.832 257.61 66.448 257.394 66.2C257.186 65.952 256.85 65.828 256.386 65.828C255.85 65.828 255.422 65.992 255.102 66.32C254.782 66.648 254.622 67.092 254.622 67.652V70.58C254.622 70.732 254.578 70.852 254.49 70.94C254.41 71.02 254.294 71.06 254.142 71.06C253.99 71.06 253.87 71.02 253.782 70.94C253.694 70.852 253.65 70.732 253.65 70.58V62.948C253.65 62.812 253.694 62.7 253.782 62.612C253.878 62.524 253.998 62.48 254.142 62.48C254.294 62.48 254.41 62.524 254.49 62.612C254.578 62.692 254.622 62.804 254.622 62.948V66.092C254.814 65.74 255.082 65.472 255.426 65.288C255.77 65.104 256.162 65.012 256.602 65.012ZM262.894 71.084C262.342 71.084 261.854 70.96 261.43 70.712C261.014 70.464 260.69 70.112 260.458 69.656C260.234 69.192 260.122 68.656 260.122 68.048C260.122 67.44 260.234 66.908 260.458 66.452C260.69 65.988 261.014 65.632 261.43 65.384C261.854 65.136 262.342 65.012 262.894 65.012C263.446 65.012 263.934 65.136 264.358 65.384C264.782 65.632 265.106 65.988 265.33 66.452C265.562 66.908 265.678 67.44 265.678 68.048C265.678 68.656 265.562 69.192 265.33 69.656C265.106 70.112 264.782 70.464 264.358 70.712C263.934 70.96 263.446 71.084 262.894 71.084ZM262.894 70.28C263.47 70.28 263.91 70.092 264.214 69.716C264.526 69.332 264.682 68.776 264.682 68.048C264.682 67.336 264.526 66.788 264.214 66.404C263.902 66.012 263.462 65.816 262.894 65.816C262.326 65.816 261.886 66.012 261.574 66.404C261.262 66.788 261.106 67.336 261.106 68.048C261.106 68.768 261.258 69.32 261.562 69.704C261.874 70.088 262.318 70.28 262.894 70.28ZM269.515 65.012C270.979 65.012 271.711 65.78 271.711 67.316V70.58C271.711 70.724 271.667 70.84 271.579 70.928C271.499 71.016 271.387 71.06 271.243 71.06C271.099 71.06 270.983 71.016 270.895 70.928C270.807 70.84 270.763 70.724 270.763 70.58V70.004C270.611 70.348 270.379 70.616 270.067 70.808C269.755 70.992 269.395 71.084 268.987 71.084C268.611 71.084 268.263 71.008 267.943 70.856C267.631 70.704 267.383 70.492 267.199 70.22C267.015 69.948 266.923 69.648 266.923 69.32C266.923 68.88 267.035 68.54 267.259 68.3C267.483 68.052 267.851 67.876 268.363 67.772C268.875 67.66 269.587 67.604 270.499 67.604H270.763V67.208C270.763 66.728 270.663 66.376 270.463 66.152C270.271 65.928 269.955 65.816 269.515 65.816C268.971 65.816 268.419 65.964 267.859 66.26C267.643 66.396 267.491 66.464 267.403 66.464C267.307 66.464 267.227 66.428 267.163 66.356C267.099 66.284 267.067 66.192 267.067 66.08C267.067 65.968 267.099 65.872 267.163 65.792C267.235 65.704 267.347 65.616 267.499 65.528C267.779 65.368 268.095 65.244 268.447 65.156C268.807 65.06 269.163 65.012 269.515 65.012ZM269.119 70.316C269.599 70.316 269.991 70.156 270.295 69.836C270.607 69.508 270.763 69.088 270.763 68.576V68.228H270.547C269.843 68.228 269.307 68.26 268.939 68.324C268.571 68.38 268.307 68.48 268.147 68.624C267.995 68.76 267.919 68.964 267.919 69.236C267.919 69.548 268.031 69.808 268.255 70.016C268.487 70.216 268.775 70.316 269.119 70.316ZM269.479 73.244C269.295 73.244 269.147 73.188 269.035 73.076C268.923 72.972 268.867 72.832 268.867 72.656C268.867 72.48 268.923 72.336 269.035 72.224C269.147 72.12 269.295 72.068 269.479 72.068C269.655 72.068 269.799 72.12 269.911 72.224C270.031 72.336 270.091 72.48 270.091 72.656C270.091 72.832 270.035 72.972 269.923 73.076C269.811 73.188 269.663 73.244 269.479 73.244ZM276.19 70.292C276.47 70.316 276.61 70.444 276.61 70.676C276.61 70.812 276.558 70.916 276.454 70.988C276.358 71.052 276.21 71.076 276.01 71.06L275.686 71.036C275.046 70.988 274.574 70.796 274.27 70.46C273.966 70.124 273.814 69.616 273.814 68.936V65.924H273.01C272.874 65.924 272.766 65.892 272.686 65.828C272.614 65.756 272.578 65.664 272.578 65.552C272.578 65.432 272.614 65.336 272.686 65.264C272.766 65.192 272.874 65.156 273.01 65.156H273.814V63.8C273.814 63.648 273.858 63.532 273.946 63.452C274.034 63.364 274.154 63.32 274.306 63.32C274.45 63.32 274.566 63.364 274.654 63.452C274.742 63.532 274.786 63.648 274.786 63.8V65.156H276.118C276.246 65.156 276.346 65.192 276.418 65.264C276.498 65.336 276.538 65.432 276.538 65.552C276.538 65.664 276.498 65.756 276.418 65.828C276.346 65.892 276.246 65.924 276.118 65.924H274.786V68.984C274.786 69.424 274.874 69.744 275.05 69.944C275.234 70.136 275.506 70.244 275.866 70.268L276.19 70.292ZM286.626 63.608C286.754 63.608 286.854 63.644 286.926 63.716C287.006 63.78 287.046 63.868 287.046 63.98C287.046 64.092 287.006 64.18 286.926 64.244C286.854 64.308 286.754 64.34 286.626 64.34H285.846V70.58C285.846 70.724 285.802 70.84 285.714 70.928C285.626 71.016 285.506 71.06 285.354 71.06C285.202 71.06 285.082 71.016 284.994 70.928C284.914 70.84 284.874 70.724 284.874 70.58V69.932C284.698 70.3 284.438 70.584 284.094 70.784C283.758 70.984 283.362 71.084 282.906 71.084C282.394 71.084 281.942 70.956 281.55 70.7C281.158 70.444 280.854 70.088 280.638 69.632C280.422 69.168 280.314 68.632 280.314 68.024C280.314 67.424 280.422 66.896 280.638 66.44C280.854 65.984 281.158 65.632 281.55 65.384C281.942 65.136 282.394 65.012 282.906 65.012C283.362 65.012 283.758 65.112 284.094 65.312C284.438 65.512 284.698 65.796 284.874 66.164V64.34H282.882C282.754 64.34 282.654 64.308 282.582 64.244C282.51 64.18 282.474 64.092 282.474 63.98C282.474 63.868 282.51 63.78 282.582 63.716C282.654 63.644 282.754 63.608 282.882 63.608H284.874V62.948C284.874 62.804 284.914 62.692 284.994 62.612C285.082 62.524 285.202 62.48 285.354 62.48C285.506 62.48 285.626 62.524 285.714 62.612C285.802 62.7 285.846 62.812 285.846 62.948V63.608H286.626ZM283.098 70.28C283.666 70.28 284.102 70.088 284.406 69.704C284.718 69.312 284.874 68.76 284.874 68.048C284.874 67.336 284.718 66.788 284.406 66.404C284.102 66.02 283.666 65.828 283.098 65.828C282.53 65.828 282.086 66.02 281.766 66.404C281.454 66.788 281.298 67.328 281.298 68.024C281.298 68.736 281.454 69.292 281.766 69.692C282.086 70.084 282.53 70.28 283.098 70.28ZM290.07 71.084C289.518 71.084 289.03 70.96 288.606 70.712C288.19 70.464 287.866 70.112 287.634 69.656C287.41 69.192 287.298 68.656 287.298 68.048C287.298 67.44 287.41 66.908 287.634 66.452C287.866 65.988 288.19 65.632 288.606 65.384C289.03 65.136 289.518 65.012 290.07 65.012C290.622 65.012 291.11 65.136 291.534 65.384C291.958 65.632 292.282 65.988 292.506 66.452C292.738 66.908 292.854 67.44 292.854 68.048C292.854 68.656 292.738 69.192 292.506 69.656C292.282 70.112 291.958 70.464 291.534 70.712C291.11 70.96 290.622 71.084 290.07 71.084ZM290.07 70.28C290.646 70.28 291.086 70.092 291.39 69.716C291.702 69.332 291.858 68.776 291.858 68.048C291.858 67.336 291.702 66.788 291.39 66.404C291.078 66.012 290.638 65.816 290.07 65.816C289.502 65.816 289.062 66.012 288.75 66.404C288.438 66.788 288.282 67.336 288.282 68.048C288.282 68.768 288.434 69.32 288.738 69.704C289.05 70.088 289.494 70.28 290.07 70.28ZM290.07 73.244C289.886 73.244 289.738 73.188 289.626 73.076C289.514 72.972 289.458 72.832 289.458 72.656C289.458 72.48 289.514 72.336 289.626 72.224C289.738 72.12 289.886 72.068 290.07 72.068C290.246 72.068 290.39 72.12 290.502 72.224C290.622 72.336 290.682 72.48 290.682 72.656C290.682 72.832 290.626 72.972 290.514 73.076C290.402 73.188 290.254 73.244 290.07 73.244ZM289.11 64.244C289.038 64.372 288.93 64.436 288.786 64.436C288.69 64.436 288.606 64.404 288.534 64.34C288.462 64.268 288.426 64.184 288.426 64.088C288.426 64 288.454 63.916 288.51 63.836L289.614 62.204C289.742 62.012 289.894 61.916 290.07 61.916C290.246 61.916 290.398 62.012 290.526 62.204L291.642 63.836C291.698 63.916 291.726 63.996 291.726 64.076C291.726 64.172 291.686 64.256 291.606 64.328C291.534 64.4 291.45 64.436 291.354 64.436C291.21 64.436 291.102 64.372 291.03 64.244L290.07 62.684L289.11 64.244ZM297.242 65.012C298.642 65.012 299.342 65.784 299.342 67.328V70.58C299.342 70.732 299.298 70.852 299.21 70.94C299.13 71.02 299.014 71.06 298.862 71.06C298.71 71.06 298.59 71.02 298.502 70.94C298.414 70.852 298.37 70.732 298.37 70.58V67.388C298.37 66.844 298.262 66.448 298.046 66.2C297.838 65.952 297.502 65.828 297.038 65.828C296.502 65.828 296.074 65.992 295.754 66.32C295.434 66.648 295.274 67.092 295.274 67.652V70.58C295.274 70.732 295.23 70.852 295.142 70.94C295.062 71.02 294.946 71.06 294.794 71.06C294.642 71.06 294.522 71.02 294.434 70.94C294.346 70.852 294.302 70.732 294.302 70.58V65.516C294.302 65.372 294.346 65.256 294.434 65.168C294.522 65.08 294.642 65.036 294.794 65.036C294.938 65.036 295.05 65.08 295.13 65.168C295.218 65.256 295.262 65.368 295.262 65.504V66.116C295.454 65.756 295.722 65.484 296.066 65.3C296.41 65.108 296.802 65.012 297.242 65.012ZM305.863 65.036C306.015 65.036 306.135 65.08 306.223 65.168C306.311 65.256 306.355 65.372 306.355 65.516V70.604C306.355 71.476 306.131 72.132 305.683 72.572C305.235 73.02 304.571 73.244 303.691 73.244C302.835 73.244 302.123 73.076 301.555 72.74C301.267 72.58 301.123 72.396 301.123 72.188C301.123 72.076 301.151 71.984 301.207 71.912C301.271 71.84 301.351 71.804 301.447 71.804C301.527 71.804 301.671 71.86 301.879 71.972C302.159 72.116 302.435 72.232 302.707 72.32C302.979 72.408 303.303 72.452 303.679 72.452C304.247 72.452 304.675 72.3 304.963 71.996C305.251 71.7 305.395 71.264 305.395 70.688V69.656C305.227 70.032 304.967 70.32 304.615 70.52C304.271 70.72 303.863 70.82 303.391 70.82C302.879 70.82 302.423 70.7 302.023 70.46C301.631 70.22 301.323 69.88 301.099 69.44C300.883 69 300.775 68.492 300.775 67.916C300.775 67.34 300.883 66.832 301.099 66.392C301.323 65.952 301.631 65.612 302.023 65.372C302.423 65.132 302.879 65.012 303.391 65.012C303.855 65.012 304.259 65.112 304.603 65.312C304.947 65.512 305.207 65.796 305.383 66.164V65.516C305.383 65.372 305.423 65.256 305.503 65.168C305.591 65.08 305.711 65.036 305.863 65.036ZM303.583 70.016C304.143 70.016 304.583 69.832 304.903 69.464C305.223 69.088 305.383 68.572 305.383 67.916C305.383 67.268 305.223 66.76 304.903 66.392C304.591 66.016 304.151 65.828 303.583 65.828C303.015 65.828 302.567 66.016 302.239 66.392C301.919 66.76 301.759 67.268 301.759 67.916C301.759 68.572 301.919 69.088 302.239 69.464C302.567 69.832 303.015 70.016 303.583 70.016Z" fill="#7E7D88"/>
<rect x="205" y="65" width="4" height="4" rx="2" fill="#7E7D88"/>
<path d="M112.808 50C113.992 50 114.584 50.496 114.584 51.488C114.584 52.496 113.992 53 112.808 53H103.88C103.384 53 102.984 52.856 102.68 52.568C102.392 52.264 102.248 51.888 102.248 51.44C102.248 50.864 102.48 50.336 102.944 49.856L108.224 44.264C109.408 43.016 110 41.864 110 40.808C110 40.152 109.816 39.656 109.448 39.32C109.08 38.968 108.544 38.792 107.84 38.792C107.232 38.792 106.672 38.896 106.16 39.104C105.648 39.312 105.056 39.616 104.384 40.016C104.112 40.176 103.904 40.288 103.76 40.352C103.616 40.416 103.448 40.448 103.256 40.448C102.92 40.448 102.632 40.296 102.392 39.992C102.152 39.672 102.032 39.304 102.032 38.888C102.032 38.584 102.08 38.336 102.176 38.144C102.288 37.936 102.464 37.752 102.704 37.592C103.424 37.064 104.248 36.648 105.176 36.344C106.12 36.024 107.064 35.864 108.008 35.864C109.144 35.864 110.136 36.056 110.984 36.44C111.848 36.824 112.512 37.376 112.976 38.096C113.44 38.8 113.672 39.616 113.672 40.544C113.672 41.52 113.464 42.424 113.048 43.256C112.648 44.088 111.968 45.016 111.008 46.04L107.24 50H112.808ZM127.462 36.08C127.958 36.08 128.342 36.224 128.614 36.512C128.886 36.8 129.022 37.168 129.022 37.616C129.022 38.08 128.894 38.536 128.638 38.984L121.15 52.232C120.974 52.568 120.742 52.816 120.454 52.976C120.182 53.136 119.894 53.216 119.59 53.216C119.126 53.216 118.71 53.056 118.342 52.736C117.974 52.4 117.79 51.992 117.79 51.512C117.79 51.176 117.878 50.856 118.054 50.552L124.606 39.08H117.958C116.79 39.08 116.206 38.584 116.206 37.592C116.206 36.584 116.79 36.08 117.958 36.08H127.462ZM138.229 42.008C139.221 42.008 140.101 42.24 140.869 42.704C141.653 43.168 142.261 43.816 142.693 44.648C143.141 45.48 143.365 46.424 143.365 47.48C143.365 48.584 143.117 49.576 142.621 50.456C142.125 51.32 141.437 52 140.557 52.496C139.677 52.976 138.685 53.216 137.581 53.216C135.389 53.216 133.693 52.488 132.493 51.032C131.293 49.576 130.693 47.496 130.693 44.792C130.693 42.984 130.973 41.408 131.533 40.064C132.093 38.704 132.893 37.664 133.933 36.944C134.989 36.224 136.213 35.864 137.605 35.864C138.517 35.864 139.437 36.016 140.365 36.32C141.293 36.624 142.085 37.048 142.741 37.592C142.965 37.768 143.125 37.96 143.221 38.168C143.333 38.36 143.389 38.6 143.389 38.888C143.389 39.304 143.269 39.664 143.029 39.968C142.805 40.256 142.525 40.4 142.189 40.4C141.981 40.4 141.797 40.376 141.637 40.328C141.493 40.264 141.293 40.16 141.037 40.016C140.397 39.632 139.821 39.336 139.309 39.128C138.813 38.904 138.301 38.792 137.773 38.792C136.781 38.792 135.989 39.248 135.397 40.16C134.821 41.072 134.493 42.352 134.413 44C134.781 43.392 135.301 42.912 135.973 42.56C136.645 42.192 137.397 42.008 138.229 42.008ZM137.365 50.312C138.117 50.312 138.717 50.064 139.165 49.568C139.629 49.072 139.861 48.416 139.861 47.6C139.861 46.8 139.629 46.152 139.165 45.656C138.717 45.16 138.117 44.912 137.365 44.912C136.613 44.912 136.005 45.16 135.541 45.656C135.077 46.152 134.845 46.8 134.845 47.6C134.845 48.4 135.077 49.056 135.541 49.568C136.005 50.064 136.613 50.312 137.365 50.312Z" fill="#535261"/>
<path d="M120.862 75C120.638 75 120.461 74.9393 120.33 74.818C120.209 74.6873 120.148 74.5147 120.148 74.3V65.83C120.148 65.6153 120.209 65.4473 120.33 65.326C120.461 65.1953 120.638 65.13 120.862 65.13H123.606C125.202 65.13 126.439 65.5593 127.316 66.418C128.193 67.2767 128.632 68.49 128.632 70.058C128.632 71.626 128.193 72.844 127.316 73.712C126.439 74.5707 125.202 75 123.606 75H120.862ZM123.522 73.796C125.949 73.796 127.162 72.55 127.162 70.058C127.162 67.5753 125.949 66.334 123.522 66.334H121.59V73.796H123.522ZM131.139 75.07C130.934 75.07 130.761 75.014 130.621 74.902C130.491 74.79 130.425 74.622 130.425 74.398V68.714C130.425 68.49 130.491 68.322 130.621 68.21C130.761 68.0887 130.934 68.028 131.139 68.028C131.345 68.028 131.513 68.0887 131.643 68.21C131.774 68.322 131.839 68.49 131.839 68.714V74.398C131.839 74.622 131.774 74.79 131.643 74.902C131.513 75.014 131.345 75.07 131.139 75.07ZM131.139 66.656C130.869 66.656 130.654 66.5813 130.495 66.432C130.337 66.2827 130.257 66.0867 130.257 65.844C130.257 65.6013 130.337 65.41 130.495 65.27C130.654 65.1207 130.869 65.046 131.139 65.046C131.401 65.046 131.611 65.1207 131.769 65.27C131.937 65.41 132.021 65.6013 132.021 65.844C132.021 66.0867 131.942 66.2827 131.783 66.432C131.625 66.5813 131.41 66.656 131.139 66.656ZM131.125 77.688C130.883 77.688 130.687 77.6133 130.537 77.464C130.388 77.324 130.313 77.1373 130.313 76.904C130.313 76.6707 130.388 76.484 130.537 76.344C130.687 76.204 130.883 76.134 131.125 76.134C131.359 76.134 131.55 76.204 131.699 76.344C131.858 76.4933 131.937 76.68 131.937 76.904C131.937 77.1373 131.863 77.324 131.713 77.464C131.564 77.6133 131.368 77.688 131.125 77.688ZM136.742 75.098C136.079 75.098 135.496 74.9533 134.992 74.664C134.497 74.3747 134.11 73.964 133.83 73.432C133.559 72.9 133.424 72.284 133.424 71.584C133.424 70.8747 133.564 70.2493 133.844 69.708C134.133 69.1667 134.535 68.7467 135.048 68.448C135.561 68.1493 136.149 68 136.812 68C137.167 68 137.521 68.0513 137.876 68.154C138.24 68.2567 138.562 68.3967 138.842 68.574C139.141 68.7793 139.29 69.0173 139.29 69.288C139.29 69.4467 139.248 69.582 139.164 69.694C139.08 69.7967 138.973 69.848 138.842 69.848C138.758 69.848 138.674 69.8293 138.59 69.792C138.506 69.7453 138.399 69.68 138.268 69.596C138.035 69.4467 137.815 69.3347 137.61 69.26C137.414 69.176 137.176 69.134 136.896 69.134C136.261 69.134 135.767 69.3487 135.412 69.778C135.067 70.2073 134.894 70.8047 134.894 71.57C134.894 72.3353 135.067 72.928 135.412 73.348C135.757 73.7587 136.247 73.964 136.882 73.964C137.162 73.964 137.409 73.922 137.624 73.838C137.839 73.754 138.058 73.642 138.282 73.502C138.385 73.4367 138.487 73.3807 138.59 73.334C138.693 73.2873 138.786 73.264 138.87 73.264C139.001 73.264 139.108 73.32 139.192 73.432C139.276 73.5347 139.318 73.6653 139.318 73.824C139.318 73.9547 139.281 74.076 139.206 74.188C139.141 74.2907 139.024 74.398 138.856 74.51C138.576 74.6967 138.249 74.8413 137.876 74.944C137.503 75.0467 137.125 75.098 136.742 75.098ZM144.28 68C145.904 68 146.716 68.9193 146.716 70.758V74.398C146.716 74.6033 146.65 74.7667 146.52 74.888C146.389 75.0093 146.216 75.07 146.002 75.07C145.787 75.07 145.614 75.0093 145.484 74.888C145.362 74.7667 145.302 74.6033 145.302 74.398V70.772C145.302 70.212 145.185 69.8013 144.952 69.54C144.728 69.2787 144.373 69.148 143.888 69.148C143.318 69.148 142.861 69.3253 142.516 69.68C142.17 70.0347 141.998 70.5107 141.998 71.108V74.398C141.998 74.6033 141.932 74.7667 141.802 74.888C141.68 75.0093 141.512 75.07 141.298 75.07C141.083 75.07 140.91 75.0093 140.78 74.888C140.649 74.7667 140.584 74.6033 140.584 74.398V65.732C140.584 65.5267 140.649 65.3633 140.78 65.242C140.92 65.1207 141.097 65.06 141.312 65.06C141.517 65.06 141.68 65.1207 141.802 65.242C141.932 65.354 141.998 65.508 141.998 65.704V69.204C142.231 68.812 142.544 68.5133 142.936 68.308C143.328 68.1027 143.776 68 144.28 68ZM157.199 68.448C157.255 68.308 157.335 68.2053 157.437 68.14C157.549 68.0747 157.666 68.042 157.787 68.042C157.965 68.042 158.119 68.1027 158.249 68.224C158.389 68.3453 158.459 68.49 158.459 68.658C158.459 68.7513 158.441 68.84 158.403 68.924L155.729 74.594C155.664 74.7433 155.561 74.86 155.421 74.944C155.291 75.0187 155.151 75.056 155.001 75.056C154.852 75.056 154.707 75.0187 154.567 74.944C154.437 74.86 154.339 74.7433 154.273 74.594L151.599 68.924C151.562 68.8493 151.543 68.7607 151.543 68.658C151.543 68.49 151.618 68.3453 151.767 68.224C151.917 68.1027 152.085 68.042 152.271 68.042C152.542 68.042 152.743 68.1727 152.873 68.434L155.043 73.25L157.199 68.448ZM164.907 68.028C165.121 68.028 165.289 68.0887 165.411 68.21C165.541 68.3313 165.607 68.4993 165.607 68.714V74.412C165.607 74.608 165.541 74.7667 165.411 74.888C165.28 75.0093 165.107 75.07 164.893 75.07C164.697 75.07 164.538 75.014 164.417 74.902C164.295 74.7807 164.235 74.622 164.235 74.426V73.894C164.02 74.286 163.721 74.5847 163.339 74.79C162.965 74.9953 162.545 75.098 162.079 75.098C160.417 75.098 159.587 74.1833 159.587 72.354V68.714C159.587 68.4993 159.647 68.3313 159.769 68.21C159.899 68.0887 160.077 68.028 160.301 68.028C160.515 68.028 160.683 68.0887 160.805 68.21C160.935 68.3313 161.001 68.4993 161.001 68.714V72.34C161.001 72.8907 161.113 73.2967 161.337 73.558C161.561 73.8193 161.906 73.95 162.373 73.95C162.923 73.95 163.362 73.7727 163.689 73.418C164.025 73.0633 164.193 72.592 164.193 72.004V68.714C164.193 68.5087 164.258 68.3453 164.389 68.224C164.519 68.0933 164.692 68.028 164.907 68.028ZM162.611 77.688C162.368 77.688 162.172 77.6133 162.023 77.464C161.873 77.324 161.799 77.1373 161.799 76.904C161.799 76.6707 161.873 76.484 162.023 76.344C162.172 76.204 162.368 76.134 162.611 76.134C162.844 76.134 163.035 76.204 163.185 76.344C163.343 76.4933 163.423 76.68 163.423 76.904C163.423 77.1373 163.348 77.324 163.199 77.464C163.049 77.6133 162.853 77.688 162.611 77.688Z" fill="#4277FF"/>
<ellipse cx="104.221" cy="74.0817" rx="0.498165" ry="0.495793" fill="#4277FF"/>
<ellipse cx="105.882" cy="74.0817" rx="0.498165" ry="0.495793" fill="#4277FF"/>
<ellipse cx="107.543" cy="74.0817" rx="0.498165" ry="0.495793" fill="#4277FF"/>
<g clip-path="url(#clip0_233_8503)">
<path d="M110.63 67.8252C110.963 67.8252 111.265 67.9195 111.527 68.1271C112.022 68.526 112.093 69.2025 111.678 69.6823C111.549 69.8332 111.395 69.968 111.249 70.1028C111.068 70.2699 110.936 70.4505 110.947 70.7146C110.955 70.906 110.793 71.0327 110.603 71.0273C110.424 71.0192 110.3 70.8817 110.292 70.6904C110.276 70.34 110.399 70.0435 110.641 69.7928C110.806 69.6203 110.988 69.4667 111.15 69.2915C111.373 69.0543 111.323 68.7443 111.037 68.5799C110.949 68.5287 110.842 68.4936 110.738 68.4802C110.408 68.4397 110.111 68.5395 109.984 68.9572C109.932 69.1351 109.748 69.2268 109.577 69.1756C109.398 69.1244 109.305 68.9545 109.354 68.7686C109.503 68.1918 109.995 67.8279 110.63 67.8252Z" fill="#4277FF"/>
<path d="M110.633 71.3605C110.819 71.3659 110.957 71.5088 110.951 71.6866C110.946 71.8699 110.795 72.0047 110.605 71.9966C110.424 71.9885 110.286 71.843 110.294 71.6651C110.3 71.4872 110.446 71.3551 110.633 71.3605Z" fill="#4277FF"/>
</g>
<path d="M115.771 69.7304C115.771 71.0428 115.059 72.2227 113.927 73.0437C113.888 73.071 113.866 73.1178 113.864 73.1646L113.815 74.4419C113.809 74.6135 113.619 74.713 113.474 74.6213L112.387 73.9407C112.387 73.9407 112.387 73.9407 112.385 73.9407C112.322 73.8998 112.246 73.8881 112.175 73.9095C111.528 74.1104 110.825 74.2216 110.088 74.2216C110.078 74.2216 110.069 74.2216 110.059 74.2216C110.078 74.0928 110.088 73.9622 110.088 73.8296C110.088 71.9984 108.211 70.5144 105.895 70.5144C105.419 70.5144 104.962 70.5768 104.535 70.6918C104.449 70.3817 104.404 70.058 104.404 69.7265C104.404 67.244 106.947 65.2334 110.086 65.2334C113.227 65.2373 115.771 67.2498 115.771 69.7304Z" stroke="#4277FF" stroke-width="1.10526" stroke-miterlimit="10"/>
<path d="M104.537 70.6953C102.889 71.1419 101.704 72.3783 101.704 73.8331C101.704 74.8003 102.229 75.6721 103.063 76.2785C103.093 76.3 103.109 76.3331 103.111 76.3682L103.146 77.3102C103.15 77.4369 103.291 77.5091 103.399 77.4428L104.202 76.9396C104.208 76.9357 104.216 76.9299 104.222 76.926C104.251 76.9026 104.29 76.8948 104.325 76.9065C104.811 77.0625 105.34 77.1483 105.897 77.1483C108.044 77.1483 109.816 75.871 110.061 74.2251" stroke="#4277FF" stroke-width="1.10526" stroke-miterlimit="10"/>
</g>
<defs>
<filter id="filter0_d_233_8503" x="0" y="0" width="383" height="113" filterUnits="userSpaceOnUse" color-interpolation-filters="sRGB">
<feFlood flood-opacity="0" result="BackgroundImageFix"/>
<feColorMatrix in="SourceAlpha" type="matrix" values="0 0 0 0 0 0 0 0 0 0 0 0 0 0 0 0 0 0 127 0" result="hardAlpha"/>
<feOffset dx="2" dy="2"/>
<feGaussianBlur stdDeviation="7.5"/>
<feComposite in2="hardAlpha" operator="out"/>
<feColorMatrix type="matrix" values="0 0 0 0 0.275 0 0 0 0 0.252083 0 0 0 0 0.263826 0 0 0 0.1 0"/>
<feBlend mode="normal" in2="BackgroundImageFix" result="effect1_dropShadow_233_8503"/>
<feBlend mode="normal" in="SourceGraphic" in2="effect1_dropShadow_233_8503" result="shape"/>
</filter>
<clipPath id="clip0_233_8503">
<rect width="2.60944" height="4.1751" fill="white" transform="translate(109.34 67.8242)"/>
</clipPath>
</defs>
</svg>
