<svg width="383" height="113" viewBox="0 0 383 113" fill="none" xmlns="http://www.w3.org/2000/svg">
<g filter="url(#filter0_d_233_8480)">
<rect x="13" y="13" width="353" height="83" rx="12" fill="white"/>
<path d="M89 54C89 70.5685 75.5685 84 59 84C42.4315 84 29 70.5685 29 54C29 37.4315 42.4315 24 59 24C75.5685 24 89 37.4315 89 54ZM31.5042 54C31.5042 69.1855 43.8145 81.4958 59 81.4958C74.1855 81.4958 86.4958 69.1855 86.4958 54C86.4958 38.8145 74.1855 26.5042 59 26.5042C43.8145 26.5042 31.5042 38.8145 31.5042 54Z" fill="#EAEAEC"/>
<path d="M84 54C84 67.8071 72.8071 79 59 79C45.1929 79 34 67.8071 34 54C34 40.1929 45.1929 29 59 29C72.8071 29 84 40.1929 84 54ZM36.5105 54C36.5105 66.4206 46.5794 76.4895 59 76.4895C71.4206 76.4895 81.4895 66.4206 81.4895 54C81.4895 41.5794 71.4206 31.5105 59 31.5105C46.5794 31.5105 36.5105 41.5794 36.5105 54Z" fill="#EAEAEC"/>
<path d="M59 30.25C59 29.5596 59.5601 28.9967 60.2496 29.0312C64.6721 29.2525 68.9574 30.6449 72.6653 33.0654C73.2434 33.4427 73.3657 34.2273 72.9599 34.7859C72.5541 35.3444 71.7741 35.465 71.194 35.0908C67.916 32.9769 64.1439 31.7512 60.2494 31.5347C59.5601 31.4964 59 30.9404 59 30.25Z" fill="#7E7D88"/>
<path d="M59 25.2521C59 24.5606 59.5609 23.9973 60.2518 24.0261C66.9469 24.3056 73.3698 26.8203 78.4834 31.1878C83.9151 35.8269 87.5132 42.2518 88.6306 49.307C89.7481 56.3621 88.3115 63.5845 84.5792 69.675C80.8469 75.7654 75.064 80.3244 68.2705 82.5317C61.477 84.739 54.1188 84.4499 47.5195 81.7164C40.9201 78.9828 35.5127 73.9843 32.2698 67.6197C29.0269 61.2552 28.1614 53.9424 29.8289 46.9966C31.3988 40.4575 35.1169 34.6478 40.3691 30.4864C40.9111 30.057 41.696 30.183 42.1024 30.7424C42.5089 31.3019 42.3828 32.0827 41.8425 32.5142C37.0719 36.3236 33.6946 41.6219 32.2639 47.5812C30.7356 53.9472 31.5288 60.6496 34.501 66.4828C37.4732 72.3161 42.4293 76.8975 48.4778 79.4028C54.5263 81.9082 61.2703 82.1732 67.4967 80.1501C73.7231 78.127 79.0233 73.9486 82.444 68.3665C85.8648 62.7844 87.1814 56.1649 86.1573 49.6987C85.1331 43.2325 81.8354 37.3438 76.8571 33.092C72.1969 29.1118 66.3503 26.8104 60.2517 26.5327C59.5609 26.5012 59 25.9436 59 25.2521Z" fill="#FF7506"/>
<path d="M47.878 49.004C49.1287 49.004 50.09 49.4287 50.762 50.278C51.4433 51.118 51.784 52.322 51.784 53.89C51.784 54.9633 51.6253 55.8967 51.308 56.69C50.9907 57.474 50.5333 58.076 49.936 58.496C49.348 58.916 48.6527 59.126 47.85 59.126C47.318 59.126 46.7813 59.0327 46.24 58.846C45.708 58.65 45.2553 58.3887 44.882 58.062C44.7607 57.9593 44.672 57.8613 44.616 57.768C44.5693 57.6653 44.546 57.544 44.546 57.404C44.546 57.1987 44.602 57.026 44.714 56.886C44.8353 56.7367 44.9753 56.662 45.134 56.662C45.2273 56.662 45.316 56.6807 45.4 56.718C45.484 56.746 45.5867 56.7973 45.708 56.872C46.4827 57.4133 47.1733 57.684 47.78 57.684C48.4613 57.684 48.998 57.3713 49.39 56.746C49.782 56.1113 49.9873 55.2247 50.006 54.086C49.7913 54.506 49.4693 54.842 49.04 55.094C48.6107 55.3367 48.13 55.458 47.598 55.458C47.01 55.458 46.4873 55.3273 46.03 55.066C45.5727 54.7953 45.2133 54.422 44.952 53.946C44.7 53.4607 44.574 52.91 44.574 52.294C44.574 51.6593 44.714 51.0947 44.994 50.6C45.2833 50.096 45.6753 49.704 46.17 49.424C46.674 49.144 47.2433 49.004 47.878 49.004ZM47.976 54.03C48.4987 54.03 48.9187 53.8667 49.236 53.54C49.5627 53.204 49.726 52.77 49.726 52.238C49.726 51.6967 49.5627 51.2627 49.236 50.936C48.9187 50.6 48.4987 50.432 47.976 50.432C47.4627 50.432 47.052 50.6 46.744 50.936C46.436 51.2627 46.282 51.6967 46.282 52.238C46.282 52.7793 46.436 53.2133 46.744 53.54C47.052 53.8667 47.4627 54.03 47.976 54.03ZM56.5945 59.126C55.4279 59.126 54.5365 58.6967 53.9205 57.838C53.3045 56.97 52.9965 55.71 52.9965 54.058C52.9965 52.4153 53.3045 51.1647 53.9205 50.306C54.5365 49.438 55.4279 49.004 56.5945 49.004C57.7612 49.004 58.6525 49.438 59.2685 50.306C59.8845 51.1647 60.1925 52.4153 60.1925 54.058C60.1925 55.7007 59.8845 56.956 59.2685 57.824C58.6525 58.692 57.7612 59.126 56.5945 59.126ZM56.5945 57.712C57.2292 57.712 57.6912 57.4227 57.9805 56.844C58.2699 56.256 58.4145 55.3273 58.4145 54.058C58.4145 52.7793 58.2699 51.8553 57.9805 51.286C57.6912 50.7073 57.2292 50.418 56.5945 50.418C55.9599 50.418 55.4979 50.7073 55.2085 51.286C54.9192 51.8647 54.7745 52.7887 54.7745 54.058C54.7745 55.3273 54.9192 56.256 55.2085 56.844C55.4979 57.4227 55.9599 57.712 56.5945 57.712ZM65.4371 58.804C65.3531 58.9533 65.2504 59.0653 65.1291 59.14C65.0077 59.2147 64.8864 59.252 64.7651 59.252C64.5971 59.252 64.4477 59.1913 64.3171 59.07C64.1957 58.9487 64.1351 58.7947 64.1351 58.608C64.1351 58.4493 64.1817 58.2907 64.2751 58.132L69.3711 49.326C69.4551 49.1767 69.5577 49.0647 69.6791 48.99C69.8004 48.9153 69.9217 48.878 70.0431 48.878C70.2111 48.878 70.3557 48.9387 70.4771 49.06C70.6077 49.1813 70.6731 49.3353 70.6731 49.522C70.6731 49.6807 70.6264 49.8393 70.5331 49.998L65.4371 58.804ZM63.8831 55.024C63.0991 55.024 62.4877 54.7673 62.0491 54.254C61.6104 53.7407 61.3911 52.9893 61.3911 52C61.3911 51.02 61.6104 50.2733 62.0491 49.76C62.4877 49.2467 63.0991 48.99 63.8831 48.99C64.6671 48.99 65.2784 49.2467 65.7171 49.76C66.1651 50.2733 66.3891 51.02 66.3891 52C66.3891 52.9893 66.1651 53.7407 65.7171 54.254C65.2784 54.7673 64.6671 55.024 63.8831 55.024ZM63.8831 53.89C64.2377 53.89 64.4944 53.7453 64.6531 53.456C64.8211 53.1573 64.9051 52.672 64.9051 52C64.9051 51.3467 64.8211 50.8707 64.6531 50.572C64.4851 50.2733 64.2284 50.124 63.8831 50.124C63.5377 50.124 63.2811 50.2733 63.1131 50.572C62.9544 50.8613 62.8751 51.3373 62.8751 52C62.8751 52.672 62.9544 53.1573 63.1131 53.456C63.2811 53.7453 63.5377 53.89 63.8831 53.89ZM70.9251 59.098C70.1411 59.098 69.5297 58.8413 69.0911 58.328C68.6524 57.8147 68.4331 57.0587 68.4331 56.06C68.4331 55.08 68.6524 54.338 69.0911 53.834C69.5391 53.3207 70.1504 53.064 70.9251 53.064C71.7091 53.064 72.3204 53.3207 72.7591 53.834C73.1977 54.3473 73.4171 55.094 73.4171 56.074C73.4171 57.0633 73.1977 57.8147 72.7591 58.328C72.3204 58.8413 71.7091 59.098 70.9251 59.098ZM70.9251 57.964C71.2704 57.964 71.5271 57.8193 71.6951 57.53C71.8631 57.2313 71.9471 56.746 71.9471 56.074C71.9471 55.4207 71.8631 54.9447 71.6951 54.646C71.5271 54.3473 71.2704 54.198 70.9251 54.198C70.5797 54.198 70.3231 54.3473 70.1551 54.646C69.9871 54.9447 69.9031 55.4207 69.9031 56.074C69.9031 56.746 69.9871 57.2313 70.1551 57.53C70.3231 57.8193 70.5797 57.964 70.9251 57.964Z" fill="#535261"/>
<path d="M317.712 40.932C318.3 41.0813 318.748 41.366 319.056 41.786C319.373 42.1967 319.532 42.71 319.532 43.326C319.532 44.1753 319.219 44.852 318.594 45.356C317.969 45.86 317.124 46.112 316.06 46.112C315.453 46.112 314.87 46.0187 314.31 45.832C313.75 45.6453 313.274 45.384 312.882 45.048C312.667 44.8613 312.56 44.642 312.56 44.39C312.56 44.1847 312.616 44.012 312.728 43.872C312.849 43.7227 312.989 43.648 313.148 43.648C313.241 43.648 313.325 43.6667 313.4 43.704C313.475 43.732 313.577 43.7833 313.708 43.858C314.1 44.1193 314.473 44.32 314.828 44.46C315.183 44.6 315.57 44.67 315.99 44.67C316.606 44.67 317.063 44.5487 317.362 44.306C317.661 44.054 317.81 43.676 317.81 43.172C317.81 42.6773 317.651 42.3133 317.334 42.08C317.026 41.8373 316.545 41.716 315.892 41.716H315.094C314.879 41.716 314.711 41.646 314.59 41.506C314.478 41.3567 314.422 41.1887 314.422 41.002C314.422 40.806 314.478 40.638 314.59 40.498C314.711 40.358 314.879 40.288 315.094 40.288H315.654C316.933 40.288 317.572 39.8073 317.572 38.846C317.572 38.398 317.437 38.0527 317.166 37.81C316.895 37.5673 316.522 37.446 316.046 37.446C315.365 37.446 314.637 37.7167 313.862 38.258C313.731 38.3327 313.629 38.3887 313.554 38.426C313.479 38.454 313.395 38.468 313.302 38.468C313.143 38.468 313.003 38.398 312.882 38.258C312.77 38.1087 312.714 37.9313 312.714 37.726C312.714 37.586 312.737 37.4693 312.784 37.376C312.84 37.2733 312.924 37.1707 313.036 37.068C313.428 36.7413 313.895 36.4847 314.436 36.298C314.987 36.102 315.547 36.004 316.116 36.004C317.087 36.004 317.857 36.242 318.426 36.718C319.005 37.194 319.294 37.8287 319.294 38.622C319.285 39.1633 319.14 39.6393 318.86 40.05C318.589 40.4513 318.207 40.7453 317.712 40.932ZM322.131 46.084C321.832 46.084 321.585 45.986 321.389 45.79C321.193 45.5847 321.095 45.3327 321.095 45.034C321.095 44.7353 321.193 44.488 321.389 44.292C321.585 44.0867 321.832 43.984 322.131 43.984C322.429 43.984 322.677 44.0867 322.873 44.292C323.069 44.488 323.167 44.7353 323.167 45.034C323.167 45.3327 323.069 45.5847 322.873 45.79C322.677 45.986 322.429 46.084 322.131 46.084ZM330.909 36.13C331.152 36.13 331.339 36.2 331.469 36.34C331.6 36.4707 331.665 36.6433 331.665 36.858C331.665 37.0727 331.6 37.2967 331.469 37.53L327.003 45.636C326.817 45.9533 326.56 46.112 326.233 46.112C326.009 46.112 325.809 46.0373 325.631 45.888C325.463 45.7293 325.379 45.538 325.379 45.314C325.379 45.1553 325.426 44.9967 325.519 44.838L329.537 37.586H325.309C324.749 37.586 324.469 37.348 324.469 36.872C324.469 36.3773 324.749 36.13 325.309 36.13H330.909ZM336.14 36.004C337.39 36.004 338.352 36.4287 339.024 37.278C339.705 38.118 340.046 39.322 340.046 40.89C340.046 41.9633 339.887 42.8967 339.57 43.69C339.252 44.474 338.795 45.076 338.198 45.496C337.61 45.916 336.914 46.126 336.112 46.126C335.58 46.126 335.043 46.0327 334.502 45.846C333.97 45.65 333.517 45.3887 333.144 45.062C333.022 44.9593 332.934 44.8613 332.878 44.768C332.831 44.6653 332.808 44.544 332.808 44.404C332.808 44.1987 332.864 44.026 332.976 43.886C333.097 43.7367 333.237 43.662 333.396 43.662C333.489 43.662 333.578 43.6807 333.662 43.718C333.746 43.746 333.848 43.7973 333.97 43.872C334.744 44.4133 335.435 44.684 336.042 44.684C336.723 44.684 337.26 44.3713 337.652 43.746C338.044 43.1113 338.249 42.2247 338.268 41.086C338.053 41.506 337.731 41.842 337.302 42.094C336.872 42.3367 336.392 42.458 335.86 42.458C335.272 42.458 334.749 42.3273 334.292 42.066C333.834 41.7953 333.475 41.422 333.214 40.946C332.962 40.4607 332.836 39.91 332.836 39.294C332.836 38.6593 332.976 38.0947 333.256 37.6C333.545 37.096 333.937 36.704 334.432 36.424C334.936 36.144 335.505 36.004 336.14 36.004ZM336.238 41.03C336.76 41.03 337.18 40.8667 337.498 40.54C337.824 40.204 337.988 39.77 337.988 39.238C337.988 38.6967 337.824 38.2627 337.498 37.936C337.18 37.6 336.76 37.432 336.238 37.432C335.724 37.432 335.314 37.6 335.006 37.936C334.698 38.2627 334.544 38.6967 334.544 39.238C334.544 39.7793 334.698 40.2133 335.006 40.54C335.314 40.8667 335.724 41.03 336.238 41.03ZM344.534 36.004C345.785 36.004 346.746 36.4287 347.418 37.278C348.1 38.118 348.44 39.322 348.44 40.89C348.44 41.9633 348.282 42.8967 347.964 43.69C347.647 44.474 347.19 45.076 346.592 45.496C346.004 45.916 345.309 46.126 344.506 46.126C343.974 46.126 343.438 46.0327 342.896 45.846C342.364 45.65 341.912 45.3887 341.538 45.062C341.417 44.9593 341.328 44.8613 341.272 44.768C341.226 44.6653 341.202 44.544 341.202 44.404C341.202 44.1987 341.258 44.026 341.37 43.886C341.492 43.7367 341.632 43.662 341.79 43.662C341.884 43.662 341.972 43.6807 342.056 43.718C342.14 43.746 342.243 43.7973 342.364 43.872C343.139 44.4133 343.83 44.684 344.436 44.684C345.118 44.684 345.654 44.3713 346.046 43.746C346.438 43.1113 346.644 42.2247 346.662 41.086C346.448 41.506 346.126 41.842 345.696 42.094C345.267 42.3367 344.786 42.458 344.254 42.458C343.666 42.458 343.144 42.3273 342.686 42.066C342.229 41.7953 341.87 41.422 341.608 40.946C341.356 40.4607 341.23 39.91 341.23 39.294C341.23 38.6593 341.37 38.0947 341.65 37.6C341.94 37.096 342.332 36.704 342.826 36.424C343.33 36.144 343.9 36.004 344.534 36.004ZM344.632 41.03C345.155 41.03 345.575 40.8667 345.892 40.54C346.219 40.204 346.382 39.77 346.382 39.238C346.382 38.6967 346.219 38.2627 345.892 37.936C345.575 37.6 345.155 37.432 344.632 37.432C344.119 37.432 343.708 37.6 343.4 37.936C343.092 38.2627 342.938 38.6967 342.938 39.238C342.938 39.7793 343.092 40.2133 343.4 40.54C343.708 40.8667 344.119 41.03 344.632 41.03Z" fill="#FF7506"/>
<path d="M217.044 36.54C218.396 36.54 219.44 36.908 220.176 37.644C220.92 38.372 221.292 39.412 221.292 40.764C221.292 42.116 220.92 43.16 220.176 43.896C219.432 44.632 218.388 45 217.044 45H214.704C214.552 45 214.428 44.956 214.332 44.868C214.244 44.772 214.2 44.656 214.2 44.52V41.112H213.444C213.308 41.112 213.2 41.08 213.12 41.016C213.04 40.944 213 40.844 213 40.716C213 40.588 213.04 40.488 213.12 40.416C213.2 40.344 213.308 40.308 213.444 40.308H214.2V37.02C214.2 36.876 214.244 36.76 214.332 36.672C214.428 36.584 214.552 36.54 214.704 36.54H217.044ZM216.996 44.16C219.188 44.16 220.284 43.028 220.284 40.764C220.284 38.508 219.188 37.38 216.996 37.38H215.184V40.308H217.152C217.288 40.308 217.392 40.344 217.464 40.416C217.544 40.488 217.584 40.588 217.584 40.716C217.584 40.844 217.544 40.944 217.464 41.016C217.392 41.08 217.288 41.112 217.152 41.112H215.184V44.16H216.996ZM225.311 39.012C226.775 39.012 227.507 39.78 227.507 41.316V44.58C227.507 44.724 227.463 44.84 227.375 44.928C227.295 45.016 227.183 45.06 227.039 45.06C226.895 45.06 226.779 45.016 226.691 44.928C226.603 44.84 226.559 44.724 226.559 44.58V44.004C226.407 44.348 226.175 44.616 225.863 44.808C225.551 44.992 225.191 45.084 224.783 45.084C224.407 45.084 224.059 45.008 223.739 44.856C223.427 44.704 223.179 44.492 222.995 44.22C222.811 43.948 222.719 43.648 222.719 43.32C222.719 42.88 222.831 42.54 223.055 42.3C223.279 42.052 223.647 41.876 224.159 41.772C224.671 41.66 225.383 41.604 226.295 41.604H226.559V41.208C226.559 40.728 226.459 40.376 226.259 40.152C226.067 39.928 225.751 39.816 225.311 39.816C224.767 39.816 224.215 39.964 223.655 40.26C223.439 40.396 223.287 40.464 223.199 40.464C223.103 40.464 223.023 40.428 222.959 40.356C222.895 40.284 222.863 40.192 222.863 40.08C222.863 39.968 222.895 39.872 222.959 39.792C223.031 39.704 223.143 39.616 223.295 39.528C223.575 39.368 223.891 39.244 224.243 39.156C224.603 39.06 224.959 39.012 225.311 39.012ZM224.915 44.316C225.395 44.316 225.787 44.156 226.091 43.836C226.403 43.508 226.559 43.088 226.559 42.576V42.228H226.343C225.639 42.228 225.103 42.26 224.735 42.324C224.367 42.38 224.103 42.48 223.943 42.624C223.791 42.76 223.715 42.964 223.715 43.236C223.715 43.548 223.827 43.808 224.051 44.016C224.283 44.216 224.571 44.316 224.915 44.316ZM232.227 39.012C233.627 39.012 234.327 39.784 234.327 41.328V44.58C234.327 44.732 234.283 44.852 234.195 44.94C234.115 45.02 233.999 45.06 233.847 45.06C233.695 45.06 233.575 45.02 233.487 44.94C233.399 44.852 233.355 44.732 233.355 44.58V41.388C233.355 40.844 233.247 40.448 233.031 40.2C232.823 39.952 232.487 39.828 232.023 39.828C231.487 39.828 231.059 39.992 230.739 40.32C230.419 40.648 230.259 41.092 230.259 41.652V44.58C230.259 44.732 230.215 44.852 230.127 44.94C230.047 45.02 229.931 45.06 229.779 45.06C229.627 45.06 229.507 45.02 229.419 44.94C229.331 44.852 229.287 44.732 229.287 44.58V39.516C229.287 39.372 229.331 39.256 229.419 39.168C229.507 39.08 229.627 39.036 229.779 39.036C229.923 39.036 230.035 39.08 230.115 39.168C230.203 39.256 230.247 39.368 230.247 39.504V40.116C230.439 39.756 230.707 39.484 231.051 39.3C231.395 39.108 231.787 39.012 232.227 39.012ZM240.847 39.036C240.999 39.036 241.119 39.08 241.207 39.168C241.295 39.256 241.339 39.372 241.339 39.516V44.604C241.339 45.476 241.115 46.132 240.667 46.572C240.219 47.02 239.555 47.244 238.675 47.244C237.819 47.244 237.107 47.076 236.539 46.74C236.251 46.58 236.107 46.396 236.107 46.188C236.107 46.076 236.135 45.984 236.191 45.912C236.255 45.84 236.335 45.804 236.431 45.804C236.511 45.804 236.655 45.86 236.863 45.972C237.143 46.116 237.419 46.232 237.691 46.32C237.963 46.408 238.287 46.452 238.663 46.452C239.231 46.452 239.659 46.3 239.947 45.996C240.235 45.7 240.379 45.264 240.379 44.688V43.656C240.211 44.032 239.951 44.32 239.599 44.52C239.255 44.72 238.847 44.82 238.375 44.82C237.863 44.82 237.407 44.7 237.007 44.46C236.615 44.22 236.307 43.88 236.083 43.44C235.867 43 235.759 42.492 235.759 41.916C235.759 41.34 235.867 40.832 236.083 40.392C236.307 39.952 236.615 39.612 237.007 39.372C237.407 39.132 237.863 39.012 238.375 39.012C238.839 39.012 239.243 39.112 239.587 39.312C239.931 39.512 240.191 39.796 240.367 40.164V39.516C240.367 39.372 240.407 39.256 240.487 39.168C240.575 39.08 240.695 39.036 240.847 39.036ZM238.567 44.016C239.127 44.016 239.567 43.832 239.887 43.464C240.207 43.088 240.367 42.572 240.367 41.916C240.367 41.268 240.207 40.76 239.887 40.392C239.575 40.016 239.135 39.828 238.567 39.828C237.999 39.828 237.551 40.016 237.223 40.392C236.903 40.76 236.743 41.268 236.743 41.916C236.743 42.572 236.903 43.088 237.223 43.464C237.551 43.832 237.999 44.016 238.567 44.016ZM249.184 39.012C249.872 39.012 250.392 39.208 250.744 39.6C251.096 39.984 251.272 40.56 251.272 41.328V44.58C251.272 44.732 251.228 44.852 251.14 44.94C251.052 45.02 250.936 45.06 250.792 45.06C250.64 45.06 250.52 45.02 250.432 44.94C250.344 44.852 250.3 44.732 250.3 44.58V41.352C250.3 40.832 250.192 40.448 249.976 40.2C249.768 39.952 249.432 39.828 248.968 39.828C248.432 39.828 248.004 39.992 247.684 40.32C247.364 40.648 247.204 41.092 247.204 41.652V44.58C247.204 44.732 247.16 44.852 247.072 44.94C246.992 45.02 246.876 45.06 246.724 45.06C246.572 45.06 246.452 45.02 246.364 44.94C246.276 44.852 246.232 44.732 246.232 44.58V36.948C246.232 36.812 246.276 36.7 246.364 36.612C246.46 36.524 246.58 36.48 246.724 36.48C246.876 36.48 246.992 36.524 247.072 36.612C247.16 36.692 247.204 36.804 247.204 36.948V40.092C247.396 39.74 247.664 39.472 248.008 39.288C248.352 39.104 248.744 39.012 249.184 39.012ZM255.476 45.084C254.924 45.084 254.436 44.96 254.012 44.712C253.596 44.464 253.272 44.112 253.04 43.656C252.816 43.192 252.704 42.656 252.704 42.048C252.704 41.44 252.816 40.908 253.04 40.452C253.272 39.988 253.596 39.632 254.012 39.384C254.436 39.136 254.924 39.012 255.476 39.012C256.028 39.012 256.516 39.136 256.94 39.384C257.364 39.632 257.688 39.988 257.912 40.452C258.144 40.908 258.26 41.44 258.26 42.048C258.26 42.656 258.144 43.192 257.912 43.656C257.688 44.112 257.364 44.464 256.94 44.712C256.516 44.96 256.028 45.084 255.476 45.084ZM255.476 44.28C256.052 44.28 256.492 44.092 256.796 43.716C257.108 43.332 257.264 42.776 257.264 42.048C257.264 41.336 257.108 40.788 256.796 40.404C256.484 40.012 256.044 39.816 255.476 39.816C254.908 39.816 254.468 40.012 254.156 40.404C253.844 40.788 253.688 41.336 253.688 42.048C253.688 42.768 253.84 43.32 254.144 43.704C254.456 44.088 254.9 44.28 255.476 44.28ZM262.097 39.012C263.561 39.012 264.293 39.78 264.293 41.316V44.58C264.293 44.724 264.249 44.84 264.161 44.928C264.081 45.016 263.969 45.06 263.825 45.06C263.681 45.06 263.565 45.016 263.477 44.928C263.389 44.84 263.345 44.724 263.345 44.58V44.004C263.193 44.348 262.961 44.616 262.649 44.808C262.337 44.992 261.977 45.084 261.569 45.084C261.193 45.084 260.845 45.008 260.525 44.856C260.213 44.704 259.965 44.492 259.781 44.22C259.597 43.948 259.505 43.648 259.505 43.32C259.505 42.88 259.617 42.54 259.841 42.3C260.065 42.052 260.433 41.876 260.945 41.772C261.457 41.66 262.169 41.604 263.081 41.604H263.345V41.208C263.345 40.728 263.245 40.376 263.045 40.152C262.853 39.928 262.537 39.816 262.097 39.816C261.553 39.816 261.001 39.964 260.441 40.26C260.225 40.396 260.073 40.464 259.985 40.464C259.889 40.464 259.809 40.428 259.745 40.356C259.681 40.284 259.649 40.192 259.649 40.08C259.649 39.968 259.681 39.872 259.745 39.792C259.817 39.704 259.929 39.616 260.081 39.528C260.361 39.368 260.677 39.244 261.029 39.156C261.389 39.06 261.745 39.012 262.097 39.012ZM261.701 44.316C262.181 44.316 262.573 44.156 262.877 43.836C263.189 43.508 263.345 43.088 263.345 42.576V42.228H263.129C262.425 42.228 261.889 42.26 261.521 42.324C261.153 42.38 260.889 42.48 260.729 42.624C260.577 42.76 260.501 42.964 260.501 43.236C260.501 43.548 260.613 43.808 260.837 44.016C261.069 44.216 261.357 44.316 261.701 44.316ZM262.061 47.244C261.877 47.244 261.729 47.188 261.617 47.076C261.505 46.972 261.449 46.832 261.449 46.656C261.449 46.48 261.505 46.336 261.617 46.224C261.729 46.12 261.877 46.068 262.061 46.068C262.237 46.068 262.381 46.12 262.493 46.224C262.613 46.336 262.673 46.48 262.673 46.656C262.673 46.832 262.617 46.972 262.505 47.076C262.393 47.188 262.245 47.244 262.061 47.244ZM268.772 44.292C269.052 44.316 269.192 44.444 269.192 44.676C269.192 44.812 269.14 44.916 269.036 44.988C268.94 45.052 268.792 45.076 268.592 45.06L268.268 45.036C267.628 44.988 267.156 44.796 266.852 44.46C266.548 44.124 266.396 43.616 266.396 42.936V39.924H265.592C265.456 39.924 265.348 39.892 265.268 39.828C265.196 39.756 265.16 39.664 265.16 39.552C265.16 39.432 265.196 39.336 265.268 39.264C265.348 39.192 265.456 39.156 265.592 39.156H266.396V37.8C266.396 37.648 266.44 37.532 266.528 37.452C266.616 37.364 266.736 37.32 266.888 37.32C267.032 37.32 267.148 37.364 267.236 37.452C267.324 37.532 267.368 37.648 267.368 37.8V39.156H268.7C268.828 39.156 268.928 39.192 269 39.264C269.08 39.336 269.12 39.432 269.12 39.552C269.12 39.664 269.08 39.756 269 39.828C268.928 39.892 268.828 39.924 268.7 39.924H267.368V42.984C267.368 43.424 267.456 43.744 267.632 43.944C267.816 44.136 268.088 44.244 268.448 44.268L268.772 44.292ZM279.208 37.608C279.336 37.608 279.436 37.644 279.508 37.716C279.588 37.78 279.628 37.868 279.628 37.98C279.628 38.092 279.588 38.18 279.508 38.244C279.436 38.308 279.336 38.34 279.208 38.34H278.428V44.58C278.428 44.724 278.384 44.84 278.296 44.928C278.208 45.016 278.088 45.06 277.936 45.06C277.784 45.06 277.664 45.016 277.576 44.928C277.496 44.84 277.456 44.724 277.456 44.58V43.932C277.28 44.3 277.02 44.584 276.676 44.784C276.34 44.984 275.944 45.084 275.488 45.084C274.976 45.084 274.524 44.956 274.132 44.7C273.74 44.444 273.436 44.088 273.22 43.632C273.004 43.168 272.896 42.632 272.896 42.024C272.896 41.424 273.004 40.896 273.22 40.44C273.436 39.984 273.74 39.632 274.132 39.384C274.524 39.136 274.976 39.012 275.488 39.012C275.944 39.012 276.34 39.112 276.676 39.312C277.02 39.512 277.28 39.796 277.456 40.164V38.34H275.464C275.336 38.34 275.236 38.308 275.164 38.244C275.092 38.18 275.056 38.092 275.056 37.98C275.056 37.868 275.092 37.78 275.164 37.716C275.236 37.644 275.336 37.608 275.464 37.608H277.456V36.948C277.456 36.804 277.496 36.692 277.576 36.612C277.664 36.524 277.784 36.48 277.936 36.48C278.088 36.48 278.208 36.524 278.296 36.612C278.384 36.7 278.428 36.812 278.428 36.948V37.608H279.208ZM275.68 44.28C276.248 44.28 276.684 44.088 276.988 43.704C277.3 43.312 277.456 42.76 277.456 42.048C277.456 41.336 277.3 40.788 276.988 40.404C276.684 40.02 276.248 39.828 275.68 39.828C275.112 39.828 274.668 40.02 274.348 40.404C274.036 40.788 273.88 41.328 273.88 42.024C273.88 42.736 274.036 43.292 274.348 43.692C274.668 44.084 275.112 44.28 275.68 44.28ZM282.652 45.084C282.1 45.084 281.612 44.96 281.188 44.712C280.772 44.464 280.448 44.112 280.216 43.656C279.992 43.192 279.88 42.656 279.88 42.048C279.88 41.44 279.992 40.908 280.216 40.452C280.448 39.988 280.772 39.632 281.188 39.384C281.612 39.136 282.1 39.012 282.652 39.012C283.204 39.012 283.692 39.136 284.116 39.384C284.54 39.632 284.864 39.988 285.088 40.452C285.32 40.908 285.436 41.44 285.436 42.048C285.436 42.656 285.32 43.192 285.088 43.656C284.864 44.112 284.54 44.464 284.116 44.712C283.692 44.96 283.204 45.084 282.652 45.084ZM282.652 44.28C283.228 44.28 283.668 44.092 283.972 43.716C284.284 43.332 284.44 42.776 284.44 42.048C284.44 41.336 284.284 40.788 283.972 40.404C283.66 40.012 283.22 39.816 282.652 39.816C282.084 39.816 281.644 40.012 281.332 40.404C281.02 40.788 280.864 41.336 280.864 42.048C280.864 42.768 281.016 43.32 281.32 43.704C281.632 44.088 282.076 44.28 282.652 44.28ZM282.652 47.244C282.468 47.244 282.32 47.188 282.208 47.076C282.096 46.972 282.04 46.832 282.04 46.656C282.04 46.48 282.096 46.336 282.208 46.224C282.32 46.12 282.468 46.068 282.652 46.068C282.828 46.068 282.972 46.12 283.084 46.224C283.204 46.336 283.264 46.48 283.264 46.656C283.264 46.832 283.208 46.972 283.096 47.076C282.984 47.188 282.836 47.244 282.652 47.244ZM281.692 38.244C281.62 38.372 281.512 38.436 281.368 38.436C281.272 38.436 281.188 38.404 281.116 38.34C281.044 38.268 281.008 38.184 281.008 38.088C281.008 38 281.036 37.916 281.092 37.836L282.196 36.204C282.324 36.012 282.476 35.916 282.652 35.916C282.828 35.916 282.98 36.012 283.108 36.204L284.224 37.836C284.28 37.916 284.308 37.996 284.308 38.076C284.308 38.172 284.268 38.256 284.188 38.328C284.116 38.4 284.032 38.436 283.936 38.436C283.792 38.436 283.684 38.372 283.612 38.244L282.652 36.684L281.692 38.244ZM289.824 39.012C291.224 39.012 291.924 39.784 291.924 41.328V44.58C291.924 44.732 291.88 44.852 291.792 44.94C291.712 45.02 291.596 45.06 291.444 45.06C291.292 45.06 291.172 45.02 291.084 44.94C290.996 44.852 290.952 44.732 290.952 44.58V41.388C290.952 40.844 290.844 40.448 290.628 40.2C290.42 39.952 290.084 39.828 289.62 39.828C289.084 39.828 288.656 39.992 288.336 40.32C288.016 40.648 287.856 41.092 287.856 41.652V44.58C287.856 44.732 287.812 44.852 287.724 44.94C287.644 45.02 287.528 45.06 287.376 45.06C287.224 45.06 287.104 45.02 287.016 44.94C286.928 44.852 286.884 44.732 286.884 44.58V39.516C286.884 39.372 286.928 39.256 287.016 39.168C287.104 39.08 287.224 39.036 287.376 39.036C287.52 39.036 287.632 39.08 287.712 39.168C287.8 39.256 287.844 39.368 287.844 39.504V40.116C288.036 39.756 288.304 39.484 288.648 39.3C288.992 39.108 289.384 39.012 289.824 39.012ZM298.445 39.036C298.597 39.036 298.717 39.08 298.805 39.168C298.893 39.256 298.937 39.372 298.937 39.516V44.604C298.937 45.476 298.713 46.132 298.265 46.572C297.817 47.02 297.153 47.244 296.273 47.244C295.417 47.244 294.705 47.076 294.137 46.74C293.849 46.58 293.705 46.396 293.705 46.188C293.705 46.076 293.733 45.984 293.789 45.912C293.853 45.84 293.933 45.804 294.029 45.804C294.109 45.804 294.253 45.86 294.461 45.972C294.741 46.116 295.017 46.232 295.289 46.32C295.561 46.408 295.885 46.452 296.261 46.452C296.829 46.452 297.257 46.3 297.545 45.996C297.833 45.7 297.977 45.264 297.977 44.688V43.656C297.809 44.032 297.549 44.32 297.197 44.52C296.853 44.72 296.445 44.82 295.973 44.82C295.461 44.82 295.005 44.7 294.605 44.46C294.213 44.22 293.905 43.88 293.681 43.44C293.465 43 293.357 42.492 293.357 41.916C293.357 41.34 293.465 40.832 293.681 40.392C293.905 39.952 294.213 39.612 294.605 39.372C295.005 39.132 295.461 39.012 295.973 39.012C296.437 39.012 296.841 39.112 297.185 39.312C297.529 39.512 297.789 39.796 297.965 40.164V39.516C297.965 39.372 298.005 39.256 298.085 39.168C298.173 39.08 298.293 39.036 298.445 39.036ZM296.165 44.016C296.725 44.016 297.165 43.832 297.485 43.464C297.805 43.088 297.965 42.572 297.965 41.916C297.965 41.268 297.805 40.76 297.485 40.392C297.173 40.016 296.733 39.828 296.165 39.828C295.597 39.828 295.149 40.016 294.821 40.392C294.501 40.76 294.341 41.268 294.341 41.916C294.341 42.572 294.501 43.088 294.821 43.464C295.149 43.832 295.597 44.016 296.165 44.016Z" fill="#7E7D88"/>
<rect x="205" y="39" width="4" height="4" rx="2" fill="#FFD130"/>
<path d="M319.35 68.668C319.63 68.668 319.84 68.7287 319.98 68.85C320.12 68.9713 320.19 69.144 320.19 69.368C320.19 69.8347 319.91 70.068 319.35 70.068H318.636V71.174C318.636 71.4633 318.552 71.6873 318.384 71.846C318.225 72.0047 318.015 72.084 317.754 72.084C317.493 72.084 317.278 72.0047 317.11 71.846C316.951 71.6873 316.872 71.4633 316.872 71.174V70.068H313.204C312.952 70.068 312.756 69.998 312.616 69.858C312.476 69.7087 312.406 69.5267 312.406 69.312C312.406 69.088 312.481 68.8733 312.63 68.668L316.956 62.452C317.049 62.3213 317.166 62.2233 317.306 62.158C317.446 62.0833 317.591 62.046 317.74 62.046C317.983 62.046 318.193 62.1253 318.37 62.284C318.547 62.4427 318.636 62.6667 318.636 62.956V68.668H319.35ZM314.268 68.668H316.872V64.902L314.268 68.668ZM327.367 70.544C327.927 70.544 328.207 70.782 328.207 71.258C328.207 71.7527 327.927 72 327.367 72H322.047C321.804 72 321.613 71.93 321.473 71.79C321.333 71.6407 321.263 71.4587 321.263 71.244C321.263 70.964 321.37 70.712 321.585 70.488L324.777 67.058C325.169 66.6287 325.453 66.2367 325.631 65.882C325.817 65.518 325.911 65.1587 325.911 64.804C325.911 64.3653 325.785 64.0293 325.533 63.796C325.281 63.5627 324.921 63.446 324.455 63.446C324.072 63.446 323.699 63.5207 323.335 63.67C322.98 63.81 322.621 64.006 322.257 64.258C322.163 64.3233 322.07 64.3793 321.977 64.426C321.883 64.4633 321.79 64.482 321.697 64.482C321.538 64.482 321.398 64.4073 321.277 64.258C321.165 64.1087 321.109 63.9313 321.109 63.726C321.109 63.586 321.132 63.4647 321.179 63.362C321.235 63.2593 321.319 63.1613 321.431 63.068C321.841 62.7413 322.322 62.4847 322.873 62.298C323.423 62.102 323.974 62.004 324.525 62.004C325.486 62.004 326.251 62.2467 326.821 62.732C327.399 63.2173 327.689 63.8707 327.689 64.692C327.689 65.2613 327.567 65.798 327.325 66.302C327.082 66.7967 326.671 67.352 326.093 67.968L323.671 70.544H327.367ZM335.775 70.544C336.335 70.544 336.615 70.782 336.615 71.258C336.615 71.7527 336.335 72 335.775 72H330.455C330.212 72 330.021 71.93 329.881 71.79C329.741 71.6407 329.671 71.4587 329.671 71.244C329.671 70.964 329.778 70.712 329.993 70.488L333.185 67.058C333.577 66.6287 333.861 66.2367 334.039 65.882C334.225 65.518 334.319 65.1587 334.319 64.804C334.319 64.3653 334.193 64.0293 333.941 63.796C333.689 63.5627 333.329 63.446 332.863 63.446C332.48 63.446 332.107 63.5207 331.743 63.67C331.388 63.81 331.029 64.006 330.665 64.258C330.571 64.3233 330.478 64.3793 330.385 64.426C330.291 64.4633 330.198 64.482 330.105 64.482C329.946 64.482 329.806 64.4073 329.685 64.258C329.573 64.1087 329.517 63.9313 329.517 63.726C329.517 63.586 329.54 63.4647 329.587 63.362C329.643 63.2593 329.727 63.1613 329.839 63.068C330.249 62.7413 330.73 62.4847 331.281 62.298C331.831 62.102 332.382 62.004 332.933 62.004C333.894 62.004 334.659 62.2467 335.229 62.732C335.807 63.2173 336.097 63.8707 336.097 64.692C336.097 65.2613 335.975 65.798 335.733 66.302C335.49 66.7967 335.079 67.352 334.501 67.968L332.079 70.544H335.775Z" fill="#FF7506"/>
<path d="M220.368 62.48C220.512 62.48 220.624 62.528 220.704 62.624C220.784 62.712 220.824 62.832 220.824 62.984V70.556C220.824 70.708 220.78 70.832 220.692 70.928C220.612 71.016 220.496 71.06 220.344 71.06C220.192 71.06 220.06 70.992 219.948 70.856L214.968 64.196V70.556C214.968 70.708 214.924 70.832 214.836 70.928C214.756 71.016 214.644 71.06 214.5 71.06C214.356 71.06 214.244 71.016 214.164 70.928C214.084 70.832 214.044 70.708 214.044 70.556V62.984C214.044 62.832 214.084 62.712 214.164 62.624C214.252 62.528 214.372 62.48 214.524 62.48C214.684 62.48 214.82 62.548 214.932 62.684L219.9 69.344V62.984C219.9 62.832 219.94 62.712 220.02 62.624C220.108 62.528 220.224 62.48 220.368 62.48ZM227.511 65.036C227.663 65.036 227.783 65.08 227.871 65.168C227.959 65.256 228.003 65.372 228.003 65.516V70.604C228.003 71.476 227.779 72.132 227.331 72.572C226.883 73.02 226.219 73.244 225.339 73.244C224.483 73.244 223.771 73.076 223.203 72.74C222.915 72.58 222.771 72.396 222.771 72.188C222.771 72.076 222.799 71.984 222.855 71.912C222.919 71.84 222.999 71.804 223.095 71.804C223.175 71.804 223.319 71.86 223.527 71.972C223.807 72.116 224.083 72.232 224.355 72.32C224.627 72.408 224.951 72.452 225.327 72.452C225.895 72.452 226.323 72.3 226.611 71.996C226.899 71.7 227.043 71.264 227.043 70.688V69.656C226.875 70.032 226.615 70.32 226.263 70.52C225.919 70.72 225.511 70.82 225.039 70.82C224.527 70.82 224.071 70.7 223.671 70.46C223.279 70.22 222.971 69.88 222.747 69.44C222.531 69 222.423 68.492 222.423 67.916C222.423 67.34 222.531 66.832 222.747 66.392C222.971 65.952 223.279 65.612 223.671 65.372C224.071 65.132 224.527 65.012 225.039 65.012C225.503 65.012 225.907 65.112 226.251 65.312C226.595 65.512 226.855 65.796 227.031 66.164V65.516C227.031 65.372 227.071 65.256 227.151 65.168C227.239 65.08 227.359 65.036 227.511 65.036ZM225.231 70.016C225.791 70.016 226.231 69.832 226.551 69.464C226.871 69.088 227.031 68.572 227.031 67.916C227.031 67.268 226.871 66.76 226.551 66.392C226.239 66.016 225.799 65.828 225.231 65.828C224.663 65.828 224.215 66.016 223.887 66.392C223.567 66.76 223.407 67.268 223.407 67.916C223.407 68.572 223.567 69.088 223.887 69.464C224.215 69.832 224.663 70.016 225.231 70.016ZM236.138 64.016C236.138 64.456 236.006 64.828 235.742 65.132C235.486 65.428 235.146 65.6 234.722 65.648V70.592C234.722 70.728 234.678 70.84 234.59 70.928C234.51 71.016 234.394 71.06 234.242 71.06C234.098 71.06 233.982 71.02 233.894 70.94C233.814 70.852 233.774 70.74 233.774 70.604V70.004C233.59 70.356 233.33 70.624 232.994 70.808C232.666 70.992 232.294 71.084 231.878 71.084C231.182 71.084 230.658 70.892 230.306 70.508C229.954 70.116 229.778 69.54 229.778 68.78V65.516C229.778 65.372 229.822 65.256 229.91 65.168C229.998 65.08 230.118 65.036 230.27 65.036C230.422 65.036 230.538 65.08 230.618 65.168C230.706 65.256 230.75 65.372 230.75 65.516V68.756C230.75 69.276 230.854 69.66 231.062 69.908C231.27 70.148 231.598 70.268 232.046 70.268C232.558 70.268 232.97 70.104 233.282 69.776C233.594 69.44 233.75 69 233.75 68.456V65.516C233.75 65.22 233.91 65.06 234.23 65.036C234.574 65.036 234.822 64.956 234.974 64.796C235.126 64.636 235.214 64.364 235.238 63.98C235.27 63.676 235.43 63.524 235.718 63.524C235.862 63.524 235.966 63.564 236.03 63.644C236.102 63.716 236.138 63.84 236.138 64.016ZM239.645 65.012C241.045 65.012 241.745 65.784 241.745 67.328V70.58C241.745 70.732 241.701 70.852 241.613 70.94C241.533 71.02 241.417 71.06 241.265 71.06C241.113 71.06 240.993 71.02 240.905 70.94C240.817 70.852 240.773 70.732 240.773 70.58V67.388C240.773 66.844 240.665 66.448 240.449 66.2C240.241 65.952 239.905 65.828 239.441 65.828C238.905 65.828 238.477 65.992 238.157 66.32C237.837 66.648 237.677 67.092 237.677 67.652V70.58C237.677 70.732 237.633 70.852 237.545 70.94C237.465 71.02 237.349 71.06 237.197 71.06C237.045 71.06 236.925 71.02 236.837 70.94C236.749 70.852 236.705 70.732 236.705 70.58V65.516C236.705 65.372 236.749 65.256 236.837 65.168C236.925 65.08 237.045 65.036 237.197 65.036C237.341 65.036 237.453 65.08 237.533 65.168C237.621 65.256 237.665 65.368 237.665 65.504V66.116C237.857 65.756 238.125 65.484 238.469 65.3C238.813 65.108 239.205 65.012 239.645 65.012ZM248.265 65.036C248.417 65.036 248.537 65.08 248.625 65.168C248.713 65.256 248.757 65.372 248.757 65.516V70.604C248.757 71.476 248.533 72.132 248.085 72.572C247.637 73.02 246.973 73.244 246.093 73.244C245.237 73.244 244.525 73.076 243.957 72.74C243.669 72.58 243.525 72.396 243.525 72.188C243.525 72.076 243.553 71.984 243.609 71.912C243.673 71.84 243.753 71.804 243.849 71.804C243.929 71.804 244.073 71.86 244.281 71.972C244.561 72.116 244.837 72.232 245.109 72.32C245.381 72.408 245.705 72.452 246.081 72.452C246.649 72.452 247.077 72.3 247.365 71.996C247.653 71.7 247.797 71.264 247.797 70.688V69.656C247.629 70.032 247.369 70.32 247.017 70.52C246.673 70.72 246.265 70.82 245.793 70.82C245.281 70.82 244.825 70.7 244.425 70.46C244.033 70.22 243.725 69.88 243.501 69.44C243.285 69 243.177 68.492 243.177 67.916C243.177 67.34 243.285 66.832 243.501 66.392C243.725 65.952 244.033 65.612 244.425 65.372C244.825 65.132 245.281 65.012 245.793 65.012C246.257 65.012 246.661 65.112 247.005 65.312C247.349 65.512 247.609 65.796 247.785 66.164V65.516C247.785 65.372 247.825 65.256 247.905 65.168C247.993 65.08 248.113 65.036 248.265 65.036ZM245.985 70.016C246.545 70.016 246.985 69.832 247.305 69.464C247.625 69.088 247.785 68.572 247.785 67.916C247.785 67.268 247.625 66.76 247.305 66.392C246.993 66.016 246.553 65.828 245.985 65.828C245.417 65.828 244.969 66.016 244.641 66.392C244.321 66.76 244.161 67.268 244.161 67.916C244.161 68.572 244.321 69.088 244.641 69.464C244.969 69.832 245.417 70.016 245.985 70.016ZM256.602 65.012C257.29 65.012 257.81 65.208 258.162 65.6C258.514 65.984 258.69 66.56 258.69 67.328V70.58C258.69 70.732 258.646 70.852 258.558 70.94C258.47 71.02 258.354 71.06 258.21 71.06C258.058 71.06 257.938 71.02 257.85 70.94C257.762 70.852 257.718 70.732 257.718 70.58V67.352C257.718 66.832 257.61 66.448 257.394 66.2C257.186 65.952 256.85 65.828 256.386 65.828C255.85 65.828 255.422 65.992 255.102 66.32C254.782 66.648 254.622 67.092 254.622 67.652V70.58C254.622 70.732 254.578 70.852 254.49 70.94C254.41 71.02 254.294 71.06 254.142 71.06C253.99 71.06 253.87 71.02 253.782 70.94C253.694 70.852 253.65 70.732 253.65 70.58V62.948C253.65 62.812 253.694 62.7 253.782 62.612C253.878 62.524 253.998 62.48 254.142 62.48C254.294 62.48 254.41 62.524 254.49 62.612C254.578 62.692 254.622 62.804 254.622 62.948V66.092C254.814 65.74 255.082 65.472 255.426 65.288C255.77 65.104 256.162 65.012 256.602 65.012ZM262.894 71.084C262.342 71.084 261.854 70.96 261.43 70.712C261.014 70.464 260.69 70.112 260.458 69.656C260.234 69.192 260.122 68.656 260.122 68.048C260.122 67.44 260.234 66.908 260.458 66.452C260.69 65.988 261.014 65.632 261.43 65.384C261.854 65.136 262.342 65.012 262.894 65.012C263.446 65.012 263.934 65.136 264.358 65.384C264.782 65.632 265.106 65.988 265.33 66.452C265.562 66.908 265.678 67.44 265.678 68.048C265.678 68.656 265.562 69.192 265.33 69.656C265.106 70.112 264.782 70.464 264.358 70.712C263.934 70.96 263.446 71.084 262.894 71.084ZM262.894 70.28C263.47 70.28 263.91 70.092 264.214 69.716C264.526 69.332 264.682 68.776 264.682 68.048C264.682 67.336 264.526 66.788 264.214 66.404C263.902 66.012 263.462 65.816 262.894 65.816C262.326 65.816 261.886 66.012 261.574 66.404C261.262 66.788 261.106 67.336 261.106 68.048C261.106 68.768 261.258 69.32 261.562 69.704C261.874 70.088 262.318 70.28 262.894 70.28ZM269.515 65.012C270.979 65.012 271.711 65.78 271.711 67.316V70.58C271.711 70.724 271.667 70.84 271.579 70.928C271.499 71.016 271.387 71.06 271.243 71.06C271.099 71.06 270.983 71.016 270.895 70.928C270.807 70.84 270.763 70.724 270.763 70.58V70.004C270.611 70.348 270.379 70.616 270.067 70.808C269.755 70.992 269.395 71.084 268.987 71.084C268.611 71.084 268.263 71.008 267.943 70.856C267.631 70.704 267.383 70.492 267.199 70.22C267.015 69.948 266.923 69.648 266.923 69.32C266.923 68.88 267.035 68.54 267.259 68.3C267.483 68.052 267.851 67.876 268.363 67.772C268.875 67.66 269.587 67.604 270.499 67.604H270.763V67.208C270.763 66.728 270.663 66.376 270.463 66.152C270.271 65.928 269.955 65.816 269.515 65.816C268.971 65.816 268.419 65.964 267.859 66.26C267.643 66.396 267.491 66.464 267.403 66.464C267.307 66.464 267.227 66.428 267.163 66.356C267.099 66.284 267.067 66.192 267.067 66.08C267.067 65.968 267.099 65.872 267.163 65.792C267.235 65.704 267.347 65.616 267.499 65.528C267.779 65.368 268.095 65.244 268.447 65.156C268.807 65.06 269.163 65.012 269.515 65.012ZM269.119 70.316C269.599 70.316 269.991 70.156 270.295 69.836C270.607 69.508 270.763 69.088 270.763 68.576V68.228H270.547C269.843 68.228 269.307 68.26 268.939 68.324C268.571 68.38 268.307 68.48 268.147 68.624C267.995 68.76 267.919 68.964 267.919 69.236C267.919 69.548 268.031 69.808 268.255 70.016C268.487 70.216 268.775 70.316 269.119 70.316ZM269.479 73.244C269.295 73.244 269.147 73.188 269.035 73.076C268.923 72.972 268.867 72.832 268.867 72.656C268.867 72.48 268.923 72.336 269.035 72.224C269.147 72.12 269.295 72.068 269.479 72.068C269.655 72.068 269.799 72.12 269.911 72.224C270.031 72.336 270.091 72.48 270.091 72.656C270.091 72.832 270.035 72.972 269.923 73.076C269.811 73.188 269.663 73.244 269.479 73.244ZM276.19 70.292C276.47 70.316 276.61 70.444 276.61 70.676C276.61 70.812 276.558 70.916 276.454 70.988C276.358 71.052 276.21 71.076 276.01 71.06L275.686 71.036C275.046 70.988 274.574 70.796 274.27 70.46C273.966 70.124 273.814 69.616 273.814 68.936V65.924H273.01C272.874 65.924 272.766 65.892 272.686 65.828C272.614 65.756 272.578 65.664 272.578 65.552C272.578 65.432 272.614 65.336 272.686 65.264C272.766 65.192 272.874 65.156 273.01 65.156H273.814V63.8C273.814 63.648 273.858 63.532 273.946 63.452C274.034 63.364 274.154 63.32 274.306 63.32C274.45 63.32 274.566 63.364 274.654 63.452C274.742 63.532 274.786 63.648 274.786 63.8V65.156H276.118C276.246 65.156 276.346 65.192 276.418 65.264C276.498 65.336 276.538 65.432 276.538 65.552C276.538 65.664 276.498 65.756 276.418 65.828C276.346 65.892 276.246 65.924 276.118 65.924H274.786V68.984C274.786 69.424 274.874 69.744 275.05 69.944C275.234 70.136 275.506 70.244 275.866 70.268L276.19 70.292ZM286.626 63.608C286.754 63.608 286.854 63.644 286.926 63.716C287.006 63.78 287.046 63.868 287.046 63.98C287.046 64.092 287.006 64.18 286.926 64.244C286.854 64.308 286.754 64.34 286.626 64.34H285.846V70.58C285.846 70.724 285.802 70.84 285.714 70.928C285.626 71.016 285.506 71.06 285.354 71.06C285.202 71.06 285.082 71.016 284.994 70.928C284.914 70.84 284.874 70.724 284.874 70.58V69.932C284.698 70.3 284.438 70.584 284.094 70.784C283.758 70.984 283.362 71.084 282.906 71.084C282.394 71.084 281.942 70.956 281.55 70.7C281.158 70.444 280.854 70.088 280.638 69.632C280.422 69.168 280.314 68.632 280.314 68.024C280.314 67.424 280.422 66.896 280.638 66.44C280.854 65.984 281.158 65.632 281.55 65.384C281.942 65.136 282.394 65.012 282.906 65.012C283.362 65.012 283.758 65.112 284.094 65.312C284.438 65.512 284.698 65.796 284.874 66.164V64.34H282.882C282.754 64.34 282.654 64.308 282.582 64.244C282.51 64.18 282.474 64.092 282.474 63.98C282.474 63.868 282.51 63.78 282.582 63.716C282.654 63.644 282.754 63.608 282.882 63.608H284.874V62.948C284.874 62.804 284.914 62.692 284.994 62.612C285.082 62.524 285.202 62.48 285.354 62.48C285.506 62.48 285.626 62.524 285.714 62.612C285.802 62.7 285.846 62.812 285.846 62.948V63.608H286.626ZM283.098 70.28C283.666 70.28 284.102 70.088 284.406 69.704C284.718 69.312 284.874 68.76 284.874 68.048C284.874 67.336 284.718 66.788 284.406 66.404C284.102 66.02 283.666 65.828 283.098 65.828C282.53 65.828 282.086 66.02 281.766 66.404C281.454 66.788 281.298 67.328 281.298 68.024C281.298 68.736 281.454 69.292 281.766 69.692C282.086 70.084 282.53 70.28 283.098 70.28ZM290.07 71.084C289.518 71.084 289.03 70.96 288.606 70.712C288.19 70.464 287.866 70.112 287.634 69.656C287.41 69.192 287.298 68.656 287.298 68.048C287.298 67.44 287.41 66.908 287.634 66.452C287.866 65.988 288.19 65.632 288.606 65.384C289.03 65.136 289.518 65.012 290.07 65.012C290.622 65.012 291.11 65.136 291.534 65.384C291.958 65.632 292.282 65.988 292.506 66.452C292.738 66.908 292.854 67.44 292.854 68.048C292.854 68.656 292.738 69.192 292.506 69.656C292.282 70.112 291.958 70.464 291.534 70.712C291.11 70.96 290.622 71.084 290.07 71.084ZM290.07 70.28C290.646 70.28 291.086 70.092 291.39 69.716C291.702 69.332 291.858 68.776 291.858 68.048C291.858 67.336 291.702 66.788 291.39 66.404C291.078 66.012 290.638 65.816 290.07 65.816C289.502 65.816 289.062 66.012 288.75 66.404C288.438 66.788 288.282 67.336 288.282 68.048C288.282 68.768 288.434 69.32 288.738 69.704C289.05 70.088 289.494 70.28 290.07 70.28ZM290.07 73.244C289.886 73.244 289.738 73.188 289.626 73.076C289.514 72.972 289.458 72.832 289.458 72.656C289.458 72.48 289.514 72.336 289.626 72.224C289.738 72.12 289.886 72.068 290.07 72.068C290.246 72.068 290.39 72.12 290.502 72.224C290.622 72.336 290.682 72.48 290.682 72.656C290.682 72.832 290.626 72.972 290.514 73.076C290.402 73.188 290.254 73.244 290.07 73.244ZM289.11 64.244C289.038 64.372 288.93 64.436 288.786 64.436C288.69 64.436 288.606 64.404 288.534 64.34C288.462 64.268 288.426 64.184 288.426 64.088C288.426 64 288.454 63.916 288.51 63.836L289.614 62.204C289.742 62.012 289.894 61.916 290.07 61.916C290.246 61.916 290.398 62.012 290.526 62.204L291.642 63.836C291.698 63.916 291.726 63.996 291.726 64.076C291.726 64.172 291.686 64.256 291.606 64.328C291.534 64.4 291.45 64.436 291.354 64.436C291.21 64.436 291.102 64.372 291.03 64.244L290.07 62.684L289.11 64.244ZM297.242 65.012C298.642 65.012 299.342 65.784 299.342 67.328V70.58C299.342 70.732 299.298 70.852 299.21 70.94C299.13 71.02 299.014 71.06 298.862 71.06C298.71 71.06 298.59 71.02 298.502 70.94C298.414 70.852 298.37 70.732 298.37 70.58V67.388C298.37 66.844 298.262 66.448 298.046 66.2C297.838 65.952 297.502 65.828 297.038 65.828C296.502 65.828 296.074 65.992 295.754 66.32C295.434 66.648 295.274 67.092 295.274 67.652V70.58C295.274 70.732 295.23 70.852 295.142 70.94C295.062 71.02 294.946 71.06 294.794 71.06C294.642 71.06 294.522 71.02 294.434 70.94C294.346 70.852 294.302 70.732 294.302 70.58V65.516C294.302 65.372 294.346 65.256 294.434 65.168C294.522 65.08 294.642 65.036 294.794 65.036C294.938 65.036 295.05 65.08 295.13 65.168C295.218 65.256 295.262 65.368 295.262 65.504V66.116C295.454 65.756 295.722 65.484 296.066 65.3C296.41 65.108 296.802 65.012 297.242 65.012ZM305.863 65.036C306.015 65.036 306.135 65.08 306.223 65.168C306.311 65.256 306.355 65.372 306.355 65.516V70.604C306.355 71.476 306.131 72.132 305.683 72.572C305.235 73.02 304.571 73.244 303.691 73.244C302.835 73.244 302.123 73.076 301.555 72.74C301.267 72.58 301.123 72.396 301.123 72.188C301.123 72.076 301.151 71.984 301.207 71.912C301.271 71.84 301.351 71.804 301.447 71.804C301.527 71.804 301.671 71.86 301.879 71.972C302.159 72.116 302.435 72.232 302.707 72.32C302.979 72.408 303.303 72.452 303.679 72.452C304.247 72.452 304.675 72.3 304.963 71.996C305.251 71.7 305.395 71.264 305.395 70.688V69.656C305.227 70.032 304.967 70.32 304.615 70.52C304.271 70.72 303.863 70.82 303.391 70.82C302.879 70.82 302.423 70.7 302.023 70.46C301.631 70.22 301.323 69.88 301.099 69.44C300.883 69 300.775 68.492 300.775 67.916C300.775 67.34 300.883 66.832 301.099 66.392C301.323 65.952 301.631 65.612 302.023 65.372C302.423 65.132 302.879 65.012 303.391 65.012C303.855 65.012 304.259 65.112 304.603 65.312C304.947 65.512 305.207 65.796 305.383 66.164V65.516C305.383 65.372 305.423 65.256 305.503 65.168C305.591 65.08 305.711 65.036 305.863 65.036ZM303.583 70.016C304.143 70.016 304.583 69.832 304.903 69.464C305.223 69.088 305.383 68.572 305.383 67.916C305.383 67.268 305.223 66.76 304.903 66.392C304.591 66.016 304.151 65.828 303.583 65.828C303.015 65.828 302.567 66.016 302.239 66.392C301.919 66.76 301.759 67.268 301.759 67.916C301.759 68.572 301.919 69.088 302.239 69.464C302.567 69.832 303.015 70.016 303.583 70.016Z" fill="#7E7D88"/>
<rect x="205" y="65" width="4" height="4" rx="2" fill="#7E7D88"/>
<path d="M113.48 47.048C114.648 47.048 115.232 47.52 115.232 48.464C115.232 49.424 114.648 49.904 113.48 49.904H112.592V51.272C112.592 51.88 112.424 52.344 112.088 52.664C111.752 52.984 111.312 53.144 110.768 53.144C110.224 53.144 109.784 52.984 109.448 52.664C109.112 52.344 108.944 51.88 108.944 51.272V49.904H103.112C102.616 49.904 102.224 49.76 101.936 49.472C101.648 49.168 101.504 48.792 101.504 48.344C101.504 47.896 101.656 47.448 101.96 47L109.112 36.776C109.304 36.504 109.544 36.304 109.832 36.176C110.12 36.032 110.424 35.96 110.744 35.96C111.24 35.96 111.672 36.128 112.04 36.464C112.408 36.784 112.592 37.232 112.592 37.808V47.048H113.48ZM105.272 47.048H108.944V41.768L105.272 47.048ZM118.511 53.144C117.919 53.144 117.431 52.952 117.047 52.568C116.663 52.168 116.471 51.672 116.471 51.08C116.471 50.488 116.663 50 117.047 49.616C117.431 49.216 117.919 49.016 118.511 49.016C119.103 49.016 119.591 49.216 119.975 49.616C120.359 50 120.551 50.488 120.551 51.08C120.551 51.672 120.359 52.168 119.975 52.568C119.591 52.952 119.103 53.144 118.511 53.144ZM133.433 50C134.617 50 135.209 50.496 135.209 51.488C135.209 52.496 134.617 53 133.433 53H124.505C124.009 53 123.609 52.856 123.305 52.568C123.017 52.264 122.873 51.888 122.873 51.44C122.873 50.864 123.105 50.336 123.569 49.856L128.849 44.264C130.033 43.016 130.625 41.864 130.625 40.808C130.625 40.152 130.441 39.656 130.073 39.32C129.705 38.968 129.169 38.792 128.465 38.792C127.857 38.792 127.297 38.896 126.785 39.104C126.273 39.312 125.681 39.616 125.009 40.016C124.737 40.176 124.529 40.288 124.385 40.352C124.241 40.416 124.073 40.448 123.881 40.448C123.545 40.448 123.257 40.296 123.017 39.992C122.777 39.672 122.657 39.304 122.657 38.888C122.657 38.584 122.705 38.336 122.801 38.144C122.913 37.936 123.089 37.752 123.329 37.592C124.049 37.064 124.873 36.648 125.801 36.344C126.745 36.024 127.689 35.864 128.633 35.864C129.769 35.864 130.761 36.056 131.609 36.44C132.473 36.824 133.137 37.376 133.601 38.096C134.065 38.8 134.297 39.616 134.297 40.544C134.297 41.52 134.089 42.424 133.673 43.256C133.273 44.088 132.593 45.016 131.633 46.04L127.865 50H133.433ZM147.847 50C149.031 50 149.623 50.496 149.623 51.488C149.623 52.496 149.031 53 147.847 53H138.919C138.423 53 138.023 52.856 137.719 52.568C137.431 52.264 137.287 51.888 137.287 51.44C137.287 50.864 137.519 50.336 137.983 49.856L143.263 44.264C144.447 43.016 145.039 41.864 145.039 40.808C145.039 40.152 144.855 39.656 144.487 39.32C144.119 38.968 143.583 38.792 142.879 38.792C142.271 38.792 141.711 38.896 141.199 39.104C140.687 39.312 140.095 39.616 139.423 40.016C139.151 40.176 138.943 40.288 138.799 40.352C138.655 40.416 138.487 40.448 138.295 40.448C137.959 40.448 137.671 40.296 137.431 39.992C137.191 39.672 137.071 39.304 137.071 38.888C137.071 38.584 137.119 38.336 137.215 38.144C137.327 37.936 137.503 37.752 137.743 37.592C138.463 37.064 139.287 36.648 140.215 36.344C141.159 36.024 142.103 35.864 143.047 35.864C144.183 35.864 145.175 36.056 146.023 36.44C146.887 36.824 147.551 37.376 148.015 38.096C148.479 38.8 148.711 39.616 148.711 40.544C148.711 41.52 148.503 42.424 148.087 43.256C147.687 44.088 147.007 45.016 146.047 46.04L142.279 50H147.847ZM162.597 50C163.765 50 164.349 50.496 164.349 51.488C164.349 52.496 163.765 53 162.597 53H154.389C153.205 53 152.613 52.496 152.613 51.488C152.613 50.496 153.205 50 154.389 50H156.621V40.184L154.509 41.456C154.269 41.6 154.029 41.672 153.789 41.672C153.389 41.672 153.045 41.504 152.757 41.168C152.485 40.832 152.349 40.456 152.349 40.04C152.349 39.48 152.597 39.056 153.093 38.768L156.885 36.488C157.445 36.152 158.005 35.984 158.565 35.984C159.093 35.984 159.525 36.152 159.861 36.488C160.197 36.808 160.365 37.248 160.365 37.808V50H162.597Z" fill="#535261"/>
<path d="M123.228 75.07C123.013 75.07 122.836 75.0047 122.696 74.874C122.565 74.734 122.5 74.5567 122.5 74.342V66.334H119.7C119.252 66.334 119.028 66.1333 119.028 65.732C119.028 65.536 119.084 65.3867 119.196 65.284C119.317 65.1813 119.485 65.13 119.7 65.13H126.756C126.971 65.13 127.134 65.1813 127.246 65.284C127.367 65.3867 127.428 65.536 127.428 65.732C127.428 66.1333 127.204 66.334 126.756 66.334H123.956V74.342C123.956 74.5567 123.891 74.734 123.76 74.874C123.629 75.0047 123.452 75.07 123.228 75.07ZM132.918 68C134.542 68 135.354 68.9193 135.354 70.758V74.398C135.354 74.6033 135.289 74.7667 135.158 74.888C135.028 75.0093 134.855 75.07 134.64 75.07C134.426 75.07 134.253 75.0093 134.122 74.888C134.001 74.7667 133.94 74.6033 133.94 74.398V70.772C133.94 70.212 133.824 69.8013 133.59 69.54C133.366 69.2787 133.012 69.148 132.526 69.148C131.957 69.148 131.5 69.3253 131.154 69.68C130.809 70.0347 130.636 70.5107 130.636 71.108V74.398C130.636 74.6033 130.571 74.7667 130.44 74.888C130.319 75.0093 130.151 75.07 129.936 75.07C129.722 75.07 129.549 75.0093 129.418 74.888C129.288 74.7667 129.222 74.6033 129.222 74.398V65.732C129.222 65.5267 129.288 65.3633 129.418 65.242C129.558 65.1207 129.736 65.06 129.95 65.06C130.156 65.06 130.319 65.1207 130.44 65.242C130.571 65.354 130.636 65.508 130.636 65.704V69.204C130.87 68.812 131.182 68.5133 131.574 68.308C131.966 68.1027 132.414 68 132.918 68ZM138.003 75.07C137.797 75.07 137.625 75.014 137.485 74.902C137.354 74.79 137.289 74.622 137.289 74.398V68.714C137.289 68.49 137.354 68.322 137.485 68.21C137.625 68.0887 137.797 68.028 138.003 68.028C138.208 68.028 138.376 68.0887 138.507 68.21C138.637 68.322 138.703 68.49 138.703 68.714V74.398C138.703 74.622 138.637 74.79 138.507 74.902C138.376 75.014 138.208 75.07 138.003 75.07ZM138.003 66.656C137.732 66.656 137.517 66.5813 137.359 66.432C137.2 66.2827 137.121 66.0867 137.121 65.844C137.121 65.6013 137.2 65.41 137.359 65.27C137.517 65.1207 137.732 65.046 138.003 65.046C138.264 65.046 138.474 65.1207 138.633 65.27C138.801 65.41 138.885 65.6013 138.885 65.844C138.885 66.0867 138.805 66.2827 138.647 66.432C138.488 66.5813 138.273 66.656 138.003 66.656ZM146.027 73.278C146.158 73.278 146.265 73.3293 146.349 73.432C146.433 73.5347 146.475 73.6653 146.475 73.824C146.475 74.0947 146.307 74.3233 145.971 74.51C145.645 74.6967 145.285 74.8413 144.893 74.944C144.511 75.0467 144.142 75.098 143.787 75.098C142.705 75.098 141.851 74.7853 141.225 74.16C140.6 73.5253 140.287 72.662 140.287 71.57C140.287 70.87 140.423 70.2493 140.693 69.708C140.973 69.1667 141.361 68.7467 141.855 68.448C142.359 68.1493 142.929 68 143.563 68C144.478 68 145.201 68.294 145.733 68.882C146.265 69.47 146.531 70.2633 146.531 71.262C146.531 71.6353 146.363 71.822 146.027 71.822H141.701C141.795 73.2687 142.49 73.992 143.787 73.992C144.133 73.992 144.431 73.9453 144.683 73.852C144.935 73.7587 145.201 73.6373 145.481 73.488C145.509 73.4693 145.584 73.432 145.705 73.376C145.836 73.3107 145.943 73.278 146.027 73.278ZM143.591 69.036C143.05 69.036 142.616 69.2087 142.289 69.554C141.963 69.8993 141.767 70.3847 141.701 71.01H145.313C145.285 70.3753 145.122 69.89 144.823 69.554C144.534 69.2087 144.123 69.036 143.591 69.036ZM145.411 65.816C145.346 65.8533 145.276 65.872 145.201 65.872C145.108 65.872 145.024 65.8393 144.949 65.774C144.884 65.7087 144.851 65.6293 144.851 65.536C144.851 65.4427 144.884 65.3587 144.949 65.284L145.915 64.038C146.074 63.842 146.247 63.744 146.433 63.744C146.592 63.744 146.727 63.8047 146.839 63.926C146.961 64.038 147.021 64.1733 147.021 64.332C147.021 64.5653 146.9 64.7567 146.657 64.906L145.411 65.816ZM142.401 67.202C142.317 67.286 142.21 67.328 142.079 67.328C141.949 67.328 141.837 67.2813 141.743 67.188C141.65 67.0947 141.603 66.9873 141.603 66.866C141.603 66.7073 141.678 66.572 141.827 66.46L142.989 65.396C143.176 65.2467 143.367 65.172 143.563 65.172C143.741 65.172 143.932 65.2467 144.137 65.396L145.299 66.46C145.458 66.5813 145.537 66.7213 145.537 66.88C145.537 67.0013 145.486 67.1087 145.383 67.202C145.29 67.2953 145.178 67.342 145.047 67.342C144.945 67.342 144.842 67.3 144.739 67.216L143.563 66.054L142.401 67.202ZM151.367 73.992C151.572 74.0107 151.717 74.0667 151.801 74.16C151.894 74.244 151.941 74.3653 151.941 74.524C151.941 74.7107 151.866 74.8553 151.717 74.958C151.577 75.0513 151.367 75.0887 151.087 75.07L150.709 75.042C149.953 74.986 149.388 74.7573 149.015 74.356C148.642 73.9453 148.455 73.3433 148.455 72.55V69.26H147.615C147.204 69.26 146.999 69.078 146.999 68.714C146.999 68.546 147.05 68.4153 147.153 68.322C147.265 68.2193 147.419 68.168 147.615 68.168H148.455V66.726C148.455 66.5113 148.516 66.3433 148.637 66.222C148.768 66.1007 148.94 66.04 149.155 66.04C149.37 66.04 149.542 66.1007 149.673 66.222C149.804 66.3433 149.869 66.5113 149.869 66.726V68.168H151.255C151.451 68.168 151.6 68.2193 151.703 68.322C151.815 68.4153 151.871 68.546 151.871 68.714C151.871 68.8913 151.815 69.0267 151.703 69.12C151.6 69.2133 151.451 69.26 151.255 69.26H149.869V72.648C149.869 73.0867 149.958 73.4087 150.135 73.614C150.322 73.8193 150.602 73.936 150.975 73.964L151.367 73.992ZM160.316 68C160.913 68 161.441 68.1447 161.898 68.434C162.355 68.7233 162.71 69.134 162.962 69.666C163.223 70.198 163.354 70.8187 163.354 71.528C163.354 72.228 163.223 72.8487 162.962 73.39C162.71 73.9313 162.351 74.3513 161.884 74.65C161.427 74.9487 160.904 75.098 160.316 75.098C159.803 75.098 159.35 74.9907 158.958 74.776C158.566 74.552 158.267 74.2347 158.062 73.824V74.384C158.062 74.5893 157.997 74.7573 157.866 74.888C157.745 75.0093 157.577 75.07 157.362 75.07C157.147 75.07 156.975 75.0093 156.844 74.888C156.713 74.7573 156.648 74.5893 156.648 74.384V65.732C156.648 65.5267 156.713 65.3633 156.844 65.242C156.984 65.1207 157.161 65.06 157.376 65.06C157.581 65.06 157.745 65.1207 157.866 65.242C157.997 65.354 158.062 65.508 158.062 65.704V69.288C158.267 68.8773 158.566 68.56 158.958 68.336C159.35 68.112 159.803 68 160.316 68ZM159.98 73.978C160.587 73.978 161.058 73.7633 161.394 73.334C161.739 72.9047 161.912 72.3027 161.912 71.528C161.912 70.7627 161.744 70.1747 161.408 69.764C161.072 69.344 160.596 69.134 159.98 69.134C159.364 69.134 158.888 69.344 158.552 69.764C158.225 70.184 158.062 70.7813 158.062 71.556C158.062 72.3307 158.225 72.928 158.552 73.348C158.888 73.768 159.364 73.978 159.98 73.978ZM165.633 75.07C165.428 75.07 165.255 75.014 165.115 74.902C164.985 74.79 164.919 74.622 164.919 74.398V68.714C164.919 68.49 164.985 68.322 165.115 68.21C165.255 68.0887 165.428 68.028 165.633 68.028C165.839 68.028 166.007 68.0887 166.137 68.21C166.268 68.322 166.333 68.49 166.333 68.714V74.398C166.333 74.622 166.268 74.79 166.137 74.902C166.007 75.014 165.839 75.07 165.633 75.07ZM165.633 66.656C165.363 66.656 165.148 66.5813 164.989 66.432C164.831 66.2827 164.751 66.0867 164.751 65.844C164.751 65.6013 164.831 65.41 164.989 65.27C165.148 65.1207 165.363 65.046 165.633 65.046C165.895 65.046 166.105 65.1207 166.263 65.27C166.431 65.41 166.515 65.6013 166.515 65.844C166.515 66.0867 166.436 66.2827 166.277 66.432C166.119 66.5813 165.904 66.656 165.633 66.656ZM165.619 77.688C165.377 77.688 165.181 77.6133 165.031 77.464C164.882 77.324 164.807 77.1373 164.807 76.904C164.807 76.6707 164.882 76.484 165.031 76.344C165.181 76.204 165.377 76.134 165.619 76.134C165.853 76.134 166.044 76.204 166.193 76.344C166.352 76.4933 166.431 76.68 166.431 76.904C166.431 77.1373 166.357 77.324 166.207 77.464C166.058 77.6133 165.862 77.688 165.619 77.688Z" fill="#FF7506"/>
<path d="M104.757 64.167H111.237C113.314 64.167 113.833 64.6862 113.833 66.757V70.4495C113.833 72.5262 113.314 73.0395 111.243 73.0395H104.757C102.686 73.0453 102.167 72.5262 102.167 70.4553V66.757C102.167 64.6862 102.686 64.167 104.757 64.167Z" stroke="#FF7506" stroke-linecap="round" stroke-linejoin="round"/>
<path d="M108 73.0449V75.8333" stroke="#FF7506" stroke-linecap="round" stroke-linejoin="round"/>
<path d="M102.167 70.583H113.833" stroke="#FF7506" stroke-linecap="round" stroke-linejoin="round"/>
<path d="M105.375 75.833H110.625" stroke="#FF7506" stroke-linecap="round" stroke-linejoin="round"/>
</g>
<defs>
<filter id="filter0_d_233_8480" x="0" y="0" width="383" height="113" filterUnits="userSpaceOnUse" color-interpolation-filters="sRGB">
<feFlood flood-opacity="0" result="BackgroundImageFix"/>
<feColorMatrix in="SourceAlpha" type="matrix" values="0 0 0 0 0 0 0 0 0 0 0 0 0 0 0 0 0 0 127 0" result="hardAlpha"/>
<feOffset dx="2" dy="2"/>
<feGaussianBlur stdDeviation="7.5"/>
<feComposite in2="hardAlpha" operator="out"/>
<feColorMatrix type="matrix" values="0 0 0 0 0.275 0 0 0 0 0.252083 0 0 0 0 0.263826 0 0 0 0.1 0"/>
<feBlend mode="normal" in2="BackgroundImageFix" result="effect1_dropShadow_233_8480"/>
<feBlend mode="normal" in="SourceGraphic" in2="effect1_dropShadow_233_8480" result="shape"/>
</filter>
</defs>
</svg>
